<svg xmlns="http://www.w3.org/2000/svg" xmlns:xlink="http://www.w3.org/1999/xlink" width="131" zoomAndPan="magnify" viewBox="0 0 98.25 98.249996" height="131" preserveAspectRatio="xMidYMid meet" version="1.0"><defs><clipPath id="5fd9105e94"><path d="M 0 0 L 97.503906 0 L 97.503906 97.503906 L 0 97.503906 Z M 0 0 " clip-rule="nonzero"/></clipPath><clipPath id="3bfe6af96d"><path d="M 25.585938 47.265625 L 33.601562 47.265625 L 33.601562 55.171875 L 25.585938 55.171875 Z M 25.585938 47.265625 " clip-rule="nonzero"/></clipPath><clipPath id="f9758b5ccc"><path d="M 27.019531 48.53125 C 31.929688 47.785156 33.121094 48.976562 33.417969 49.945312 C 33.71875 50.984375 33.417969 52.625 32.75 53.441406 C 32.082031 54.1875 30.515625 54.855469 29.476562 54.78125 C 28.507812 54.707031 27.09375 53.8125 26.570312 52.921875 C 26.050781 52.027344 25.976562 50.316406 26.496094 49.421875 C 26.945312 48.457031 28.285156 47.488281 29.324219 47.339844 C 30.367188 47.191406 31.929688 47.859375 32.601562 48.53125 C 33.195312 49.125 33.570312 49.945312 33.570312 50.761719 C 33.570312 51.730469 32.898438 53.21875 32.15625 53.964844 C 31.410156 54.707031 30.144531 55.152344 29.175781 55.152344 C 28.285156 55.152344 27.316406 54.707031 26.722656 54.113281 C 26.125 53.515625 25.679688 52.550781 25.605469 51.730469 C 25.605469 50.6875 27.019531 48.53125 27.019531 48.53125 " clip-rule="nonzero"/></clipPath><clipPath id="d7b3c1c8ec"><path d="M 0.585938 0.265625 L 8.601562 0.265625 L 8.601562 8.171875 L 0.585938 8.171875 Z M 0.585938 0.265625 " clip-rule="nonzero"/></clipPath><clipPath id="4c8e4c5f6f"><path d="M 2.019531 1.53125 C 6.929688 0.785156 8.121094 1.976562 8.417969 2.945312 C 8.71875 3.984375 8.417969 5.625 7.75 6.441406 C 7.082031 7.1875 5.515625 7.855469 4.476562 7.78125 C 3.507812 7.707031 2.09375 6.8125 1.570312 5.921875 C 1.050781 5.027344 0.976562 3.316406 1.496094 2.421875 C 1.945312 1.457031 3.285156 0.488281 4.324219 0.339844 C 5.367188 0.191406 6.929688 0.859375 7.601562 1.53125 C 8.195312 2.125 8.570312 2.945312 8.570312 3.761719 C 8.570312 4.730469 7.898438 6.21875 7.15625 6.964844 C 6.410156 7.707031 5.144531 8.152344 4.175781 8.152344 C 3.285156 8.152344 2.316406 7.707031 1.722656 7.113281 C 1.125 6.515625 0.679688 5.550781 0.605469 4.730469 C 0.605469 3.6875 2.019531 1.53125 2.019531 1.53125 " clip-rule="nonzero"/></clipPath><clipPath id="04a0f268a5"><rect x="0" width="9" y="0" height="9"/></clipPath><clipPath id="976155ceab"><path d="M 58.175781 32.125 L 65.699219 32.125 L 65.699219 39.648438 L 58.175781 39.648438 Z M 58.175781 32.125 " clip-rule="nonzero"/></clipPath><clipPath id="54290f2cfe"><path d="M 62 32.15625 C 65.648438 34.609375 65.796875 36.25 65.425781 37.214844 C 65.054688 38.183594 63.789062 39.300781 62.746094 39.523438 C 61.777344 39.671875 60.140625 39.226562 59.398438 38.554688 C 58.652344 37.8125 58.132812 36.25 58.28125 35.28125 C 58.429688 34.238281 59.472656 32.898438 60.363281 32.453125 C 61.332031 32.003906 62.96875 32.15625 63.863281 32.675781 C 64.753906 33.195312 65.574219 34.683594 65.648438 35.652344 C 65.796875 36.472656 65.574219 37.289062 65.054688 37.960938 C 64.457031 38.703125 62.96875 39.523438 62 39.597656 C 61.109375 39.671875 60.066406 39.226562 59.472656 38.703125 C 58.875 38.183594 58.28125 37.214844 58.207031 36.398438 C 58.132812 35.429688 58.652344 33.867188 59.320312 33.121094 C 59.917969 32.527344 61.777344 32.15625 61.777344 32.15625 " clip-rule="nonzero"/></clipPath><clipPath id="f05d44b5b7"><path d="M 0.175781 0.125 L 7.699219 0.125 L 7.699219 7.648438 L 0.175781 7.648438 Z M 0.175781 0.125 " clip-rule="nonzero"/></clipPath><clipPath id="758ef51d25"><path d="M 4 0.15625 C 7.648438 2.609375 7.796875 4.25 7.425781 5.214844 C 7.054688 6.183594 5.789062 7.300781 4.746094 7.523438 C 3.777344 7.671875 2.140625 7.226562 1.398438 6.554688 C 0.652344 5.8125 0.132812 4.25 0.28125 3.28125 C 0.429688 2.238281 1.472656 0.898438 2.363281 0.453125 C 3.332031 0.00390625 4.96875 0.15625 5.863281 0.675781 C 6.753906 1.195312 7.574219 2.683594 7.648438 3.652344 C 7.796875 4.472656 7.574219 5.289062 7.054688 5.960938 C 6.457031 6.703125 4.96875 7.523438 4 7.597656 C 3.109375 7.671875 2.066406 7.226562 1.472656 6.703125 C 0.875 6.183594 0.28125 5.214844 0.207031 4.398438 C 0.132812 3.429688 0.652344 1.867188 1.320312 1.121094 C 1.917969 0.527344 3.777344 0.15625 3.777344 0.15625 " clip-rule="nonzero"/></clipPath><clipPath id="c27daa66e1"><rect x="0" width="8" y="0" height="8"/></clipPath><clipPath id="c3a4755f84"><path d="M 27.460938 58.5 L 88.671875 58.5 L 88.671875 91 L 27.460938 91 Z M 27.460938 58.5 " clip-rule="nonzero"/></clipPath><clipPath id="44901b2c92"><path d="M 32.75 79.789062 C 42.722656 82.917969 44.4375 83.066406 46.667969 82.992188 C 49.347656 82.917969 52.921875 82.320312 55.675781 81.578125 C 58.28125 80.90625 60.738281 80.015625 62.96875 78.898438 C 64.980469 77.929688 66.839844 76.960938 68.699219 75.546875 C 70.785156 73.984375 72.644531 72.050781 74.730469 69.742188 C 77.484375 66.765625 80.757812 60.214844 83.214844 59.023438 C 84.480469 58.429688 85.746094 58.578125 86.636719 58.949219 C 87.308594 59.246094 87.902344 59.917969 88.203125 60.585938 C 88.574219 61.257812 88.648438 62.152344 88.5 62.894531 C 88.425781 63.566406 87.902344 64.382812 87.382812 64.90625 C 86.863281 65.351562 85.96875 65.722656 85.300781 65.796875 C 84.554688 65.796875 83.660156 65.648438 83.066406 65.203125 C 82.320312 64.605469 81.429688 63.265625 81.355469 62.226562 C 81.355469 61.257812 82.097656 59.84375 82.917969 59.246094 C 83.734375 58.652344 85.375 58.578125 86.265625 58.800781 C 87.011719 59.023438 87.679688 59.546875 88.054688 60.214844 C 88.5 61.109375 88.648438 62.300781 88.277344 63.640625 C 87.679688 65.796875 85 68.847656 82.769531 71.527344 C 80.015625 74.878906 76.441406 79.195312 72.792969 81.949219 C 69.296875 84.480469 65.425781 86.265625 61.480469 87.753906 C 57.535156 89.242188 52.921875 90.507812 48.976562 90.808594 C 45.550781 91.105469 42.425781 90.65625 39.226562 90.0625 C 36.023438 89.394531 31.78125 87.976562 29.847656 86.863281 C 28.878906 86.265625 28.285156 85.671875 27.910156 85 C 27.539062 84.480469 27.464844 83.882812 27.464844 83.214844 C 27.539062 82.46875 28.0625 81.355469 28.507812 80.757812 C 28.953125 80.238281 29.476562 79.941406 30.070312 79.714844 C 30.816406 79.492188 32.75 79.789062 32.75 79.789062 " clip-rule="nonzero"/></clipPath><clipPath id="8113a1f05f"><path d="M 0.460938 0.5 L 61.671875 0.5 L 61.671875 33 L 0.460938 33 Z M 0.460938 0.5 " clip-rule="nonzero"/></clipPath><clipPath id="73547ae472"><path d="M 5.75 21.789062 C 15.722656 24.917969 17.4375 25.066406 19.667969 24.992188 C 22.347656 24.917969 25.921875 24.320312 28.675781 23.578125 C 31.28125 22.90625 33.738281 22.015625 35.96875 20.898438 C 37.980469 19.929688 39.839844 18.960938 41.699219 17.546875 C 43.785156 15.984375 45.644531 14.050781 47.730469 11.742188 C 50.484375 8.765625 53.757812 2.214844 56.214844 1.023438 C 57.480469 0.429688 58.746094 0.578125 59.636719 0.949219 C 60.308594 1.246094 60.902344 1.917969 61.203125 2.585938 C 61.574219 3.257812 61.648438 4.152344 61.5 4.894531 C 61.425781 5.566406 60.902344 6.382812 60.382812 6.90625 C 59.863281 7.351562 58.96875 7.722656 58.300781 7.796875 C 57.554688 7.796875 56.660156 7.648438 56.066406 7.203125 C 55.320312 6.605469 54.429688 5.265625 54.355469 4.226562 C 54.355469 3.257812 55.097656 1.84375 55.917969 1.246094 C 56.734375 0.652344 58.375 0.578125 59.265625 0.800781 C 60.011719 1.023438 60.679688 1.546875 61.054688 2.214844 C 61.5 3.109375 61.648438 4.300781 61.277344 5.640625 C 60.679688 7.796875 58 10.847656 55.769531 13.527344 C 53.015625 16.878906 49.441406 21.195312 45.792969 23.949219 C 42.296875 26.480469 38.425781 28.265625 34.480469 29.753906 C 30.535156 31.242188 25.921875 32.507812 21.976562 32.808594 C 18.550781 33.105469 15.425781 32.65625 12.226562 32.0625 C 9.023438 31.394531 4.78125 29.976562 2.847656 28.863281 C 1.878906 28.265625 1.285156 27.671875 0.910156 27 C 0.539062 26.480469 0.464844 25.882812 0.464844 25.214844 C 0.539062 24.46875 1.0625 23.355469 1.507812 22.757812 C 1.953125 22.238281 2.476562 21.941406 3.070312 21.714844 C 3.816406 21.492188 5.75 21.789062 5.75 21.789062 " clip-rule="nonzero"/></clipPath><clipPath id="18b2f0183d"><rect x="0" width="62" y="0" height="33"/></clipPath><clipPath id="7479d38f63"><path d="M 2.761719 2.761719 L 34.308594 2.761719 L 34.308594 68.472656 L 2.761719 68.472656 Z M 2.761719 2.761719 " clip-rule="nonzero"/></clipPath><clipPath id="66e16c9fee"><path d="M 6.027344 66.019531 C 2.753906 56.046875 2.605469 48.457031 2.976562 43.246094 C 3.273438 38.703125 4.242188 34.535156 5.210938 30.664062 C 6.101562 27.316406 6.996094 24.191406 8.484375 21.363281 C 9.898438 18.609375 11.3125 16.449219 13.84375 13.992188 C 17.34375 10.421875 25.753906 4.242188 28.730469 3.199219 C 29.847656 2.828125 30.515625 2.753906 31.261719 3.050781 C 32.304688 3.425781 33.644531 4.6875 34.015625 5.65625 C 34.386719 6.402344 34.3125 7.441406 34.015625 8.1875 C 33.792969 8.933594 33.121094 9.75 32.527344 10.195312 C 31.855469 10.644531 30.890625 11.015625 29.996094 10.941406 C 29.027344 10.792969 27.390625 9.898438 26.796875 9.007812 C 26.273438 8.039062 26.273438 6.253906 26.570312 5.210938 C 26.871094 4.464844 27.613281 3.796875 28.359375 3.347656 C 29.101562 2.976562 30.070312 2.753906 30.890625 2.976562 C 31.855469 3.199219 33.34375 4.316406 33.867188 5.210938 C 34.3125 5.953125 34.3125 6.996094 34.164062 7.742188 C 33.941406 8.558594 33.644531 9.082031 32.824219 9.972656 C 30.742188 12.207031 22.253906 16.523438 19.128906 19.722656 C 17.042969 21.957031 15.929688 23.816406 14.738281 26.347656 C 13.398438 29.175781 12.578125 32.75 11.984375 36.175781 C 11.3125 39.597656 11.015625 43.320312 10.867188 46.890625 C 10.71875 50.316406 10.421875 53.964844 10.941406 57.015625 C 11.386719 59.546875 13.101562 62.300781 13.324219 63.863281 C 13.398438 64.605469 13.398438 65.054688 13.175781 65.648438 C 12.875 66.394531 12.132812 67.359375 11.460938 67.808594 C 10.941406 68.179688 10.347656 68.328125 9.75 68.328125 C 9.15625 68.402344 8.484375 68.253906 7.890625 67.957031 C 7.21875 67.585938 6.027344 66.019531 6.027344 66.019531 " clip-rule="nonzero"/></clipPath><clipPath id="b33df4ade9"><path d="M 0.761719 0.761719 L 32.308594 0.761719 L 32.308594 66.472656 L 0.761719 66.472656 Z M 0.761719 0.761719 " clip-rule="nonzero"/></clipPath><clipPath id="3c91a5e608"><path d="M 4.027344 64.019531 C 0.753906 54.046875 0.605469 46.457031 0.976562 41.246094 C 1.273438 36.703125 2.242188 32.535156 3.210938 28.664062 C 4.101562 25.316406 4.996094 22.191406 6.484375 19.363281 C 7.898438 16.609375 9.3125 14.449219 11.84375 11.992188 C 15.34375 8.421875 23.753906 2.242188 26.730469 1.199219 C 27.847656 0.828125 28.515625 0.753906 29.261719 1.050781 C 30.304688 1.425781 31.644531 2.6875 32.015625 3.65625 C 32.386719 4.402344 32.3125 5.441406 32.015625 6.1875 C 31.792969 6.933594 31.121094 7.75 30.527344 8.195312 C 29.855469 8.644531 28.890625 9.015625 27.996094 8.941406 C 27.027344 8.792969 25.390625 7.898438 24.796875 7.007812 C 24.273438 6.039062 24.273438 4.253906 24.570312 3.210938 C 24.871094 2.464844 25.613281 1.796875 26.359375 1.347656 C 27.101562 0.976562 28.070312 0.753906 28.890625 0.976562 C 29.855469 1.199219 31.34375 2.316406 31.867188 3.210938 C 32.3125 3.953125 32.3125 4.996094 32.164062 5.742188 C 31.941406 6.558594 31.644531 7.082031 30.824219 7.972656 C 28.742188 10.207031 20.253906 14.523438 17.128906 17.722656 C 15.042969 19.957031 13.929688 21.816406 12.738281 24.347656 C 11.398438 27.175781 10.578125 30.75 9.984375 34.175781 C 9.3125 37.597656 9.015625 41.320312 8.867188 44.890625 C 8.71875 48.316406 8.421875 51.964844 8.941406 55.015625 C 9.386719 57.546875 11.101562 60.300781 11.324219 61.863281 C 11.398438 62.605469 11.398438 63.054688 11.175781 63.648438 C 10.875 64.394531 10.132812 65.359375 9.460938 65.808594 C 8.941406 66.179688 8.347656 66.328125 7.75 66.328125 C 7.15625 66.402344 6.484375 66.253906 5.890625 65.957031 C 5.21875 65.585938 4.027344 64.019531 4.027344 64.019531 " clip-rule="nonzero"/></clipPath><clipPath id="11a275b23a"><rect x="0" width="33" y="0" height="67"/></clipPath><clipPath id="a495bdc06d"><path d="M 82.890625 78.882812 L 94.488281 78.882812 L 94.488281 94.253906 L 82.890625 94.253906 Z M 82.890625 78.882812 " clip-rule="nonzero"/></clipPath><clipPath id="ba36f0ea8d"><path d="M 92.070312 82.097656 C 86.042969 84.628906 91.699219 84.628906 93.039062 85.671875 C 93.933594 86.339844 94.601562 87.234375 94.453125 88.128906 C 94.15625 89.839844 89.167969 93.859375 87.53125 94.15625 C 86.714844 94.304688 85.820312 93.933594 85.523438 93.488281 C 85.300781 93.039062 85.597656 91.773438 85.96875 91.402344 C 86.339844 91.105469 87.308594 91.179688 87.753906 91.402344 C 88.054688 91.476562 88.277344 91.847656 88.351562 92.148438 C 88.425781 92.59375 88.203125 93.636719 87.828125 93.933594 C 87.457031 94.230469 86.789062 94.304688 86.339844 94.15625 C 85.96875 94.007812 85.449219 93.488281 85.375 93.113281 C 85.300781 92.667969 85.449219 91.996094 85.746094 91.625 C 86.042969 91.328125 86.714844 91.105469 87.085938 91.105469 C 87.53125 91.179688 88.128906 91.625 88.277344 91.996094 C 88.5 92.371094 88.5 93.113281 88.277344 93.488281 C 88.054688 93.859375 87.011719 94.230469 87.011719 94.230469 C 87.011719 94.304688 87.828125 94.007812 87.828125 93.933594 C 87.828125 93.859375 86.117188 94.15625 85.746094 93.785156 C 85.375 93.410156 85.300781 92.59375 85.523438 91.996094 C 85.746094 91.105469 86.9375 90.0625 87.902344 89.167969 C 88.945312 88.203125 91.105469 86.339844 91.773438 86.5625 C 92.222656 86.789062 92.519531 88.351562 92.148438 88.722656 C 91.550781 89.316406 86.789062 87.53125 85.148438 86.488281 C 84.035156 85.820312 83.066406 84.777344 82.917969 83.882812 C 82.769531 83.214844 83.289062 82.46875 83.734375 81.875 C 84.332031 81.128906 85.148438 80.609375 86.191406 80.164062 C 87.679688 79.492188 90.65625 78.601562 91.921875 79.046875 C 92.667969 79.269531 93.488281 80.164062 93.488281 80.683594 C 93.488281 81.128906 92.070312 82.097656 92.070312 82.097656 " clip-rule="nonzero"/></clipPath><clipPath id="4ea938e059"><path d="M 0.890625 0.882812 L 12.488281 0.882812 L 12.488281 16.253906 L 0.890625 16.253906 Z M 0.890625 0.882812 " clip-rule="nonzero"/></clipPath><clipPath id="c99519dbf3"><path d="M 10.070312 4.097656 C 4.042969 6.628906 9.699219 6.628906 11.039062 7.671875 C 11.933594 8.339844 12.601562 9.234375 12.453125 10.128906 C 12.15625 11.839844 7.167969 15.859375 5.53125 16.15625 C 4.714844 16.304688 3.820312 15.933594 3.523438 15.488281 C 3.300781 15.039062 3.597656 13.773438 3.96875 13.402344 C 4.339844 13.105469 5.308594 13.179688 5.753906 13.402344 C 6.054688 13.476562 6.277344 13.847656 6.351562 14.148438 C 6.425781 14.59375 6.203125 15.636719 5.828125 15.933594 C 5.457031 16.230469 4.789062 16.304688 4.339844 16.15625 C 3.96875 16.007812 3.449219 15.488281 3.375 15.113281 C 3.300781 14.667969 3.449219 13.996094 3.746094 13.625 C 4.042969 13.328125 4.714844 13.105469 5.085938 13.105469 C 5.53125 13.179688 6.128906 13.625 6.277344 13.996094 C 6.5 14.371094 6.5 15.113281 6.277344 15.488281 C 6.054688 15.859375 5.011719 16.230469 5.011719 16.230469 C 5.011719 16.304688 5.828125 16.007812 5.828125 15.933594 C 5.828125 15.859375 4.117188 16.15625 3.746094 15.785156 C 3.375 15.410156 3.300781 14.59375 3.523438 13.996094 C 3.746094 13.105469 4.9375 12.0625 5.902344 11.167969 C 6.945312 10.203125 9.105469 8.339844 9.773438 8.5625 C 10.222656 8.789062 10.519531 10.351562 10.148438 10.722656 C 9.550781 11.316406 4.789062 9.53125 3.148438 8.488281 C 2.035156 7.820312 1.066406 6.777344 0.917969 5.882812 C 0.769531 5.214844 1.289062 4.46875 1.734375 3.875 C 2.332031 3.128906 3.148438 2.609375 4.191406 2.164062 C 5.679688 1.492188 8.65625 0.601562 9.921875 1.046875 C 10.667969 1.269531 11.488281 2.164062 11.488281 2.683594 C 11.488281 3.128906 10.070312 4.097656 10.070312 4.097656 " clip-rule="nonzero"/></clipPath><clipPath id="b5dcb948d3"><rect x="0" width="13" y="0" height="17"/></clipPath></defs><g clip-path="url(#5fd9105e94)"><path fill="#ffffff" d="M 0 0 L 97.503906 0 L 97.503906 97.503906 L 0 97.503906 Z M 0 0 " fill-opacity="1" fill-rule="nonzero"/></g><g clip-path="url(#3bfe6af96d)"><g clip-path="url(#f9758b5ccc)"><g transform="matrix(1, 0, 0, 1, 25, 47)"><g clip-path="url(#04a0f268a5)"><g clip-path="url(#d7b3c1c8ec)"><g clip-path="url(#4c8e4c5f6f)"><rect x="-46.615" width="141.48" fill="#ededed" height="141.479994" y="-68.614999" fill-opacity="1"/></g></g></g></g></g></g><g clip-path="url(#976155ceab)"><g clip-path="url(#54290f2cfe)"><g transform="matrix(1, 0, 0, 1, 58, 32)"><g clip-path="url(#c27daa66e1)"><g clip-path="url(#f05d44b5b7)"><g clip-path="url(#758ef51d25)"><rect x="-79.615" width="141.48" fill="#ededed" height="141.479994" y="-53.614999" fill-opacity="1"/></g></g></g></g></g></g><g clip-path="url(#c3a4755f84)"><g clip-path="url(#44901b2c92)"><g transform="matrix(1, 0, 0, 1, 27, 58)"><g clip-path="url(#18b2f0183d)"><g clip-path="url(#8113a1f05f)"><g clip-path="url(#73547ae472)"><rect x="-48.615" width="141.48" fill="#ededed" height="141.479994" y="-79.614999" fill-opacity="1"/></g></g></g></g></g></g><g clip-path="url(#7479d38f63)"><g clip-path="url(#66e16c9fee)"><g transform="matrix(1, 0, 0, 1, 2, 2)"><g clip-path="url(#11a275b23a)"><g clip-path="url(#b33df4ade9)"><g clip-path="url(#3c91a5e608)"><rect x="-23.615" width="141.48" fill="#cdf24f" height="141.479994" y="-23.614999" fill-opacity="1"/></g></g></g></g></g></g><g clip-path="url(#a495bdc06d)"><g clip-path="url(#ba36f0ea8d)"><g transform="matrix(1, 0, 0, 1, 82, 78)"><g clip-path="url(#b5dcb948d3)"><g clip-path="url(#4ea938e059)"><g clip-path="url(#c99519dbf3)"><rect x="-103.615" width="141.48" fill="#f9de4d" height="141.479994" y="-99.614999" fill-opacity="1"/></g></g></g></g></g></g></svg>