<svg xmlns="http://www.w3.org/2000/svg" xmlns:xlink="http://www.w3.org/1999/xlink" width="150" zoomAndPan="magnify" viewBox="0 0 112.5 112.499997" height="150" preserveAspectRatio="xMidYMid meet" version="1.0"><defs><clipPath id="72847dae01"><path d="M 0 0 L 112.003906 0 L 112.003906 112.003906 L 0 112.003906 Z M 0 0 " clip-rule="nonzero"/></clipPath><clipPath id="e8fe1a148e"><path d="M 0 0 L 112.003906 0 L 112.003906 112.003906 L 0 112.003906 Z M 0 0 " clip-rule="nonzero"/></clipPath><clipPath id="880848e2f7"><rect x="0" width="113" y="0" height="113"/></clipPath><clipPath id="ba11deb4f8"><path d="M 32.761719 54.621094 L 40.800781 54.621094 L 40.800781 62.554688 L 32.761719 62.554688 Z M 32.761719 54.621094 " clip-rule="nonzero"/></clipPath><clipPath id="ed959b2059"><path d="M 34.199219 55.890625 C 39.125 55.140625 40.320312 56.335938 40.621094 57.308594 C 40.917969 58.351562 40.621094 59.996094 39.949219 60.816406 C 39.277344 61.5625 37.707031 62.234375 36.660156 62.160156 C 35.691406 62.085938 34.273438 61.191406 33.75 60.292969 C 33.226562 59.398438 33.152344 57.679688 33.675781 56.785156 C 34.125 55.8125 35.46875 54.84375 36.511719 54.695312 C 37.558594 54.546875 39.125 55.21875 39.796875 55.890625 C 40.394531 56.488281 40.769531 57.308594 40.769531 58.128906 C 40.769531 59.101562 40.097656 60.59375 39.351562 61.339844 C 38.601562 62.085938 37.335938 62.535156 36.363281 62.535156 C 35.46875 62.535156 34.496094 62.085938 33.898438 61.488281 C 33.300781 60.890625 32.855469 59.921875 32.78125 59.101562 C 32.78125 58.054688 34.199219 55.890625 34.199219 55.890625 " clip-rule="nonzero"/></clipPath><clipPath id="55fbddf50a"><path d="M 0.761719 0.621094 L 8.800781 0.621094 L 8.800781 8.554688 L 0.761719 8.554688 Z M 0.761719 0.621094 " clip-rule="nonzero"/></clipPath><clipPath id="fbb380fde0"><path d="M 2.199219 1.890625 C 7.125 1.140625 8.320312 2.335938 8.621094 3.308594 C 8.917969 4.351562 8.621094 5.996094 7.949219 6.816406 C 7.277344 7.5625 5.707031 8.234375 4.660156 8.160156 C 3.691406 8.085938 2.273438 7.191406 1.75 6.292969 C 1.226562 5.398438 1.152344 3.679688 1.675781 2.785156 C 2.125 1.8125 3.46875 0.84375 4.511719 0.695312 C 5.558594 0.546875 7.125 1.21875 7.796875 1.890625 C 8.394531 2.488281 8.769531 3.308594 8.769531 4.128906 C 8.769531 5.101562 8.097656 6.59375 7.351562 7.339844 C 6.601562 8.085938 5.335938 8.535156 4.363281 8.535156 C 3.46875 8.535156 2.496094 8.085938 1.898438 7.488281 C 1.300781 6.890625 0.855469 5.921875 0.78125 5.101562 C 0.78125 4.054688 2.199219 1.890625 2.199219 1.890625 " clip-rule="nonzero"/></clipPath><clipPath id="04bc8c1f9c"><rect x="0" width="9" y="0" height="9"/></clipPath><clipPath id="2743af5af8"><path d="M 65.453125 39.433594 L 73 39.433594 L 73 46.980469 L 65.453125 46.980469 Z M 65.453125 39.433594 " clip-rule="nonzero"/></clipPath><clipPath id="eabd1b0f1e"><path d="M 69.292969 39.460938 C 72.949219 41.925781 73.101562 43.570312 72.726562 44.539062 C 72.351562 45.511719 71.085938 46.628906 70.039062 46.855469 C 69.066406 47.003906 67.425781 46.554688 66.679688 45.882812 C 65.933594 45.136719 65.410156 43.570312 65.558594 42.597656 C 65.707031 41.554688 66.753906 40.207031 67.648438 39.761719 C 68.621094 39.3125 70.261719 39.460938 71.160156 39.984375 C 72.054688 40.507812 72.875 42 72.949219 42.972656 C 73.101562 43.792969 72.875 44.613281 72.351562 45.285156 C 71.757812 46.03125 70.261719 46.855469 69.292969 46.929688 C 68.394531 47.003906 67.351562 46.554688 66.753906 46.03125 C 66.15625 45.511719 65.558594 44.539062 65.484375 43.71875 C 65.410156 42.746094 65.933594 41.179688 66.605469 40.433594 C 67.203125 39.835938 69.066406 39.460938 69.066406 39.460938 " clip-rule="nonzero"/></clipPath><clipPath id="4e2024987c"><path d="M 0.453125 0.433594 L 8 0.433594 L 8 7.980469 L 0.453125 7.980469 Z M 0.453125 0.433594 " clip-rule="nonzero"/></clipPath><clipPath id="4a8593fc83"><path d="M 4.292969 0.460938 C 7.949219 2.925781 8.101562 4.570312 7.726562 5.539062 C 7.351562 6.511719 6.085938 7.628906 5.039062 7.855469 C 4.066406 8.003906 2.425781 7.554688 1.679688 6.882812 C 0.933594 6.136719 0.410156 4.570312 0.558594 3.597656 C 0.707031 2.554688 1.753906 1.207031 2.648438 0.761719 C 3.621094 0.3125 5.261719 0.460938 6.160156 0.984375 C 7.054688 1.507812 7.875 3 7.949219 3.972656 C 8.101562 4.792969 7.875 5.613281 7.351562 6.285156 C 6.757812 7.03125 5.261719 7.855469 4.292969 7.929688 C 3.394531 8.003906 2.351562 7.554688 1.753906 7.03125 C 1.15625 6.511719 0.558594 5.539062 0.484375 4.71875 C 0.410156 3.746094 0.933594 2.179688 1.605469 1.433594 C 2.203125 0.835938 4.066406 0.460938 4.066406 0.460938 " clip-rule="nonzero"/></clipPath><clipPath id="3b2ff6fcd9"><rect x="0" width="8" y="0" height="8"/></clipPath><clipPath id="1223c3227b"><path d="M 34.640625 66 L 96 66 L 96 98.53125 L 34.640625 98.53125 Z M 34.640625 66 " clip-rule="nonzero"/></clipPath><clipPath id="2bb6c41f97"><path d="M 39.949219 87.25 C 49.953125 90.386719 51.671875 90.535156 53.910156 90.460938 C 56.597656 90.386719 60.183594 89.789062 62.945312 89.042969 C 65.558594 88.371094 68.023438 87.472656 70.261719 86.355469 C 72.277344 85.382812 74.144531 84.414062 76.011719 82.992188 C 78.101562 81.425781 79.96875 79.484375 82.058594 77.167969 C 84.824219 74.183594 88.109375 67.613281 90.574219 66.417969 C 91.84375 65.820312 93.109375 65.96875 94.007812 66.34375 C 94.679688 66.640625 95.277344 67.3125 95.574219 67.984375 C 95.949219 68.65625 96.023438 69.554688 95.875 70.300781 C 95.800781 70.972656 95.277344 71.792969 94.753906 72.316406 C 94.230469 72.765625 93.335938 73.136719 92.664062 73.210938 C 91.917969 73.210938 91.019531 73.0625 90.421875 72.613281 C 89.675781 72.015625 88.78125 70.671875 88.707031 69.628906 C 88.707031 68.65625 89.453125 67.238281 90.273438 66.640625 C 91.09375 66.042969 92.738281 65.96875 93.632812 66.191406 C 94.378906 66.417969 95.050781 66.941406 95.425781 67.613281 C 95.875 68.507812 96.023438 69.703125 95.648438 71.046875 C 95.050781 73.210938 92.363281 76.273438 90.125 78.960938 C 87.363281 82.320312 83.777344 86.652344 80.117188 89.414062 C 76.609375 91.953125 72.726562 93.746094 68.769531 95.238281 C 64.8125 96.734375 60.183594 98 56.226562 98.300781 C 52.789062 98.597656 49.65625 98.152344 46.445312 97.554688 C 43.234375 96.882812 38.976562 95.464844 37.035156 94.34375 C 36.066406 93.746094 35.46875 93.148438 35.09375 92.476562 C 34.71875 91.953125 34.644531 91.355469 34.644531 90.683594 C 34.71875 89.9375 35.242188 88.816406 35.691406 88.21875 C 36.140625 87.699219 36.660156 87.398438 37.257812 87.175781 C 38.007812 86.949219 39.949219 87.25 39.949219 87.25 " clip-rule="nonzero"/></clipPath><clipPath id="82ac521875"><path d="M 0.644531 0 L 62 0 L 62 32.53125 L 0.644531 32.53125 Z M 0.644531 0 " clip-rule="nonzero"/></clipPath><clipPath id="4b6e8eac35"><path d="M 5.949219 21.25 C 15.953125 24.386719 17.671875 24.535156 19.910156 24.460938 C 22.597656 24.386719 26.183594 23.789062 28.945312 23.042969 C 31.558594 22.371094 34.023438 21.472656 36.261719 20.355469 C 38.277344 19.382812 40.144531 18.414062 42.011719 16.992188 C 44.101562 15.425781 45.96875 13.484375 48.058594 11.167969 C 50.824219 8.183594 54.109375 1.613281 56.574219 0.417969 C 57.84375 -0.179688 59.109375 -0.03125 60.007812 0.34375 C 60.679688 0.640625 61.277344 1.3125 61.574219 1.984375 C 61.949219 2.65625 62.023438 3.554688 61.875 4.300781 C 61.800781 4.972656 61.277344 5.792969 60.753906 6.316406 C 60.230469 6.765625 59.335938 7.136719 58.664062 7.210938 C 57.917969 7.210938 57.019531 7.0625 56.421875 6.613281 C 55.675781 6.015625 54.78125 4.671875 54.707031 3.628906 C 54.707031 2.65625 55.453125 1.238281 56.273438 0.640625 C 57.09375 0.0429688 58.738281 -0.03125 59.632812 0.191406 C 60.378906 0.417969 61.050781 0.941406 61.425781 1.613281 C 61.875 2.507812 62.023438 3.703125 61.648438 5.046875 C 61.050781 7.210938 58.363281 10.273438 56.125 12.960938 C 53.363281 16.320312 49.777344 20.652344 46.117188 23.414062 C 42.609375 25.953125 38.726562 27.746094 34.769531 29.238281 C 30.8125 30.734375 26.183594 32 22.226562 32.300781 C 18.789062 32.597656 15.65625 32.152344 12.445312 31.554688 C 9.234375 30.882812 4.976562 29.464844 3.035156 28.34375 C 2.066406 27.746094 1.46875 27.148438 1.09375 26.476562 C 0.71875 25.953125 0.644531 25.355469 0.644531 24.683594 C 0.71875 23.9375 1.242188 22.816406 1.691406 22.21875 C 2.140625 21.699219 2.660156 21.398438 3.257812 21.175781 C 4.007812 20.949219 5.949219 21.25 5.949219 21.25 " clip-rule="nonzero"/></clipPath><clipPath id="ce187725ad"><rect x="0" width="62" y="0" height="33"/></clipPath><clipPath id="2017ca5632"><path d="M 9.863281 10 L 41.511719 10 L 41.511719 75.894531 L 9.863281 75.894531 Z M 9.863281 10 " clip-rule="nonzero"/></clipPath><clipPath id="aeed1bf74c"><path d="M 13.140625 73.4375 C 9.855469 63.429688 9.707031 55.8125 10.082031 50.585938 C 10.378906 46.03125 11.347656 41.851562 12.320312 37.96875 C 13.214844 34.609375 14.113281 31.472656 15.605469 28.636719 C 17.023438 25.871094 18.441406 23.707031 20.980469 21.242188 C 24.492188 17.660156 32.929688 11.460938 35.914062 10.417969 C 37.035156 10.042969 37.707031 9.96875 38.453125 10.265625 C 39.5 10.640625 40.84375 11.910156 41.21875 12.878906 C 41.589844 13.625 41.515625 14.671875 41.21875 15.417969 C 40.992188 16.164062 40.320312 16.988281 39.722656 17.433594 C 39.050781 17.882812 38.082031 18.257812 37.183594 18.183594 C 36.214844 18.03125 34.570312 17.136719 33.972656 16.242188 C 33.453125 15.269531 33.453125 13.476562 33.75 12.433594 C 34.046875 11.6875 34.796875 11.011719 35.542969 10.566406 C 36.289062 10.191406 37.257812 9.96875 38.082031 10.191406 C 39.050781 10.417969 40.542969 11.535156 41.066406 12.433594 C 41.515625 13.179688 41.515625 14.222656 41.367188 14.972656 C 41.140625 15.792969 40.84375 16.316406 40.023438 17.210938 C 37.929688 19.449219 29.417969 23.78125 26.28125 26.992188 C 24.191406 29.234375 23.074219 31.097656 21.878906 33.636719 C 20.535156 36.476562 19.710938 40.058594 19.113281 43.496094 C 18.441406 46.929688 18.144531 50.664062 17.996094 54.246094 C 17.84375 57.679688 17.546875 61.339844 18.070312 64.402344 C 18.519531 66.941406 20.234375 69.703125 20.460938 71.269531 C 20.535156 72.015625 20.535156 72.464844 20.308594 73.0625 C 20.011719 73.808594 19.265625 74.78125 18.59375 75.226562 C 18.070312 75.601562 17.472656 75.75 16.875 75.75 C 16.277344 75.824219 15.605469 75.675781 15.007812 75.378906 C 14.335938 75.003906 13.140625 73.4375 13.140625 73.4375 " clip-rule="nonzero"/></clipPath><clipPath id="2dfec279f3"><path d="M 0.863281 0 L 32.511719 0 L 32.511719 65.894531 L 0.863281 65.894531 Z M 0.863281 0 " clip-rule="nonzero"/></clipPath><clipPath id="d8f7378829"><path d="M 4.140625 63.4375 C 0.855469 53.429688 0.707031 45.8125 1.082031 40.585938 C 1.378906 36.03125 2.347656 31.851562 3.320312 27.96875 C 4.214844 24.609375 5.113281 21.472656 6.605469 18.636719 C 8.023438 15.871094 9.441406 13.707031 11.980469 11.242188 C 15.492188 7.660156 23.929688 1.460938 26.914062 0.417969 C 28.035156 0.0429688 28.707031 -0.03125 29.453125 0.265625 C 30.5 0.640625 31.84375 1.910156 32.21875 2.878906 C 32.589844 3.625 32.515625 4.671875 32.21875 5.417969 C 31.992188 6.164062 31.320312 6.988281 30.722656 7.433594 C 30.050781 7.882812 29.082031 8.257812 28.183594 8.183594 C 27.214844 8.03125 25.570312 7.136719 24.972656 6.242188 C 24.453125 5.269531 24.453125 3.476562 24.75 2.433594 C 25.046875 1.6875 25.796875 1.011719 26.542969 0.566406 C 27.289062 0.191406 28.257812 -0.03125 29.082031 0.191406 C 30.050781 0.417969 31.542969 1.535156 32.066406 2.433594 C 32.515625 3.179688 32.515625 4.222656 32.367188 4.972656 C 32.140625 5.792969 31.84375 6.316406 31.023438 7.210938 C 28.929688 9.449219 20.417969 13.78125 17.28125 16.992188 C 15.191406 19.234375 14.074219 21.097656 12.878906 23.636719 C 11.535156 26.476562 10.710938 30.058594 10.113281 33.496094 C 9.441406 36.929688 9.144531 40.664062 8.996094 44.246094 C 8.84375 47.679688 8.546875 51.339844 9.070312 54.402344 C 9.519531 56.941406 11.234375 59.703125 11.460938 61.269531 C 11.535156 62.015625 11.535156 62.464844 11.308594 63.0625 C 11.011719 63.808594 10.265625 64.78125 9.59375 65.226562 C 9.070312 65.601562 8.472656 65.75 7.875 65.75 C 7.277344 65.824219 6.605469 65.675781 6.007812 65.378906 C 5.335938 65.003906 4.140625 63.4375 4.140625 63.4375 " clip-rule="nonzero"/></clipPath><clipPath id="b40e7cd27d"><rect x="0" width="33" y="0" height="66"/></clipPath><clipPath id="e835561408"><path d="M 90.246094 86.339844 L 101.878906 86.339844 L 101.878906 101.757812 L 90.246094 101.757812 Z M 90.246094 86.339844 " clip-rule="nonzero"/></clipPath><clipPath id="64392f9d91"><path d="M 99.457031 89.5625 C 93.410156 92.101562 99.085938 92.101562 100.429688 93.148438 C 101.324219 93.820312 101.996094 94.714844 101.847656 95.613281 C 101.546875 97.328125 96.546875 101.363281 94.902344 101.660156 C 94.082031 101.808594 93.1875 101.4375 92.886719 100.988281 C 92.664062 100.539062 92.960938 99.269531 93.335938 98.898438 C 93.707031 98.597656 94.679688 98.675781 95.128906 98.898438 C 95.425781 98.972656 95.648438 99.347656 95.722656 99.644531 C 95.800781 100.09375 95.574219 101.136719 95.203125 101.4375 C 94.828125 101.734375 94.15625 101.808594 93.707031 101.660156 C 93.335938 101.511719 92.8125 100.988281 92.738281 100.617188 C 92.664062 100.167969 92.8125 99.496094 93.109375 99.121094 C 93.410156 98.824219 94.082031 98.597656 94.457031 98.597656 C 94.902344 98.675781 95.5 99.121094 95.648438 99.496094 C 95.875 99.867188 95.875 100.617188 95.648438 100.988281 C 95.425781 101.363281 94.378906 101.734375 94.378906 101.734375 C 94.378906 101.808594 95.203125 101.511719 95.203125 101.4375 C 95.203125 101.363281 93.484375 101.660156 93.109375 101.289062 C 92.738281 100.914062 92.664062 100.09375 92.886719 99.496094 C 93.109375 98.597656 94.304688 97.554688 95.277344 96.65625 C 96.320312 95.6875 98.488281 93.820312 99.160156 94.042969 C 99.605469 94.269531 99.90625 95.835938 99.53125 96.210938 C 98.933594 96.808594 94.15625 95.015625 92.515625 93.96875 C 91.394531 93.296875 90.421875 92.253906 90.273438 91.355469 C 90.125 90.683594 90.648438 89.9375 91.09375 89.339844 C 91.691406 88.59375 92.515625 88.070312 93.558594 87.625 C 95.050781 86.949219 98.039062 86.054688 99.308594 86.503906 C 100.054688 86.726562 100.875 87.625 100.875 88.144531 C 100.875 88.59375 99.457031 89.5625 99.457031 89.5625 " clip-rule="nonzero"/></clipPath><clipPath id="51af442817"><path d="M 0.246094 0.339844 L 11.878906 0.339844 L 11.878906 15.757812 L 0.246094 15.757812 Z M 0.246094 0.339844 " clip-rule="nonzero"/></clipPath><clipPath id="a804884b24"><path d="M 9.457031 3.5625 C 3.410156 6.101562 9.085938 6.101562 10.429688 7.148438 C 11.324219 7.820312 11.996094 8.714844 11.847656 9.613281 C 11.546875 11.328125 6.546875 15.363281 4.902344 15.660156 C 4.082031 15.808594 3.1875 15.4375 2.886719 14.988281 C 2.664062 14.539062 2.960938 13.269531 3.335938 12.898438 C 3.707031 12.597656 4.679688 12.675781 5.128906 12.898438 C 5.425781 12.972656 5.648438 13.347656 5.722656 13.644531 C 5.800781 14.09375 5.574219 15.136719 5.203125 15.4375 C 4.828125 15.734375 4.15625 15.808594 3.707031 15.660156 C 3.335938 15.511719 2.8125 14.988281 2.738281 14.617188 C 2.664062 14.167969 2.8125 13.496094 3.109375 13.121094 C 3.410156 12.824219 4.082031 12.597656 4.457031 12.597656 C 4.902344 12.675781 5.5 13.121094 5.648438 13.496094 C 5.875 13.867188 5.875 14.617188 5.648438 14.988281 C 5.425781 15.363281 4.378906 15.734375 4.378906 15.734375 C 4.378906 15.808594 5.203125 15.511719 5.203125 15.4375 C 5.203125 15.363281 3.484375 15.660156 3.109375 15.289062 C 2.738281 14.914062 2.664062 14.09375 2.886719 13.496094 C 3.109375 12.597656 4.304688 11.554688 5.277344 10.65625 C 6.320312 9.6875 8.488281 7.820312 9.160156 8.042969 C 9.605469 8.269531 9.90625 9.835938 9.53125 10.210938 C 8.933594 10.808594 4.15625 9.015625 2.515625 7.96875 C 1.394531 7.296875 0.421875 6.253906 0.273438 5.355469 C 0.125 4.683594 0.648438 3.9375 1.09375 3.339844 C 1.691406 2.59375 2.515625 2.070312 3.558594 1.625 C 5.050781 0.949219 8.039062 0.0546875 9.308594 0.503906 C 10.054688 0.726562 10.875 1.625 10.875 2.144531 C 10.875 2.59375 9.457031 3.5625 9.457031 3.5625 " clip-rule="nonzero"/></clipPath><clipPath id="8352f93ea9"><rect x="0" width="12" y="0" height="16"/></clipPath></defs><g clip-path="url(#72847dae01)"><path fill="#ffffff" d="M 0 0 L 112.003906 0 L 112.003906 112.003906 L 0 112.003906 Z M 0 0 " fill-opacity="1" fill-rule="nonzero"/><g transform="matrix(1, 0, 0, 1, 0, -0.000000000000000624)"><g clip-path="url(#880848e2f7)"><g clip-path="url(#e8fe1a148e)"><path fill="#464a39" d="M 0 0 L 112.003906 0 L 112.003906 112.003906 L 0 112.003906 Z M 0 0 " fill-opacity="1" fill-rule="nonzero"/></g></g></g><path stroke-linecap="butt" transform="matrix(0.746681, 0, 0, 0.746681, 0.0000015, 0.000000995575)" fill="none" stroke-linejoin="miter" d="M -0.00000200889 -0.00000133333 L 150.002277 -0.00000133333 L 150.002277 150.002277 L -0.00000200889 150.002277 Z M -0.00000200889 -0.00000133333 " stroke="#000000" stroke-width="2" stroke-opacity="1" stroke-miterlimit="4"/></g><g clip-path="url(#ba11deb4f8)"><g clip-path="url(#ed959b2059)"><g transform="matrix(1, 0, 0, 1, 32, 54)"><g clip-path="url(#04bc8c1f9c)"><g clip-path="url(#55fbddf50a)"><g clip-path="url(#fbb380fde0)"><rect x="-56.75" width="162" fill="#ededed" height="161.999996" y="-78.749999" fill-opacity="1"/></g></g></g></g></g></g><g clip-path="url(#2743af5af8)"><g clip-path="url(#eabd1b0f1e)"><g transform="matrix(1, 0, 0, 1, 65, 39)"><g clip-path="url(#3b2ff6fcd9)"><g clip-path="url(#4e2024987c)"><g clip-path="url(#4a8593fc83)"><rect x="-89.75" width="162" fill="#ededed" height="161.999996" y="-63.749999" fill-opacity="1"/></g></g></g></g></g></g><g clip-path="url(#1223c3227b)"><g clip-path="url(#2bb6c41f97)"><g transform="matrix(1, 0, 0, 1, 34, 66)"><g clip-path="url(#ce187725ad)"><g clip-path="url(#82ac521875)"><g clip-path="url(#4b6e8eac35)"><rect x="-58.75" width="162" fill="#ededed" height="161.999996" y="-90.749999" fill-opacity="1"/></g></g></g></g></g></g><g clip-path="url(#2017ca5632)"><g clip-path="url(#aeed1bf74c)"><g transform="matrix(1, 0, 0, 1, 9, 10)"><g clip-path="url(#b40e7cd27d)"><g clip-path="url(#2dfec279f3)"><g clip-path="url(#d8f7378829)"><rect x="-33.75" width="162" fill="#cdf24f" height="161.999996" y="-34.749999" fill-opacity="1"/></g></g></g></g></g></g><g clip-path="url(#e835561408)"><g clip-path="url(#64392f9d91)"><g transform="matrix(1, 0, 0, 1, 90, 86)"><g clip-path="url(#8352f93ea9)"><g clip-path="url(#51af442817)"><g clip-path="url(#a804884b24)"><rect x="-114.75" width="162" fill="#f9de4d" height="161.999996" y="-110.749999" fill-opacity="1"/></g></g></g></g></g></g></svg>