<svg xmlns="http://www.w3.org/2000/svg" xmlns:xlink="http://www.w3.org/1999/xlink" width="1080" zoomAndPan="magnify" viewBox="0 0 810 1439.999935" height="1920" preserveAspectRatio="xMidYMid meet" version="1.0"><defs><g/><clipPath id="38eaaf7102"><path d="M 294.824219 1293.496094 L 301.777344 1293.496094 L 301.777344 1302.113281 L 294.824219 1302.113281 Z M 294.824219 1293.496094 " clip-rule="nonzero"/></clipPath><clipPath id="52cb275885"><path d="M 298.050781 1300.5 C 298.273438 1296.449219 297.675781 1298.476562 297.824219 1298.550781 C 297.898438 1298.625 298.351562 1297.125 298.875 1297.125 C 299.550781 1297.050781 301.648438 1299.148438 301.726562 1299.898438 C 301.800781 1300.351562 301.351562 1300.875 300.976562 1301.101562 C 300.601562 1301.25 299.699219 1301.25 299.324219 1300.949219 C 298.949219 1300.726562 298.648438 1300.125 298.726562 1299.675781 C 298.800781 1299.226562 299.476562 1298.324219 299.925781 1298.324219 C 300.449219 1298.25 301.648438 1299.074219 301.726562 1299.601562 C 301.800781 1300.050781 301.273438 1300.949219 300.824219 1301.175781 C 300.375 1301.324219 299.398438 1301.101562 299.101562 1300.726562 C 298.800781 1300.425781 298.648438 1299.75 298.800781 1299.375 C 298.949219 1298.925781 299.398438 1298.476562 299.773438 1298.324219 C 300.226562 1298.25 300.824219 1298.324219 301.199219 1298.625 C 301.5 1298.851562 301.800781 1299.523438 301.726562 1299.898438 C 301.648438 1300.351562 301.125 1301.101562 300.675781 1301.25 C 300.226562 1301.324219 299.476562 1301.101562 299.023438 1300.726562 C 298.425781 1300.199219 297.75 1298.773438 297.75 1297.875 C 297.824219 1297.125 298.425781 1295.851562 299.101562 1295.699219 C 299.699219 1295.476562 301.273438 1296.074219 301.574219 1296.675781 C 301.949219 1297.125 301.726562 1298.023438 301.5 1298.699219 C 301.199219 1299.449219 300.675781 1300.574219 299.851562 1300.949219 C 298.875 1301.476562 296.699219 1301.625 295.875 1300.949219 C 294.976562 1300.199219 294.75 1297.648438 294.898438 1296.375 C 295.050781 1295.398438 295.574219 1294.351562 296.175781 1293.898438 C 296.773438 1293.523438 297.601562 1293.449219 298.273438 1293.523438 C 298.949219 1293.601562 299.773438 1293.824219 300.300781 1294.351562 C 300.824219 1294.800781 301.199219 1295.625 301.351562 1296.523438 C 301.574219 1297.800781 301.425781 1300.726562 300.75 1301.550781 C 300.300781 1302 299.25 1302.226562 298.800781 1302 C 298.425781 1301.851562 298.050781 1300.5 298.050781 1300.5 " clip-rule="nonzero"/></clipPath><clipPath id="0426747146"><path d="M 0.824219 0.496094 L 7.777344 0.496094 L 7.777344 9.113281 L 0.824219 9.113281 Z M 0.824219 0.496094 " clip-rule="nonzero"/></clipPath><clipPath id="466c4fcaa2"><path d="M 4.050781 7.5 C 4.273438 3.449219 3.675781 5.476562 3.824219 5.550781 C 3.898438 5.625 4.351562 4.125 4.875 4.125 C 5.550781 4.050781 7.648438 6.148438 7.726562 6.898438 C 7.800781 7.351562 7.351562 7.875 6.976562 8.101562 C 6.601562 8.25 5.699219 8.25 5.324219 7.949219 C 4.949219 7.726562 4.648438 7.125 4.726562 6.675781 C 4.800781 6.226562 5.476562 5.324219 5.925781 5.324219 C 6.449219 5.25 7.648438 6.074219 7.726562 6.601562 C 7.800781 7.050781 7.273438 7.949219 6.824219 8.175781 C 6.375 8.324219 5.398438 8.101562 5.101562 7.726562 C 4.800781 7.425781 4.648438 6.75 4.800781 6.375 C 4.949219 5.925781 5.398438 5.476562 5.773438 5.324219 C 6.226562 5.25 6.824219 5.324219 7.199219 5.625 C 7.5 5.851562 7.800781 6.523438 7.726562 6.898438 C 7.648438 7.351562 7.125 8.101562 6.675781 8.25 C 6.226562 8.324219 5.476562 8.101562 5.023438 7.726562 C 4.425781 7.199219 3.75 5.773438 3.75 4.875 C 3.824219 4.125 4.425781 2.851562 5.101562 2.699219 C 5.699219 2.476562 7.273438 3.074219 7.574219 3.675781 C 7.949219 4.125 7.726562 5.023438 7.5 5.699219 C 7.199219 6.449219 6.675781 7.574219 5.851562 7.949219 C 4.875 8.476562 2.699219 8.625 1.875 7.949219 C 0.976562 7.199219 0.75 4.648438 0.898438 3.375 C 1.050781 2.398438 1.574219 1.351562 2.175781 0.898438 C 2.773438 0.523438 3.601562 0.449219 4.273438 0.523438 C 4.949219 0.601562 5.773438 0.824219 6.300781 1.351562 C 6.824219 1.800781 7.199219 2.625 7.351562 3.523438 C 7.574219 4.800781 7.425781 7.726562 6.75 8.550781 C 6.300781 9 5.25 9.226562 4.800781 9 C 4.425781 8.851562 4.050781 7.5 4.050781 7.5 " clip-rule="nonzero"/></clipPath><clipPath id="4e5559a6e5"><rect x="0" width="8" y="0" height="10"/></clipPath><clipPath id="55c6bf4d50"><path d="M 308.433594 1285.308594 L 318.238281 1285.308594 L 318.238281 1293.527344 L 308.433594 1293.527344 Z M 308.433594 1285.308594 " clip-rule="nonzero"/></clipPath><clipPath id="22cc35c5bc"><path d="M 309.976562 1290 C 311.699219 1289.773438 312.074219 1288.574219 312.601562 1288.5 C 313.351562 1288.425781 315.226562 1290.375 315.226562 1290.375 C 315.226562 1290.300781 313.648438 1289.476562 313.648438 1289.023438 C 313.726562 1288.574219 315 1287.601562 315.449219 1287.675781 C 315.976562 1287.75 316.726562 1288.800781 316.648438 1289.25 C 316.574219 1289.773438 315.148438 1290.601562 314.625 1290.523438 C 314.324219 1290.523438 314.023438 1290.226562 313.875 1289.925781 C 313.726562 1289.550781 313.800781 1288.5 314.101562 1288.125 C 314.324219 1287.824219 315 1287.601562 315.375 1287.675781 C 315.824219 1287.75 316.351562 1288.125 316.5 1288.5 C 316.726562 1288.949219 316.5 1290 316.199219 1290.300781 C 315.824219 1290.601562 314.773438 1290.675781 314.324219 1290.375 C 313.949219 1290.226562 313.648438 1289.625 313.648438 1289.175781 C 313.648438 1288.726562 314.023438 1288.199219 314.324219 1287.898438 C 314.550781 1287.75 315.226562 1287.601562 315.226562 1287.675781 C 315.300781 1287.75 313.726562 1289.101562 313.648438 1289.023438 C 313.648438 1289.023438 314.101562 1288.050781 314.398438 1287.824219 C 314.773438 1287.675781 315.375 1287.523438 315.824219 1287.824219 C 316.648438 1288.273438 318.375 1290.898438 318.226562 1291.875 C 318.074219 1292.550781 317.101562 1293.074219 316.273438 1293.375 C 315.375 1293.601562 313.949219 1293.523438 313.050781 1293.226562 C 312.375 1293 311.699219 1292.699219 311.324219 1292.023438 C 310.800781 1291.199219 310.425781 1289.398438 310.726562 1288.273438 C 311.101562 1287.148438 312.523438 1285.5 313.5 1285.351562 C 314.175781 1285.199219 315.300781 1285.726562 315.601562 1286.398438 C 316.125 1287.300781 315.601562 1289.550781 315.074219 1290.675781 C 314.773438 1291.574219 314.324219 1292.324219 313.5 1292.699219 C 312.601562 1293.226562 310.425781 1293.375 309.601562 1292.925781 C 309 1292.625 308.398438 1291.800781 308.476562 1291.351562 C 308.550781 1290.824219 309.976562 1290 309.976562 1290 " clip-rule="nonzero"/></clipPath><clipPath id="f27bd42bf5"><path d="M 0.433594 0.308594 L 10.238281 0.308594 L 10.238281 8.527344 L 0.433594 8.527344 Z M 0.433594 0.308594 " clip-rule="nonzero"/></clipPath><clipPath id="c7b64a1684"><path d="M 1.976562 5 C 3.699219 4.773438 4.074219 3.574219 4.601562 3.5 C 5.351562 3.425781 7.226562 5.375 7.226562 5.375 C 7.226562 5.300781 5.648438 4.476562 5.648438 4.023438 C 5.726562 3.574219 7 2.601562 7.449219 2.675781 C 7.976562 2.75 8.726562 3.800781 8.648438 4.25 C 8.574219 4.773438 7.148438 5.601562 6.625 5.523438 C 6.324219 5.523438 6.023438 5.226562 5.875 4.925781 C 5.726562 4.550781 5.800781 3.5 6.101562 3.125 C 6.324219 2.824219 7 2.601562 7.375 2.675781 C 7.824219 2.75 8.351562 3.125 8.5 3.5 C 8.726562 3.949219 8.5 5 8.199219 5.300781 C 7.824219 5.601562 6.773438 5.675781 6.324219 5.375 C 5.949219 5.226562 5.648438 4.625 5.648438 4.175781 C 5.648438 3.726562 6.023438 3.199219 6.324219 2.898438 C 6.550781 2.75 7.226562 2.601562 7.226562 2.675781 C 7.300781 2.75 5.726562 4.101562 5.648438 4.023438 C 5.648438 4.023438 6.101562 3.050781 6.398438 2.824219 C 6.773438 2.675781 7.375 2.523438 7.824219 2.824219 C 8.648438 3.273438 10.375 5.898438 10.226562 6.875 C 10.074219 7.550781 9.101562 8.074219 8.273438 8.375 C 7.375 8.601562 5.949219 8.523438 5.050781 8.226562 C 4.375 8 3.699219 7.699219 3.324219 7.023438 C 2.800781 6.199219 2.425781 4.398438 2.726562 3.273438 C 3.101562 2.148438 4.523438 0.5 5.5 0.351562 C 6.175781 0.199219 7.300781 0.726562 7.601562 1.398438 C 8.125 2.300781 7.601562 4.550781 7.074219 5.675781 C 6.773438 6.574219 6.324219 7.324219 5.5 7.699219 C 4.601562 8.226562 2.425781 8.375 1.601562 7.925781 C 1 7.625 0.398438 6.800781 0.476562 6.351562 C 0.550781 5.824219 1.976562 5 1.976562 5 " clip-rule="nonzero"/></clipPath><clipPath id="bede00d650"><rect x="0" width="11" y="0" height="9"/></clipPath><clipPath id="d7c67735d4"><path d="M 301.046875 1303.804688 L 344.640625 1303.804688 L 344.640625 1328.0625 L 301.046875 1328.0625 Z M 301.046875 1303.804688 " clip-rule="nonzero"/></clipPath><clipPath id="07581ea936"><path d="M 303.226562 1314.976562 C 315.449219 1321.199219 321.898438 1325.550781 325.648438 1325.023438 C 328.351562 1324.574219 330.074219 1321.726562 332.101562 1319.699219 C 334.273438 1317.601562 336.675781 1315.125 338.324219 1312.5 C 339.976562 1310.023438 340.648438 1305.523438 341.925781 1304.398438 C 342.449219 1303.949219 343.199219 1303.800781 343.648438 1303.949219 C 344.101562 1304.175781 344.625 1305.074219 344.550781 1305.523438 C 344.550781 1305.976562 344.175781 1306.574219 343.726562 1306.726562 C 343.351562 1306.875 342.300781 1306.726562 342 1306.351562 C 341.699219 1306.050781 341.476562 1305.375 341.625 1305 C 341.773438 1304.550781 342.523438 1303.875 343.050781 1303.875 C 343.574219 1303.875 344.398438 1304.625 344.550781 1305.375 C 344.925781 1306.949219 343.050781 1310.773438 341.476562 1313.398438 C 339.75 1316.324219 336.601562 1319.398438 334.199219 1321.875 C 332.023438 1324.125 329.851562 1327.125 327.675781 1327.800781 C 325.949219 1328.324219 324.675781 1327.726562 322.574219 1327.199219 C 318.898438 1326.226562 311.851562 1322.925781 307.949219 1320.976562 C 305.25 1319.699219 302.101562 1318.425781 301.351562 1317.226562 C 301.050781 1316.625 301.050781 1315.875 301.351562 1315.5 C 301.648438 1315.125 303.226562 1314.976562 303.226562 1314.976562 " clip-rule="nonzero"/></clipPath><clipPath id="f447b33680"><path d="M 0.046875 0.804688 L 43.640625 0.804688 L 43.640625 25.0625 L 0.046875 25.0625 Z M 0.046875 0.804688 " clip-rule="nonzero"/></clipPath><clipPath id="3b5b1f5f80"><path d="M 2.226562 11.976562 C 14.449219 18.199219 20.898438 22.550781 24.648438 22.023438 C 27.351562 21.574219 29.074219 18.726562 31.101562 16.699219 C 33.273438 14.601562 35.675781 12.125 37.324219 9.5 C 38.976562 7.023438 39.648438 2.523438 40.925781 1.398438 C 41.449219 0.949219 42.199219 0.800781 42.648438 0.949219 C 43.101562 1.175781 43.625 2.074219 43.550781 2.523438 C 43.550781 2.976562 43.175781 3.574219 42.726562 3.726562 C 42.351562 3.875 41.300781 3.726562 41 3.351562 C 40.699219 3.050781 40.476562 2.375 40.625 2 C 40.773438 1.550781 41.523438 0.875 42.050781 0.875 C 42.574219 0.875 43.398438 1.625 43.550781 2.375 C 43.925781 3.949219 42.050781 7.773438 40.476562 10.398438 C 38.75 13.324219 35.601562 16.398438 33.199219 18.875 C 31.023438 21.125 28.851562 24.125 26.675781 24.800781 C 24.949219 25.324219 23.675781 24.726562 21.574219 24.199219 C 17.898438 23.226562 10.851562 19.925781 6.949219 17.976562 C 4.25 16.699219 1.101562 15.425781 0.351562 14.226562 C 0.0507812 13.625 0.0507812 12.875 0.351562 12.5 C 0.648438 12.125 2.226562 11.976562 2.226562 11.976562 " clip-rule="nonzero"/></clipPath><clipPath id="b145ff72b1"><rect x="0" width="44" y="0" height="26"/></clipPath><clipPath id="f2cb841c61"><path d="M 403.039062 714.023438 L 405.910156 714.023438 L 405.910156 716.460938 L 403.039062 716.460938 Z M 403.039062 714.023438 " clip-rule="nonzero"/></clipPath><clipPath id="a2e712f102"><path d="M 405.898438 714.898438 C 404.625 716.925781 403.425781 716.550781 403.199219 716.101562 C 402.898438 715.648438 403.125 714.449219 403.5 714.148438 C 403.949219 713.851562 405.523438 714.226562 405.523438 714.226562 " clip-rule="nonzero"/></clipPath><clipPath id="97683c5b60"><path d="M 0.0390625 0.0234375 L 2.910156 0.0234375 L 2.910156 2.460938 L 0.0390625 2.460938 Z M 0.0390625 0.0234375 " clip-rule="nonzero"/></clipPath><clipPath id="1f81dfd151"><path d="M 2.898438 0.898438 C 1.625 2.925781 0.425781 2.550781 0.199219 2.101562 C -0.101562 1.648438 0.125 0.449219 0.5 0.148438 C 0.949219 -0.148438 2.523438 0.226562 2.523438 0.226562 " clip-rule="nonzero"/></clipPath><clipPath id="b90bd7eb25"><rect x="0" width="3" y="0" height="3"/></clipPath></defs><rect x="-81" width="972" fill="#ffffff" y="-143.999994" height="1727.999922" fill-opacity="1"/><rect x="-81" width="972" fill="#000000" y="-143.999994" height="1727.999922" fill-opacity="1"/><g fill="#ffffff" fill-opacity="1"><g transform="translate(392.683578, 717.37487)"><g><path d="M 2.34375 4.1875 L 4.671875 -0.90625 L 4.125 -0.90625 L 0.375 -9.421875 L 2.109375 -9.421875 L 5.21875 -2.09375 L 8.53125 -9.421875 L 10.1875 -9.421875 L 4.015625 4.1875 Z M 2.34375 4.1875 "/></g></g></g><g fill="#ffffff" fill-opacity="1"><g transform="translate(402.352541, 717.37487)"><g><path d="M 5.609375 0.234375 C 4.722656 0.234375 3.921875 0.03125 3.203125 -0.375 C 2.492188 -0.78125 1.929688 -1.351562 1.515625 -2.09375 C 1.109375 -2.84375 0.90625 -3.71875 0.90625 -4.71875 C 0.90625 -5.71875 1.113281 -6.585938 1.53125 -7.328125 C 1.957031 -8.066406 2.523438 -8.640625 3.234375 -9.046875 C 3.953125 -9.453125 4.753906 -9.65625 5.640625 -9.65625 C 6.523438 -9.65625 7.320312 -9.453125 8.03125 -9.046875 C 8.738281 -8.640625 9.300781 -8.066406 9.71875 -7.328125 C 10.132812 -6.585938 10.34375 -5.71875 10.34375 -4.71875 C 10.34375 -3.71875 10.128906 -2.84375 9.703125 -2.09375 C 9.285156 -1.351562 8.71875 -0.78125 8 -0.375 C 7.289062 0.03125 6.492188 0.234375 5.609375 0.234375 Z M 5.609375 -1.140625 C 6.148438 -1.140625 6.65625 -1.269531 7.125 -1.53125 C 7.59375 -1.800781 7.972656 -2.203125 8.265625 -2.734375 C 8.554688 -3.265625 8.703125 -3.925781 8.703125 -4.71875 C 8.703125 -5.5 8.554688 -6.15625 8.265625 -6.6875 C 7.984375 -7.21875 7.609375 -7.613281 7.140625 -7.875 C 6.671875 -8.144531 6.171875 -8.28125 5.640625 -8.28125 C 5.097656 -8.28125 4.59375 -8.144531 4.125 -7.875 C 3.65625 -7.613281 3.273438 -7.21875 2.984375 -6.6875 C 2.691406 -6.15625 2.546875 -5.5 2.546875 -4.71875 C 2.546875 -3.925781 2.691406 -3.265625 2.984375 -2.734375 C 3.273438 -2.203125 3.648438 -1.800781 4.109375 -1.53125 C 4.578125 -1.269531 5.078125 -1.140625 5.609375 -1.140625 Z M 5.609375 -1.140625 "/></g></g></g><g fill="#ffffff" fill-opacity="1"><g transform="translate(413.598249, 717.37487)"><g><path d="M 1.859375 0.09375 C 1.546875 0.09375 1.285156 -0.0078125 1.078125 -0.21875 C 0.867188 -0.425781 0.765625 -0.679688 0.765625 -0.984375 C 0.765625 -1.285156 0.867188 -1.539062 1.078125 -1.75 C 1.285156 -1.96875 1.546875 -2.078125 1.859375 -2.078125 C 2.160156 -2.078125 2.414062 -1.96875 2.625 -1.75 C 2.832031 -1.539062 2.9375 -1.285156 2.9375 -0.984375 C 2.9375 -0.679688 2.832031 -0.425781 2.625 -0.21875 C 2.414062 -0.0078125 2.160156 0.09375 1.859375 0.09375 Z M 1.859375 0.09375 "/></g></g></g><g fill="#ffffff" fill-opacity="1"><g transform="translate(365.572253, 737.599908)"><g><path d="M 2.28125 -11.515625 C 1.96875 -11.515625 1.703125 -11.617188 1.484375 -11.828125 C 1.273438 -12.035156 1.171875 -12.296875 1.171875 -12.609375 C 1.171875 -12.921875 1.273438 -13.175781 1.484375 -13.375 C 1.703125 -13.582031 1.96875 -13.6875 2.28125 -13.6875 C 2.582031 -13.6875 2.835938 -13.582031 3.046875 -13.375 C 3.265625 -13.175781 3.375 -12.921875 3.375 -12.609375 C 3.375 -12.296875 3.265625 -12.035156 3.046875 -11.828125 C 2.835938 -11.617188 2.582031 -11.515625 2.28125 -11.515625 Z M 1.484375 0 L 1.484375 -9.421875 L 3.078125 -9.421875 L 3.078125 0 Z M 1.484375 0 "/></g></g></g><g fill="#ffffff" fill-opacity="1"><g transform="translate(370.11233, 737.599908)"><g><path d="M 1.3125 0 L 1.3125 -9.421875 L 2.75 -9.421875 L 2.875 -8.0625 C 3.175781 -8.5625 3.578125 -8.953125 4.078125 -9.234375 C 4.585938 -9.515625 5.160156 -9.65625 5.796875 -9.65625 C 6.546875 -9.65625 7.1875 -9.5 7.71875 -9.1875 C 8.257812 -8.882812 8.675781 -8.425781 8.96875 -7.8125 C 9.300781 -8.375 9.753906 -8.820312 10.328125 -9.15625 C 10.898438 -9.488281 11.523438 -9.65625 12.203125 -9.65625 C 13.328125 -9.65625 14.222656 -9.316406 14.890625 -8.640625 C 15.566406 -7.960938 15.90625 -6.921875 15.90625 -5.515625 L 15.90625 0 L 14.328125 0 L 14.328125 -5.34375 C 14.328125 -6.3125 14.128906 -7.039062 13.734375 -7.53125 C 13.335938 -8.03125 12.773438 -8.28125 12.046875 -8.28125 C 11.285156 -8.28125 10.65625 -7.984375 10.15625 -7.390625 C 9.65625 -6.804688 9.40625 -5.972656 9.40625 -4.890625 L 9.40625 0 L 7.8125 0 L 7.8125 -5.34375 C 7.8125 -6.3125 7.613281 -7.039062 7.21875 -7.53125 C 6.820312 -8.03125 6.257812 -8.28125 5.53125 -8.28125 C 4.78125 -8.28125 4.15625 -7.984375 3.65625 -7.390625 C 3.15625 -6.804688 2.90625 -5.972656 2.90625 -4.890625 L 2.90625 0 Z M 1.3125 0 "/></g></g></g><g fill="#ffffff" fill-opacity="1"><g transform="translate(387.113854, 737.599908)"><g/></g></g><g fill="#ffffff" fill-opacity="1"><g transform="translate(392.147824, 737.599908)"><g><path d="M 1.3125 0 L 1.3125 -9.421875 L 2.75 -9.421875 L 2.890625 -7.625 C 3.179688 -8.238281 3.625 -8.726562 4.21875 -9.09375 C 4.8125 -9.46875 5.546875 -9.65625 6.421875 -9.65625 L 6.421875 -7.984375 L 5.984375 -7.984375 C 5.429688 -7.984375 4.921875 -7.882812 4.453125 -7.6875 C 3.984375 -7.488281 3.609375 -7.15625 3.328125 -6.6875 C 3.046875 -6.21875 2.90625 -5.570312 2.90625 -4.75 L 2.90625 0 Z M 1.3125 0 "/></g></g></g><g fill="#ffffff" fill-opacity="1"><g transform="translate(399.043415, 737.599908)"><g><path d="M 2.34375 4.1875 L 4.671875 -0.90625 L 4.125 -0.90625 L 0.375 -9.421875 L 2.109375 -9.421875 L 5.21875 -2.09375 L 8.53125 -9.421875 L 10.1875 -9.421875 L 4.015625 4.1875 Z M 2.34375 4.1875 "/></g></g></g><g fill="#ffffff" fill-opacity="1"><g transform="translate(409.605258, 737.599908)"><g><path d="M 2.34375 4.1875 L 4.671875 -0.90625 L 4.125 -0.90625 L 0.375 -9.421875 L 2.109375 -9.421875 L 5.21875 -2.09375 L 8.53125 -9.421875 L 10.1875 -9.421875 L 4.015625 4.1875 Z M 2.34375 4.1875 "/></g></g></g><g fill="#ffffff" fill-opacity="1"><g transform="translate(419.578177, 737.599908)"><g><path d="M 4.453125 0.234375 C 3.660156 0.234375 3.003906 0.101562 2.484375 -0.15625 C 1.960938 -0.425781 1.578125 -0.785156 1.328125 -1.234375 C 1.078125 -1.679688 0.953125 -2.160156 0.953125 -2.671875 C 0.953125 -3.640625 1.316406 -4.382812 2.046875 -4.90625 C 2.785156 -5.425781 3.785156 -5.6875 5.046875 -5.6875 L 7.59375 -5.6875 L 7.59375 -5.796875 C 7.59375 -6.617188 7.378906 -7.238281 6.953125 -7.65625 C 6.523438 -8.082031 5.945312 -8.296875 5.21875 -8.296875 C 4.601562 -8.296875 4.066406 -8.140625 3.609375 -7.828125 C 3.160156 -7.523438 2.882812 -7.078125 2.78125 -6.484375 L 1.140625 -6.484375 C 1.203125 -7.160156 1.429688 -7.734375 1.828125 -8.203125 C 2.234375 -8.671875 2.734375 -9.03125 3.328125 -9.28125 C 3.921875 -9.53125 4.550781 -9.65625 5.21875 -9.65625 C 6.539062 -9.65625 7.535156 -9.300781 8.203125 -8.59375 C 8.867188 -7.894531 9.203125 -6.960938 9.203125 -5.796875 L 9.203125 0 L 7.765625 0 L 7.671875 -1.6875 C 7.410156 -1.15625 7.019531 -0.703125 6.5 -0.328125 C 5.988281 0.046875 5.304688 0.234375 4.453125 0.234375 Z M 4.6875 -1.125 C 5.300781 -1.125 5.828125 -1.28125 6.265625 -1.59375 C 6.703125 -1.914062 7.03125 -2.328125 7.25 -2.828125 C 7.476562 -3.335938 7.59375 -3.867188 7.59375 -4.421875 L 7.59375 -4.453125 L 5.1875 -4.453125 C 4.25 -4.453125 3.585938 -4.289062 3.203125 -3.96875 C 2.816406 -3.644531 2.625 -3.238281 2.625 -2.75 C 2.625 -2.257812 2.800781 -1.863281 3.15625 -1.5625 C 3.519531 -1.269531 4.03125 -1.125 4.6875 -1.125 Z M 4.6875 -1.125 "/></g></g></g><g fill="#ffffff" fill-opacity="1"><g transform="translate(429.855073, 737.599908)"><g><path d="M 1.3125 0 L 1.3125 -9.421875 L 2.75 -9.421875 L 2.84375 -7.734375 C 3.15625 -8.328125 3.59375 -8.796875 4.15625 -9.140625 C 4.726562 -9.484375 5.375 -9.65625 6.09375 -9.65625 C 7.207031 -9.65625 8.097656 -9.316406 8.765625 -8.640625 C 9.429688 -7.960938 9.765625 -6.921875 9.765625 -5.515625 L 9.765625 0 L 8.171875 0 L 8.171875 -5.34375 C 8.171875 -7.300781 7.359375 -8.28125 5.734375 -8.28125 C 4.921875 -8.28125 4.242188 -7.984375 3.703125 -7.390625 C 3.171875 -6.804688 2.90625 -5.972656 2.90625 -4.890625 L 2.90625 0 Z M 1.3125 0 "/></g></g></g><g fill="#ffffff" fill-opacity="1"><g transform="translate(440.720848, 737.599908)"><g><path d="M 1.859375 0.09375 C 1.546875 0.09375 1.285156 -0.0078125 1.078125 -0.21875 C 0.867188 -0.425781 0.765625 -0.679688 0.765625 -0.984375 C 0.765625 -1.285156 0.867188 -1.539062 1.078125 -1.75 C 1.285156 -1.96875 1.546875 -2.078125 1.859375 -2.078125 C 2.160156 -2.078125 2.414062 -1.96875 2.625 -1.75 C 2.832031 -1.539062 2.9375 -1.285156 2.9375 -0.984375 C 2.9375 -0.679688 2.832031 -0.425781 2.625 -0.21875 C 2.414062 -0.0078125 2.160156 0.09375 1.859375 0.09375 Z M 1.859375 0.09375 "/></g></g></g><g clip-path="url(#38eaaf7102)"><g clip-path="url(#52cb275885)"><g transform="matrix(1, 0, 0, 1, 294, 1293)"><g clip-path="url(#4e5559a6e5)"><g clip-path="url(#0426747146)"><g clip-path="url(#466c4fcaa2)"><rect x="-472.2" width="1166.4" fill="#817a7a" height="2073.599906" y="-1609.799986" fill-opacity="1"/></g></g></g></g></g></g><g clip-path="url(#55c6bf4d50)"><g clip-path="url(#22cc35c5bc)"><g transform="matrix(1, 0, 0, 1, 308, 1285)"><g clip-path="url(#bede00d650)"><g clip-path="url(#f27bd42bf5)"><g clip-path="url(#c7b64a1684)"><rect x="-486.2" width="1166.4" fill="#817a7a" height="2073.599906" y="-1601.799986" fill-opacity="1"/></g></g></g></g></g></g><g clip-path="url(#d7c67735d4)"><g clip-path="url(#07581ea936)"><g transform="matrix(1, 0, 0, 1, 301, 1303)"><g clip-path="url(#b145ff72b1)"><g clip-path="url(#f447b33680)"><g clip-path="url(#3b5b1f5f80)"><rect x="-479.2" width="1166.4" fill="#817a7a" height="2073.599906" y="-1619.799986" fill-opacity="1"/></g></g></g></g></g></g><g clip-path="url(#f2cb841c61)"><g clip-path="url(#a2e712f102)"><g transform="matrix(1, 0, 0, 1, 403, 714)"><g clip-path="url(#b90bd7eb25)"><g clip-path="url(#97683c5b60)"><g clip-path="url(#1f81dfd151)"><rect x="-581.2" width="1166.4" fill="#817a7a" height="2073.599906" y="-1030.799986" fill-opacity="1"/></g></g></g></g></g></g></svg>