<svg xmlns="http://www.w3.org/2000/svg" xmlns:xlink="http://www.w3.org/1999/xlink" width="437" zoomAndPan="magnify" viewBox="0 0 327.75 326.999992" height="436" preserveAspectRatio="xMidYMid meet" version="1.0"><defs><clipPath id="6cab7c075b"><path d="M 0 0.125 L 327.5 0.125 L 327.5 326.875 L 0 326.875 Z M 0 0.125 " clip-rule="nonzero"/></clipPath><clipPath id="ed0abc6523"><path d="M 85.871094 158.757812 L 112.769531 158.757812 L 112.769531 185.296875 L 85.871094 185.296875 Z M 85.871094 158.757812 " clip-rule="nonzero"/></clipPath><clipPath id="a91c184060"><path d="M 90.679688 163 C 107.167969 160.503906 111.164062 164.5 112.164062 167.746094 C 113.164062 171.242188 112.164062 176.738281 109.917969 179.488281 C 107.667969 181.984375 102.421875 184.234375 98.925781 183.984375 C 95.675781 183.734375 90.929688 180.738281 89.183594 177.738281 C 87.433594 174.742188 87.183594 168.996094 88.933594 166 C 90.429688 162.75 94.925781 159.503906 98.425781 159.003906 C 101.921875 158.503906 107.167969 160.753906 109.417969 163 C 111.414062 165 112.664062 167.746094 112.664062 170.496094 C 112.664062 173.742188 110.414062 178.738281 107.917969 181.238281 C 105.417969 183.734375 101.171875 185.234375 97.925781 185.234375 C 94.925781 185.234375 91.679688 183.734375 89.679688 181.734375 C 87.683594 179.738281 86.183594 176.488281 85.933594 173.742188 C 85.933594 170.246094 90.679688 163 90.679688 163 " clip-rule="nonzero"/></clipPath><clipPath id="5bab6bdb4f"><path d="M 0.871094 0.757812 L 27.769531 0.757812 L 27.769531 27.261719 L 0.871094 27.261719 Z M 0.871094 0.757812 " clip-rule="nonzero"/></clipPath><clipPath id="55e3d230a1"><path d="M 5.679688 5 C 22.167969 2.503906 26.164062 6.5 27.164062 9.746094 C 28.164062 13.242188 27.164062 18.738281 24.917969 21.488281 C 22.667969 23.984375 17.421875 26.234375 13.925781 25.984375 C 10.675781 25.734375 5.929688 22.738281 4.183594 19.738281 C 2.433594 16.742188 2.183594 10.996094 3.933594 8 C 5.429688 4.75 9.925781 1.503906 13.425781 1.003906 C 16.921875 0.503906 22.167969 2.753906 24.417969 5 C 26.414062 7 27.664062 9.746094 27.664062 12.496094 C 27.664062 15.742188 25.414062 20.738281 22.917969 23.238281 C 20.417969 25.734375 16.171875 27.234375 12.925781 27.234375 C 9.925781 27.234375 6.679688 25.734375 4.679688 23.734375 C 2.683594 21.738281 1.183594 18.488281 0.933594 15.742188 C 0.933594 12.246094 5.679688 5 5.679688 5 " clip-rule="nonzero"/></clipPath><clipPath id="b3e6aca26b"><rect x="0" width="28" y="0" height="28"/></clipPath><clipPath id="6a902a704c"><path d="M 195.25 108 L 220.507812 108 L 220.507812 133.199219 L 195.25 133.199219 Z M 195.25 108 " clip-rule="nonzero"/></clipPath><clipPath id="e1bc3736d0"><path d="M 208.089844 108.042969 C 220.332031 116.285156 220.832031 121.78125 219.582031 125.03125 C 218.332031 128.277344 214.085938 132.023438 210.589844 132.773438 C 207.34375 133.273438 201.847656 131.773438 199.347656 129.527344 C 196.851562 127.027344 195.101562 121.78125 195.601562 118.535156 C 196.101562 115.035156 199.597656 110.539062 202.59375 109.042969 C 205.84375 107.542969 211.339844 108.042969 214.335938 109.789062 C 217.335938 111.539062 220.082031 116.535156 220.332031 119.785156 C 220.832031 122.53125 220.082031 125.277344 218.332031 127.527344 C 216.335938 130.027344 211.339844 132.773438 208.089844 133.023438 C 205.09375 133.273438 201.597656 131.773438 199.597656 130.027344 C 197.597656 128.277344 195.601562 125.03125 195.351562 122.28125 C 195.101562 119.035156 196.851562 113.789062 199.097656 111.289062 C 201.097656 109.292969 207.34375 108.042969 207.34375 108.042969 " clip-rule="nonzero"/></clipPath><clipPath id="7d92a600eb"><path d="M 0.25 0 L 25.507812 0 L 25.507812 25.199219 L 0.25 25.199219 Z M 0.25 0 " clip-rule="nonzero"/></clipPath><clipPath id="e6406c5ce6"><path d="M 13.089844 0.0429688 C 25.332031 8.285156 25.832031 13.78125 24.582031 17.03125 C 23.332031 20.277344 19.085938 24.023438 15.589844 24.773438 C 12.34375 25.273438 6.847656 23.773438 4.347656 21.527344 C 1.851562 19.027344 0.101562 13.78125 0.601562 10.535156 C 1.101562 7.035156 4.597656 2.539062 7.59375 1.042969 C 10.84375 -0.457031 16.339844 0.0429688 19.335938 1.789062 C 22.335938 3.539062 25.082031 8.535156 25.332031 11.785156 C 25.832031 14.53125 25.082031 17.277344 23.332031 19.527344 C 21.335938 22.027344 16.339844 24.773438 13.089844 25.023438 C 10.09375 25.273438 6.597656 23.773438 4.597656 22.027344 C 2.597656 20.277344 0.601562 17.03125 0.351562 14.28125 C 0.101562 11.035156 1.851562 5.789062 4.097656 3.289062 C 6.097656 1.292969 12.34375 0.0429688 12.34375 0.0429688 " clip-rule="nonzero"/></clipPath><clipPath id="eb7d1c67f4"><rect x="0" width="26" y="0" height="26"/></clipPath><clipPath id="72ff898574"><path d="M 92.160156 196.457031 L 297.601562 196.457031 L 297.601562 305.660156 L 92.160156 305.660156 Z M 92.160156 196.457031 " clip-rule="nonzero"/></clipPath><clipPath id="4660e4e330"><path d="M 109.917969 267.921875 C 143.390625 278.414062 149.136719 278.910156 156.628906 278.664062 C 165.625 278.414062 177.613281 276.414062 186.859375 273.914062 C 195.601562 271.667969 203.84375 268.667969 211.339844 264.921875 C 218.082031 261.675781 224.328125 258.425781 230.574219 253.679688 C 237.570312 248.433594 243.8125 241.941406 250.808594 234.195312 C 260.050781 224.203125 271.042969 202.21875 279.285156 198.222656 C 283.535156 196.226562 287.78125 196.726562 290.777344 197.972656 C 293.027344 198.972656 295.023438 201.222656 296.023438 203.46875 C 297.273438 205.71875 297.523438 208.714844 297.023438 211.214844 C 296.773438 213.460938 295.023438 216.210938 293.277344 217.957031 C 291.527344 219.457031 288.53125 220.707031 286.28125 220.957031 C 283.785156 220.957031 280.785156 220.457031 278.789062 218.957031 C 276.289062 216.960938 273.292969 212.460938 273.042969 208.964844 C 273.042969 205.71875 275.539062 200.972656 278.289062 198.972656 C 281.035156 196.972656 286.53125 196.726562 289.527344 197.472656 C 292.027344 198.222656 294.277344 199.972656 295.523438 202.21875 C 297.023438 205.21875 297.523438 209.214844 296.273438 213.710938 C 294.277344 220.957031 285.28125 231.199219 277.789062 240.191406 C 268.546875 251.433594 256.554688 265.921875 244.3125 275.164062 C 232.574219 283.660156 219.582031 289.652344 206.34375 294.648438 C 193.101562 299.644531 177.613281 303.894531 164.375 304.890625 C 152.882812 305.890625 142.390625 304.390625 131.648438 302.394531 C 120.90625 300.144531 106.667969 295.398438 100.171875 291.652344 C 96.925781 289.652344 94.925781 287.65625 93.679688 285.40625 C 92.429688 283.660156 92.179688 281.660156 92.179688 279.410156 C 92.429688 276.914062 94.179688 273.167969 95.675781 271.167969 C 97.175781 269.417969 98.925781 268.421875 100.921875 267.671875 C 103.421875 266.921875 109.917969 267.921875 109.917969 267.921875 " clip-rule="nonzero"/></clipPath><clipPath id="0beae4dda0"><path d="M 0.160156 0.457031 L 205.601562 0.457031 L 205.601562 109.660156 L 0.160156 109.660156 Z M 0.160156 0.457031 " clip-rule="nonzero"/></clipPath><clipPath id="7040a987a8"><path d="M 17.917969 71.921875 C 51.390625 82.414062 57.136719 82.910156 64.628906 82.664062 C 73.625 82.414062 85.613281 80.414062 94.859375 77.914062 C 103.601562 75.667969 111.84375 72.667969 119.339844 68.921875 C 126.082031 65.675781 132.328125 62.425781 138.574219 57.679688 C 145.570312 52.433594 151.8125 45.941406 158.808594 38.195312 C 168.050781 28.203125 179.042969 6.21875 187.285156 2.222656 C 191.535156 0.226562 195.78125 0.726562 198.777344 1.972656 C 201.027344 2.972656 203.023438 5.222656 204.023438 7.46875 C 205.273438 9.71875 205.523438 12.714844 205.023438 15.214844 C 204.773438 17.460938 203.023438 20.210938 201.277344 21.957031 C 199.527344 23.457031 196.53125 24.707031 194.28125 24.957031 C 191.785156 24.957031 188.785156 24.457031 186.789062 22.957031 C 184.289062 20.960938 181.292969 16.460938 181.042969 12.964844 C 181.042969 9.71875 183.539062 4.972656 186.289062 2.972656 C 189.035156 0.972656 194.53125 0.726562 197.527344 1.472656 C 200.027344 2.222656 202.277344 3.972656 203.523438 6.21875 C 205.023438 9.21875 205.523438 13.214844 204.273438 17.710938 C 202.277344 24.957031 193.28125 35.199219 185.789062 44.191406 C 176.546875 55.433594 164.554688 69.921875 152.3125 79.164062 C 140.574219 87.660156 127.582031 93.652344 114.34375 98.648438 C 101.101562 103.644531 85.613281 107.894531 72.375 108.890625 C 60.882812 109.890625 50.390625 108.390625 39.648438 106.394531 C 28.90625 104.144531 14.667969 99.398438 8.171875 95.652344 C 4.925781 93.652344 2.925781 91.65625 1.679688 89.40625 C 0.429688 87.660156 0.179688 85.660156 0.179688 83.410156 C 0.429688 80.914062 2.179688 77.167969 3.675781 75.167969 C 5.175781 73.417969 6.925781 72.421875 8.921875 71.671875 C 11.421875 70.921875 17.917969 71.921875 17.917969 71.921875 " clip-rule="nonzero"/></clipPath><clipPath id="8aebd8b572"><rect x="0" width="206" y="0" height="110"/></clipPath><clipPath id="2ed8853f80"><path d="M 9.269531 9.394531 L 115.148438 9.394531 L 115.148438 229.929688 L 9.269531 229.929688 Z M 9.269531 9.394531 " clip-rule="nonzero"/></clipPath><clipPath id="a4f8519a21"><path d="M 20.234375 221.707031 C 9.242188 188.230469 8.742188 162.75 9.992188 145.265625 C 10.992188 130.027344 14.238281 116.035156 17.488281 103.046875 C 20.484375 91.804688 23.480469 81.3125 28.476562 71.820312 C 33.226562 62.578125 37.972656 55.332031 46.464844 47.089844 C 58.207031 35.097656 86.433594 14.363281 96.425781 10.867188 C 100.171875 9.617188 102.421875 9.367188 104.921875 10.367188 C 108.417969 11.617188 112.914062 15.863281 114.164062 19.109375 C 115.410156 21.609375 115.164062 25.105469 114.164062 27.605469 C 113.414062 30.101562 111.164062 32.851562 109.167969 34.347656 C 106.917969 35.847656 103.671875 37.097656 100.671875 36.847656 C 97.425781 36.347656 91.929688 33.347656 89.929688 30.351562 C 88.183594 27.105469 88.183594 21.109375 89.183594 17.609375 C 90.179688 15.113281 92.679688 12.863281 95.175781 11.367188 C 97.675781 10.117188 100.921875 9.367188 103.671875 10.117188 C 106.917969 10.867188 111.914062 14.613281 113.664062 17.609375 C 115.164062 20.109375 115.164062 23.605469 114.664062 26.105469 C 113.914062 28.851562 112.914062 30.601562 110.164062 33.597656 C 103.171875 41.09375 74.691406 55.582031 64.199219 66.324219 C 57.207031 73.820312 53.460938 80.0625 49.460938 88.558594 C 44.964844 98.050781 42.21875 110.039062 40.21875 121.53125 C 37.972656 133.023438 36.972656 145.515625 36.472656 157.503906 C 35.972656 168.996094 34.972656 181.238281 36.722656 191.480469 C 38.222656 199.972656 43.964844 209.214844 44.714844 214.460938 C 44.964844 216.960938 44.964844 218.457031 44.214844 220.457031 C 43.21875 222.953125 40.71875 226.203125 38.46875 227.699219 C 36.722656 228.949219 34.722656 229.449219 32.726562 229.449219 C 30.726562 229.699219 28.476562 229.199219 26.480469 228.199219 C 24.230469 226.953125 20.234375 221.707031 20.234375 221.707031 " clip-rule="nonzero"/></clipPath><clipPath id="b09a3752d9"><path d="M 0.269531 0.394531 L 106.148438 0.394531 L 106.148438 220.871094 L 0.269531 220.871094 Z M 0.269531 0.394531 " clip-rule="nonzero"/></clipPath><clipPath id="dfe59ddffb"><path d="M 11.234375 212.707031 C 0.242188 179.230469 -0.257812 153.75 0.992188 136.265625 C 1.992188 121.027344 5.238281 107.035156 8.488281 94.046875 C 11.484375 82.804688 14.480469 72.3125 19.476562 62.820312 C 24.226562 53.578125 28.972656 46.332031 37.464844 38.089844 C 49.207031 26.097656 77.433594 5.363281 87.425781 1.867188 C 91.171875 0.617188 93.421875 0.367188 95.921875 1.367188 C 99.417969 2.617188 103.914062 6.863281 105.164062 10.109375 C 106.410156 12.609375 106.164062 16.105469 105.164062 18.605469 C 104.414062 21.101562 102.164062 23.851562 100.167969 25.347656 C 97.917969 26.847656 94.671875 28.097656 91.671875 27.847656 C 88.425781 27.347656 82.929688 24.347656 80.929688 21.351562 C 79.183594 18.105469 79.183594 12.109375 80.183594 8.609375 C 81.179688 6.113281 83.679688 3.863281 86.175781 2.367188 C 88.675781 1.117188 91.921875 0.367188 94.671875 1.117188 C 97.917969 1.867188 102.914062 5.613281 104.664062 8.609375 C 106.164062 11.109375 106.164062 14.605469 105.664062 17.105469 C 104.914062 19.851562 103.914062 21.601562 101.164062 24.597656 C 94.171875 32.09375 65.691406 46.582031 55.199219 57.324219 C 48.207031 64.820312 44.460938 71.0625 40.460938 79.558594 C 35.964844 89.050781 33.21875 101.039062 31.21875 112.53125 C 28.972656 124.023438 27.972656 136.515625 27.472656 148.503906 C 26.972656 159.996094 25.972656 172.238281 27.722656 182.480469 C 29.222656 190.972656 34.964844 200.214844 35.714844 205.460938 C 35.964844 207.960938 35.964844 209.457031 35.214844 211.457031 C 34.21875 213.953125 31.71875 217.203125 29.46875 218.699219 C 27.722656 219.949219 25.722656 220.449219 23.726562 220.449219 C 21.726562 220.699219 19.476562 220.199219 17.480469 219.199219 C 15.230469 217.953125 11.234375 212.707031 11.234375 212.707031 " clip-rule="nonzero"/></clipPath><clipPath id="78c369d4b4"><rect x="0" width="107" y="0" height="221"/></clipPath><clipPath id="f4129ff12d"><path d="M 278.199219 265 L 317.117188 265 L 317.117188 316.457031 L 278.199219 316.457031 Z M 278.199219 265 " clip-rule="nonzero"/></clipPath><clipPath id="cf50d6ba20"><path d="M 309.015625 275.664062 C 288.78125 284.15625 307.765625 284.15625 312.261719 287.65625 C 315.257812 289.902344 317.507812 292.902344 317.007812 295.898438 C 316.007812 301.644531 299.273438 315.132812 293.777344 316.132812 C 291.027344 316.632812 288.03125 315.382812 287.03125 313.886719 C 286.28125 312.386719 287.28125 308.140625 288.53125 306.890625 C 289.777344 305.890625 293.027344 306.140625 294.523438 306.890625 C 295.523438 307.140625 296.273438 308.390625 296.523438 309.390625 C 296.773438 310.886719 296.023438 314.386719 294.773438 315.382812 C 293.527344 316.382812 291.277344 316.632812 289.777344 316.132812 C 288.53125 315.632812 286.78125 313.886719 286.53125 312.636719 C 286.28125 311.136719 286.78125 308.890625 287.78125 307.640625 C 288.78125 306.640625 291.027344 305.890625 292.277344 305.890625 C 293.777344 306.140625 295.773438 307.640625 296.273438 308.890625 C 297.023438 310.136719 297.023438 312.636719 296.273438 313.886719 C 295.523438 315.132812 292.027344 316.382812 292.027344 316.382812 C 292.027344 316.632812 294.773438 315.632812 294.773438 315.382812 C 294.773438 315.132812 289.03125 316.132812 287.78125 314.882812 C 286.53125 313.636719 286.28125 310.886719 287.03125 308.890625 C 287.78125 305.890625 291.777344 302.394531 295.023438 299.394531 C 298.523438 296.148438 305.765625 289.902344 308.015625 290.652344 C 309.515625 291.402344 310.511719 296.648438 309.265625 297.898438 C 307.265625 299.894531 291.277344 293.902344 285.78125 290.402344 C 282.035156 288.15625 278.789062 284.65625 278.289062 281.660156 C 277.789062 279.410156 279.535156 276.914062 281.035156 274.914062 C 283.035156 272.417969 285.78125 270.667969 289.28125 269.167969 C 294.277344 266.921875 304.269531 263.921875 308.515625 265.421875 C 311.011719 266.171875 313.761719 269.167969 313.761719 270.917969 C 313.761719 272.417969 309.015625 275.664062 309.015625 275.664062 " clip-rule="nonzero"/></clipPath><clipPath id="1b04c36f42"><path d="M 0.199219 0 L 39.117188 0 L 39.117188 51.457031 L 0.199219 51.457031 Z M 0.199219 0 " clip-rule="nonzero"/></clipPath><clipPath id="95c00f7822"><path d="M 31.015625 10.664062 C 10.78125 19.15625 29.765625 19.15625 34.261719 22.65625 C 37.257812 24.902344 39.507812 27.902344 39.007812 30.898438 C 38.007812 36.644531 21.273438 50.132812 15.777344 51.132812 C 13.027344 51.632812 10.03125 50.382812 9.03125 48.886719 C 8.28125 47.386719 9.28125 43.140625 10.53125 41.890625 C 11.777344 40.890625 15.027344 41.140625 16.523438 41.890625 C 17.523438 42.140625 18.273438 43.390625 18.523438 44.390625 C 18.773438 45.886719 18.023438 49.386719 16.773438 50.382812 C 15.527344 51.382812 13.277344 51.632812 11.777344 51.132812 C 10.53125 50.632812 8.78125 48.886719 8.53125 47.636719 C 8.28125 46.136719 8.78125 43.890625 9.78125 42.640625 C 10.78125 41.640625 13.027344 40.890625 14.277344 40.890625 C 15.777344 41.140625 17.773438 42.640625 18.273438 43.890625 C 19.023438 45.136719 19.023438 47.636719 18.273438 48.886719 C 17.523438 50.132812 14.027344 51.382812 14.027344 51.382812 C 14.027344 51.632812 16.773438 50.632812 16.773438 50.382812 C 16.773438 50.132812 11.03125 51.132812 9.78125 49.882812 C 8.53125 48.636719 8.28125 45.886719 9.03125 43.890625 C 9.78125 40.890625 13.777344 37.394531 17.023438 34.394531 C 20.523438 31.148438 27.765625 24.902344 30.015625 25.652344 C 31.515625 26.402344 32.511719 31.648438 31.265625 32.898438 C 29.265625 34.894531 13.277344 28.902344 7.78125 25.402344 C 4.035156 23.15625 0.789062 19.65625 0.289062 16.660156 C -0.210938 14.410156 1.535156 11.914062 3.035156 9.914062 C 5.035156 7.417969 7.78125 5.667969 11.28125 4.167969 C 16.277344 1.921875 26.269531 -1.078125 30.515625 0.421875 C 33.011719 1.171875 35.761719 4.167969 35.761719 5.917969 C 35.761719 7.417969 31.015625 10.664062 31.015625 10.664062 " clip-rule="nonzero"/></clipPath><clipPath id="093c62ab34"><rect x="0" width="40" y="0" height="52"/></clipPath><clipPath id="01cc0012b8"><rect x="0" width="328" y="0" height="327"/></clipPath></defs><g clip-path="url(#6cab7c075b)"><g transform="matrix(1, 0, 0, 1, 0, -0.000000000000001152)"><g clip-path="url(#01cc0012b8)"><g clip-path="url(#ed0abc6523)"><g clip-path="url(#a91c184060)"><g transform="matrix(1, 0, 0, 1, 85, 158)"><g clip-path="url(#b3e6aca26b)"><g clip-path="url(#5bab6bdb4f)"><g clip-path="url(#55e3d230a1)"><rect x="-204.301" width="566.352" fill="#f9de4d" y="-277.027997" height="565.055986" fill-opacity="1"/></g></g></g></g></g></g><g clip-path="url(#6a902a704c)"><g clip-path="url(#e1bc3736d0)"><g transform="matrix(1, 0, 0, 1, 195, 108)"><g clip-path="url(#eb7d1c67f4)"><g clip-path="url(#7d92a600eb)"><g clip-path="url(#e6406c5ce6)"><rect x="-314.301" width="566.352" fill="#f9de4d" y="-227.027997" height="565.055986" fill-opacity="1"/></g></g></g></g></g></g><g clip-path="url(#72ff898574)"><g clip-path="url(#4660e4e330)"><g transform="matrix(1, 0, 0, 1, 92, 196)"><g clip-path="url(#8aebd8b572)"><g clip-path="url(#0beae4dda0)"><g clip-path="url(#7040a987a8)"><rect x="-211.301" width="566.352" fill="#f9de4d" y="-315.027997" height="565.055986" fill-opacity="1"/></g></g></g></g></g></g><g clip-path="url(#2ed8853f80)"><g clip-path="url(#a4f8519a21)"><g transform="matrix(1, 0, 0, 1, 9, 9)"><g clip-path="url(#78c369d4b4)"><g clip-path="url(#b09a3752d9)"><g clip-path="url(#dfe59ddffb)"><rect x="-128.301" width="566.352" fill="#ffffff" y="-128.027997" height="565.055986" fill-opacity="1"/></g></g></g></g></g></g><g clip-path="url(#f4129ff12d)"><g clip-path="url(#cf50d6ba20)"><g transform="matrix(1, 0, 0, 1, 278, 265)"><g clip-path="url(#093c62ab34)"><g clip-path="url(#1b04c36f42)"><g clip-path="url(#95c00f7822)"><rect x="-397.301" width="566.352" fill="#ffffff" y="-384.027997" height="565.055986" fill-opacity="1"/></g></g></g></g></g></g></g></g></g></svg>