<svg xmlns="http://www.w3.org/2000/svg" xmlns:xlink="http://www.w3.org/1999/xlink" width="500" zoomAndPan="magnify" viewBox="0 0 375 374.250002" height="499" preserveAspectRatio="xMidYMid meet" version="1.0"><defs><clipPath id="9e3f980564"><path d="M 98.578125 181.417969 L 129.339844 181.417969 L 129.339844 211.765625 L 98.578125 211.765625 Z M 98.578125 181.417969 " clip-rule="nonzero"/></clipPath><clipPath id="37ea6310d2"><path d="M 104.078125 186.269531 C 122.933594 183.410156 127.503906 187.980469 128.648438 191.695312 C 129.792969 195.695312 128.648438 201.980469 126.078125 205.125 C 123.507812 207.980469 117.507812 210.550781 113.507812 210.265625 C 109.792969 209.980469 104.363281 206.550781 102.367188 203.125 C 100.367188 199.695312 100.078125 193.125 102.078125 189.695312 C 103.792969 185.980469 108.9375 182.269531 112.9375 181.695312 C 116.933594 181.125 122.933594 183.695312 125.507812 186.269531 C 127.792969 188.554688 129.21875 191.695312 129.21875 194.839844 C 129.21875 198.550781 126.648438 204.265625 123.792969 207.125 C 120.933594 209.980469 116.078125 211.695312 112.363281 211.695312 C 108.9375 211.695312 105.222656 209.980469 102.9375 207.695312 C 100.652344 205.410156 98.9375 201.695312 98.652344 198.550781 C 98.652344 194.554688 104.078125 186.269531 104.078125 186.269531 " clip-rule="nonzero"/></clipPath><clipPath id="d15a9644b4"><path d="M 0.578125 0.417969 L 31.339844 0.417969 L 31.339844 30.734375 L 0.578125 30.734375 Z M 0.578125 0.417969 " clip-rule="nonzero"/></clipPath><clipPath id="a035d1c6cd"><path d="M 6.078125 5.269531 C 24.933594 2.410156 29.503906 6.980469 30.648438 10.695312 C 31.792969 14.695312 30.648438 20.980469 28.078125 24.125 C 25.507812 26.980469 19.507812 29.550781 15.507812 29.265625 C 11.792969 28.980469 6.363281 25.550781 4.367188 22.125 C 2.367188 18.695312 2.078125 12.125 4.078125 8.695312 C 5.792969 4.980469 10.9375 1.269531 14.9375 0.695312 C 18.933594 0.125 24.933594 2.695312 27.507812 5.269531 C 29.792969 7.554688 31.21875 10.695312 31.21875 13.839844 C 31.21875 17.550781 28.648438 23.265625 25.792969 26.125 C 22.933594 28.980469 18.078125 30.695312 14.363281 30.695312 C 10.9375 30.695312 7.222656 28.980469 4.9375 26.695312 C 2.652344 24.410156 0.9375 20.695312 0.652344 17.550781 C 0.652344 13.554688 6.078125 5.269531 6.078125 5.269531 " clip-rule="nonzero"/></clipPath><clipPath id="f2c42a265c"><rect x="0" width="32" y="0" height="31"/></clipPath><clipPath id="b1daa3457f"><path d="M 223.667969 123.300781 L 252.550781 123.300781 L 252.550781 152.183594 L 223.667969 152.183594 Z M 223.667969 123.300781 " clip-rule="nonzero"/></clipPath><clipPath id="247191f87e"><path d="M 238.351562 123.417969 C 252.351562 132.84375 252.921875 139.128906 251.492188 142.84375 C 250.066406 146.558594 245.207031 150.84375 241.210938 151.699219 C 237.496094 152.269531 231.210938 150.558594 228.351562 147.984375 C 225.496094 145.128906 223.496094 139.128906 224.066406 135.414062 C 224.640625 131.417969 228.640625 126.273438 232.066406 124.558594 C 235.78125 122.84375 242.066406 123.417969 245.496094 125.417969 C 248.921875 127.417969 252.066406 133.128906 252.351562 136.84375 C 252.921875 139.988281 252.066406 143.128906 250.066406 145.699219 C 247.78125 148.558594 242.066406 151.699219 238.351562 151.984375 C 234.925781 152.269531 230.925781 150.558594 228.640625 148.558594 C 226.351562 146.558594 224.066406 142.84375 223.78125 139.699219 C 223.496094 135.988281 225.496094 129.988281 228.066406 127.128906 C 230.351562 124.84375 237.496094 123.417969 237.496094 123.417969 " clip-rule="nonzero"/></clipPath><clipPath id="93df7cbcd7"><path d="M 0.667969 0.300781 L 29.550781 0.300781 L 29.550781 29.183594 L 0.667969 29.183594 Z M 0.667969 0.300781 " clip-rule="nonzero"/></clipPath><clipPath id="88efb9f663"><path d="M 15.351562 0.417969 C 29.351562 9.84375 29.921875 16.128906 28.492188 19.84375 C 27.066406 23.558594 22.207031 27.84375 18.210938 28.699219 C 14.496094 29.269531 8.210938 27.558594 5.351562 24.984375 C 2.496094 22.128906 0.496094 16.128906 1.066406 12.414062 C 1.640625 8.417969 5.640625 3.273438 9.066406 1.558594 C 12.78125 -0.15625 19.066406 0.417969 22.496094 2.417969 C 25.921875 4.417969 29.066406 10.128906 29.351562 13.84375 C 29.921875 16.988281 29.066406 20.128906 27.066406 22.699219 C 24.78125 25.558594 19.066406 28.699219 15.351562 28.984375 C 11.925781 29.269531 7.925781 27.558594 5.640625 25.558594 C 3.351562 23.558594 1.066406 19.84375 0.78125 16.699219 C 0.496094 12.988281 2.496094 6.988281 5.066406 4.128906 C 7.351562 1.84375 14.496094 0.417969 14.496094 0.417969 " clip-rule="nonzero"/></clipPath><clipPath id="c8ab09ec5b"><rect x="0" width="30" y="0" height="30"/></clipPath><clipPath id="a2f6054053"><path d="M 105.769531 225 L 340.71875 225 L 340.71875 349 L 105.769531 349 Z M 105.769531 225 " clip-rule="nonzero"/></clipPath><clipPath id="52df8ce287"><path d="M 126.078125 306.257812 C 164.359375 318.253906 170.929688 318.828125 179.5 318.542969 C 189.785156 318.253906 203.5 315.96875 214.070312 313.113281 C 224.066406 310.542969 233.496094 307.113281 242.066406 302.828125 C 249.78125 299.113281 256.921875 295.398438 264.0625 289.972656 C 272.0625 283.972656 279.207031 276.546875 287.203125 267.6875 C 297.773438 256.261719 310.34375 231.121094 319.773438 226.550781 C 324.628906 224.265625 329.488281 224.835938 332.914062 226.265625 C 335.484375 227.40625 337.769531 229.976562 338.914062 232.550781 C 340.34375 235.121094 340.628906 238.546875 340.058594 241.40625 C 339.769531 243.976562 337.769531 247.121094 335.773438 249.117188 C 333.773438 250.832031 330.34375 252.261719 327.773438 252.546875 C 324.914062 252.546875 321.488281 251.976562 319.203125 250.261719 C 316.34375 247.976562 312.917969 242.832031 312.632812 238.835938 C 312.632812 235.121094 315.488281 229.691406 318.628906 227.40625 C 321.773438 225.121094 328.058594 224.835938 331.484375 225.691406 C 334.34375 226.550781 336.914062 228.550781 338.34375 231.121094 C 340.058594 234.550781 340.628906 239.121094 339.199219 244.261719 C 336.914062 252.546875 326.628906 264.261719 318.058594 274.546875 C 307.488281 287.402344 293.777344 303.972656 279.777344 314.542969 C 266.351562 324.253906 251.492188 331.109375 236.351562 336.824219 C 221.210938 342.539062 203.5 347.394531 188.355469 348.539062 C 175.214844 349.679688 163.214844 347.96875 150.933594 345.679688 C 138.648438 343.109375 122.363281 337.683594 114.933594 333.398438 C 111.222656 331.109375 108.9375 328.824219 107.507812 326.253906 C 106.078125 324.253906 105.792969 321.96875 105.792969 319.398438 C 106.078125 316.542969 108.078125 312.257812 109.792969 309.96875 C 111.507812 307.96875 113.507812 306.828125 115.792969 305.972656 C 118.648438 305.113281 126.078125 306.257812 126.078125 306.257812 " clip-rule="nonzero"/></clipPath><clipPath id="bed46121f3"><path d="M 0.769531 0 L 235.71875 0 L 235.71875 124 L 0.769531 124 Z M 0.769531 0 " clip-rule="nonzero"/></clipPath><clipPath id="89c21b5f72"><path d="M 21.078125 81.257812 C 59.359375 93.253906 65.929688 93.828125 74.5 93.542969 C 84.785156 93.253906 98.5 90.96875 109.070312 88.113281 C 119.066406 85.542969 128.496094 82.113281 137.066406 77.828125 C 144.78125 74.113281 151.921875 70.398438 159.0625 64.972656 C 167.0625 58.972656 174.207031 51.546875 182.203125 42.6875 C 192.773438 31.261719 205.34375 6.121094 214.773438 1.550781 C 219.628906 -0.734375 224.488281 -0.164062 227.914062 1.265625 C 230.484375 2.40625 232.769531 4.976562 233.914062 7.550781 C 235.34375 10.121094 235.628906 13.546875 235.058594 16.40625 C 234.769531 18.976562 232.769531 22.121094 230.773438 24.117188 C 228.773438 25.832031 225.34375 27.261719 222.773438 27.546875 C 219.914062 27.546875 216.488281 26.976562 214.203125 25.261719 C 211.34375 22.976562 207.917969 17.832031 207.632812 13.835938 C 207.632812 10.121094 210.488281 4.691406 213.628906 2.40625 C 216.773438 0.121094 223.058594 -0.164062 226.484375 0.691406 C 229.34375 1.550781 231.914062 3.550781 233.34375 6.121094 C 235.058594 9.550781 235.628906 14.121094 234.199219 19.261719 C 231.914062 27.546875 221.628906 39.261719 213.058594 49.546875 C 202.488281 62.402344 188.777344 78.972656 174.777344 89.542969 C 161.351562 99.253906 146.492188 106.109375 131.351562 111.824219 C 116.210938 117.539062 98.5 122.394531 83.355469 123.539062 C 70.214844 124.679688 58.214844 122.96875 45.933594 120.679688 C 33.648438 118.109375 17.363281 112.683594 9.933594 108.398438 C 6.222656 106.109375 3.9375 103.824219 2.507812 101.253906 C 1.078125 99.253906 0.792969 96.96875 0.792969 94.398438 C 1.078125 91.542969 3.078125 87.257812 4.792969 84.96875 C 6.507812 82.96875 8.507812 81.828125 10.792969 80.972656 C 13.648438 80.113281 21.078125 81.257812 21.078125 81.257812 " clip-rule="nonzero"/></clipPath><clipPath id="9c88d3baae"><rect x="0" width="236" y="0" height="124"/></clipPath><clipPath id="947b12ec90"><path d="M 11 11 L 132 11 L 132 262.808594 L 11 262.808594 Z M 11 11 " clip-rule="nonzero"/></clipPath><clipPath id="3dc29ac759"><path d="M 23.515625 253.40625 C 10.945312 215.121094 10.375 185.980469 11.800781 165.984375 C 12.945312 148.558594 16.660156 132.558594 20.375 117.703125 C 23.800781 104.847656 27.230469 92.847656 32.941406 81.992188 C 38.371094 71.421875 43.800781 63.136719 53.511719 53.710938 C 66.941406 39.996094 99.222656 16.285156 110.648438 12.285156 C 114.933594 10.855469 117.507812 10.570312 120.363281 11.714844 C 124.363281 13.140625 129.503906 18 130.933594 21.710938 C 132.363281 24.570312 132.078125 28.570312 130.933594 31.425781 C 130.078125 34.28125 127.503906 37.425781 125.21875 39.140625 C 122.648438 40.851562 118.933594 42.28125 115.507812 41.996094 C 111.792969 41.425781 105.507812 37.996094 103.222656 34.566406 C 101.222656 30.855469 101.222656 23.996094 102.367188 20 C 103.507812 17.140625 106.363281 14.570312 109.222656 12.855469 C 112.078125 11.425781 115.792969 10.570312 118.933594 11.425781 C 122.648438 12.285156 128.363281 16.570312 130.363281 20 C 132.078125 22.855469 132.078125 26.855469 131.503906 29.710938 C 130.648438 32.855469 129.503906 34.855469 126.363281 38.28125 C 118.363281 46.851562 85.796875 63.421875 73.796875 75.707031 C 65.796875 84.277344 61.511719 91.417969 56.941406 101.132812 C 51.796875 111.988281 48.65625 125.703125 46.371094 138.84375 C 43.800781 151.984375 42.65625 166.269531 42.085938 179.984375 C 41.515625 193.125 40.371094 207.125 42.371094 218.835938 C 44.085938 228.550781 50.65625 239.121094 51.511719 245.121094 C 51.796875 247.976562 51.796875 249.691406 50.941406 251.976562 C 49.800781 254.832031 46.941406 258.546875 44.371094 260.261719 C 42.371094 261.6875 40.085938 262.261719 37.800781 262.261719 C 35.515625 262.546875 32.941406 261.976562 30.65625 260.832031 C 28.085938 259.402344 23.515625 253.40625 23.515625 253.40625 " clip-rule="nonzero"/></clipPath><clipPath id="34a6f8fd4e"><path d="M 0 0 L 121 0 L 121 251.753906 L 0 251.753906 Z M 0 0 " clip-rule="nonzero"/></clipPath><clipPath id="1b8ee12a9d"><path d="M 12.515625 242.40625 C -0.0546875 204.121094 -0.625 174.980469 0.800781 154.984375 C 1.945312 137.558594 5.660156 121.558594 9.375 106.703125 C 12.800781 93.847656 16.230469 81.847656 21.941406 70.992188 C 27.371094 60.421875 32.800781 52.136719 42.511719 42.710938 C 55.941406 28.996094 88.222656 5.285156 99.648438 1.285156 C 103.933594 -0.144531 106.507812 -0.429688 109.363281 0.714844 C 113.363281 2.140625 118.503906 7 119.933594 10.710938 C 121.363281 13.570312 121.078125 17.570312 119.933594 20.425781 C 119.078125 23.28125 116.503906 26.425781 114.21875 28.140625 C 111.648438 29.851562 107.933594 31.28125 104.507812 30.996094 C 100.792969 30.425781 94.507812 26.996094 92.222656 23.566406 C 90.222656 19.855469 90.222656 12.996094 91.367188 9 C 92.507812 6.140625 95.363281 3.570312 98.222656 1.855469 C 101.078125 0.425781 104.792969 -0.429688 107.933594 0.425781 C 111.648438 1.285156 117.363281 5.570312 119.363281 9 C 121.078125 11.855469 121.078125 15.855469 120.503906 18.710938 C 119.648438 21.855469 118.503906 23.855469 115.363281 27.28125 C 107.363281 35.851562 74.796875 52.421875 62.796875 64.707031 C 54.796875 73.277344 50.511719 80.417969 45.941406 90.132812 C 40.796875 100.988281 37.65625 114.703125 35.371094 127.84375 C 32.800781 140.984375 31.65625 155.269531 31.085938 168.984375 C 30.515625 182.125 29.371094 196.125 31.371094 207.835938 C 33.085938 217.550781 39.65625 228.121094 40.511719 234.121094 C 40.796875 236.976562 40.796875 238.691406 39.941406 240.976562 C 38.800781 243.832031 35.941406 247.546875 33.371094 249.261719 C 31.371094 250.6875 29.085938 251.261719 26.800781 251.261719 C 24.515625 251.546875 21.941406 250.976562 19.65625 249.832031 C 17.085938 248.402344 12.515625 242.40625 12.515625 242.40625 " clip-rule="nonzero"/></clipPath><clipPath id="0806d00adf"><rect x="0" width="121" y="0" height="252"/></clipPath><clipPath id="5cf011779f"><path d="M 318.527344 302.769531 L 363 302.769531 L 363 361.765625 L 318.527344 361.765625 Z M 318.527344 302.769531 " clip-rule="nonzero"/></clipPath><clipPath id="3fac8eddd8"><path d="M 353.769531 315.113281 C 330.628906 324.824219 352.339844 324.824219 357.484375 328.824219 C 360.910156 331.398438 363.484375 334.824219 362.910156 338.253906 C 361.769531 344.824219 342.628906 360.25 336.34375 361.394531 C 333.199219 361.964844 329.773438 360.535156 328.628906 358.824219 C 327.773438 357.109375 328.914062 352.253906 330.34375 350.824219 C 331.773438 349.679688 335.484375 349.964844 337.199219 350.824219 C 338.34375 351.109375 339.199219 352.539062 339.484375 353.679688 C 339.769531 355.394531 338.914062 359.394531 337.484375 360.535156 C 336.058594 361.679688 333.484375 361.964844 331.773438 361.394531 C 330.34375 360.824219 328.34375 358.824219 328.058594 357.394531 C 327.773438 355.679688 328.34375 353.109375 329.488281 351.679688 C 330.628906 350.539062 333.199219 349.679688 334.628906 349.679688 C 336.34375 349.964844 338.628906 351.679688 339.199219 353.109375 C 340.058594 354.539062 340.058594 357.394531 339.199219 358.824219 C 338.34375 360.25 334.34375 361.679688 334.34375 361.679688 C 334.34375 361.964844 337.484375 360.824219 337.484375 360.535156 C 337.484375 360.25 330.914062 361.394531 329.488281 359.964844 C 328.058594 358.539062 327.773438 355.394531 328.628906 353.109375 C 329.488281 349.679688 334.058594 345.679688 337.769531 342.253906 C 341.769531 338.539062 350.054688 331.398438 352.628906 332.253906 C 354.339844 333.109375 355.484375 339.109375 354.054688 340.539062 C 351.769531 342.824219 333.484375 335.96875 327.199219 331.96875 C 322.914062 329.398438 319.203125 325.398438 318.628906 321.96875 C 318.058594 319.398438 320.058594 316.542969 321.773438 314.253906 C 324.058594 311.398438 327.199219 309.398438 331.199219 307.683594 C 336.914062 305.113281 348.339844 301.683594 353.199219 303.398438 C 356.054688 304.257812 359.199219 307.683594 359.199219 309.683594 C 359.199219 311.398438 353.769531 315.113281 353.769531 315.113281 " clip-rule="nonzero"/></clipPath><clipPath id="4e487246b6"><path d="M 0.527344 0.769531 L 45 0.769531 L 45 59.765625 L 0.527344 59.765625 Z M 0.527344 0.769531 " clip-rule="nonzero"/></clipPath><clipPath id="54f360abff"><path d="M 35.769531 13.113281 C 12.628906 22.824219 34.339844 22.824219 39.484375 26.824219 C 42.910156 29.398438 45.484375 32.824219 44.910156 36.253906 C 43.769531 42.824219 24.628906 58.25 18.34375 59.394531 C 15.199219 59.964844 11.773438 58.535156 10.628906 56.824219 C 9.773438 55.109375 10.914062 50.253906 12.34375 48.824219 C 13.773438 47.679688 17.484375 47.964844 19.199219 48.824219 C 20.34375 49.109375 21.199219 50.539062 21.484375 51.679688 C 21.769531 53.394531 20.914062 57.394531 19.484375 58.535156 C 18.058594 59.679688 15.484375 59.964844 13.773438 59.394531 C 12.34375 58.824219 10.34375 56.824219 10.058594 55.394531 C 9.773438 53.679688 10.34375 51.109375 11.488281 49.679688 C 12.628906 48.539062 15.199219 47.679688 16.628906 47.679688 C 18.34375 47.964844 20.628906 49.679688 21.199219 51.109375 C 22.058594 52.539062 22.058594 55.394531 21.199219 56.824219 C 20.34375 58.25 16.34375 59.679688 16.34375 59.679688 C 16.34375 59.964844 19.484375 58.824219 19.484375 58.535156 C 19.484375 58.25 12.914062 59.394531 11.488281 57.964844 C 10.058594 56.539062 9.773438 53.394531 10.628906 51.109375 C 11.488281 47.679688 16.058594 43.679688 19.769531 40.253906 C 23.769531 36.539062 32.054688 29.398438 34.628906 30.253906 C 36.339844 31.109375 37.484375 37.109375 36.054688 38.539062 C 33.769531 40.824219 15.484375 33.96875 9.199219 29.96875 C 4.914062 27.398438 1.203125 23.398438 0.628906 19.96875 C 0.0585938 17.398438 2.058594 14.542969 3.773438 12.253906 C 6.058594 9.398438 9.199219 7.398438 13.199219 5.683594 C 18.914062 3.113281 30.339844 -0.316406 35.199219 1.398438 C 38.054688 2.257812 41.199219 5.683594 41.199219 7.683594 C 41.199219 9.398438 35.769531 13.113281 35.769531 13.113281 " clip-rule="nonzero"/></clipPath><clipPath id="8fae836971"><rect x="0" width="45" y="0" height="60"/></clipPath></defs><g clip-path="url(#9e3f980564)"><g clip-path="url(#37ea6310d2)"><g transform="matrix(1, 0, 0, 1, 98, 181)"><g clip-path="url(#f2c42a265c)"><g clip-path="url(#d15a9644b4)"><g clip-path="url(#a035d1c6cd)"><rect x="-180.5" width="540" fill="#151515" height="538.920004" y="-263.335001" fill-opacity="1"/></g></g></g></g></g></g><g clip-path="url(#b1daa3457f)"><g clip-path="url(#247191f87e)"><g transform="matrix(1, 0, 0, 1, 223, 123)"><g clip-path="url(#c8ab09ec5b)"><g clip-path="url(#93df7cbcd7)"><g clip-path="url(#88efb9f663)"><rect x="-305.5" width="540" fill="#151515" height="538.920004" y="-205.335001" fill-opacity="1"/></g></g></g></g></g></g><g clip-path="url(#a2f6054053)"><g clip-path="url(#52df8ce287)"><g transform="matrix(1, 0, 0, 1, 105, 225)"><g clip-path="url(#9c88d3baae)"><g clip-path="url(#bed46121f3)"><g clip-path="url(#89c21b5f72)"><rect x="-187.5" width="540" fill="#151515" height="538.920004" y="-307.335001" fill-opacity="1"/></g></g></g></g></g></g><g clip-path="url(#947b12ec90)"><g clip-path="url(#3dc29ac759)"><g transform="matrix(1, 0, 0, 1, 11, 11)"><g clip-path="url(#0806d00adf)"><g clip-path="url(#34a6f8fd4e)"><g clip-path="url(#1b8ee12a9d)"><rect x="-93.5" width="540" fill="#464a39" height="538.920004" y="-93.335001" fill-opacity="1"/></g></g></g></g></g></g><g clip-path="url(#5cf011779f)"><g clip-path="url(#3fac8eddd8)"><g transform="matrix(1, 0, 0, 1, 318, 302)"><g clip-path="url(#8fae836971)"><g clip-path="url(#4e487246b6)"><g clip-path="url(#54f360abff)"><rect x="-400.5" width="540" fill="#383736" height="538.920004" y="-384.335001" fill-opacity="1"/></g></g></g></g></g></g></svg>