<svg xmlns="http://www.w3.org/2000/svg" xmlns:xlink="http://www.w3.org/1999/xlink" width="500" zoomAndPan="magnify" viewBox="0 0 375 374.999991" height="500" preserveAspectRatio="xMidYMid meet" version="1.0"><defs><clipPath id="422f379904"><path d="M 98.402344 182.210938 L 129.222656 182.210938 L 129.222656 212.621094 L 98.402344 212.621094 Z M 98.402344 182.210938 " clip-rule="nonzero"/></clipPath><clipPath id="62ccaecbc7"><path d="M 103.914062 187.070312 C 122.804688 184.207031 127.386719 188.789062 128.53125 192.507812 C 129.675781 196.515625 128.53125 202.816406 125.953125 205.964844 C 123.378906 208.828125 117.367188 211.402344 113.359375 211.117188 C 109.636719 210.832031 104.199219 207.394531 102.195312 203.960938 C 100.191406 200.523438 99.90625 193.941406 101.910156 190.503906 C 103.625 186.785156 108.777344 183.0625 112.785156 182.492188 C 116.792969 181.917969 122.804688 184.496094 125.382812 187.070312 C 127.671875 189.359375 129.101562 192.507812 129.101562 195.660156 C 129.101562 199.378906 126.527344 205.105469 123.664062 207.96875 C 120.800781 210.832031 115.933594 212.546875 112.214844 212.546875 C 108.777344 212.546875 105.058594 210.832031 102.765625 208.539062 C 100.476562 206.25 98.757812 202.527344 98.472656 199.378906 C 98.472656 195.371094 103.914062 187.070312 103.914062 187.070312 " clip-rule="nonzero"/></clipPath><clipPath id="cc6defb631"><path d="M 0.402344 0.210938 L 31.222656 0.210938 L 31.222656 30.621094 L 0.402344 30.621094 Z M 0.402344 0.210938 " clip-rule="nonzero"/></clipPath><clipPath id="74952a39d9"><path d="M 5.914062 5.070312 C 24.804688 2.207031 29.386719 6.789062 30.53125 10.507812 C 31.675781 14.515625 30.53125 20.816406 27.953125 23.964844 C 25.378906 26.828125 19.367188 29.402344 15.359375 29.117188 C 11.636719 28.832031 6.199219 25.394531 4.195312 21.960938 C 2.191406 18.523438 1.90625 11.941406 3.910156 8.503906 C 5.625 4.785156 10.777344 1.0625 14.785156 0.492188 C 18.792969 -0.0820312 24.804688 2.496094 27.382812 5.070312 C 29.671875 7.359375 31.101562 10.507812 31.101562 13.660156 C 31.101562 17.378906 28.527344 23.105469 25.664062 25.96875 C 22.800781 28.832031 17.933594 30.546875 14.214844 30.546875 C 10.777344 30.546875 7.058594 28.832031 4.765625 26.539062 C 2.476562 24.25 0.757812 20.527344 0.472656 17.378906 C 0.472656 13.371094 5.914062 5.070312 5.914062 5.070312 " clip-rule="nonzero"/></clipPath><clipPath id="7bc0f45a78"><rect x="0" width="32" y="0" height="31"/></clipPath><clipPath id="c20857a06a"><path d="M 223.738281 124 L 252.679688 124 L 252.679688 152.917969 L 223.738281 152.917969 Z M 223.738281 124 " clip-rule="nonzero"/></clipPath><clipPath id="534b29dcec"><path d="M 238.453125 124.09375 C 252.480469 133.539062 253.054688 139.835938 251.621094 143.558594 C 250.191406 147.28125 245.324219 151.574219 241.316406 152.433594 C 237.59375 153.003906 231.296875 151.289062 228.433594 148.710938 C 225.574219 145.847656 223.570312 139.835938 224.140625 136.117188 C 224.714844 132.109375 228.722656 126.957031 232.15625 125.238281 C 235.878906 123.519531 242.175781 124.09375 245.609375 126.097656 C 249.046875 128.101562 252.195312 133.828125 252.480469 137.546875 C 253.054688 140.695312 252.195312 143.84375 250.191406 146.421875 C 247.902344 149.285156 242.175781 152.433594 238.453125 152.71875 C 235.019531 153.003906 231.011719 151.289062 228.722656 149.285156 C 226.429688 147.28125 224.140625 143.558594 223.855469 140.410156 C 223.570312 136.6875 225.574219 130.675781 228.148438 127.816406 C 230.4375 125.523438 237.59375 124.09375 237.59375 124.09375 " clip-rule="nonzero"/></clipPath><clipPath id="5f8669dc5b"><path d="M 0.738281 0 L 29.679688 0 L 29.679688 28.917969 L 0.738281 28.917969 Z M 0.738281 0 " clip-rule="nonzero"/></clipPath><clipPath id="43cc8aae87"><path d="M 15.453125 0.09375 C 29.480469 9.539062 30.054688 15.835938 28.621094 19.558594 C 27.191406 23.28125 22.324219 27.574219 18.316406 28.433594 C 14.59375 29.003906 8.296875 27.289062 5.433594 24.710938 C 2.574219 21.847656 0.570312 15.835938 1.140625 12.117188 C 1.714844 8.109375 5.722656 2.957031 9.15625 1.238281 C 12.878906 -0.480469 19.175781 0.09375 22.609375 2.097656 C 26.046875 4.101562 29.195312 9.828125 29.480469 13.546875 C 30.054688 16.695312 29.195312 19.84375 27.191406 22.421875 C 24.902344 25.285156 19.175781 28.433594 15.453125 28.71875 C 12.019531 29.003906 8.011719 27.289062 5.722656 25.285156 C 3.429688 23.28125 1.140625 19.558594 0.855469 16.410156 C 0.570312 12.6875 2.574219 6.675781 5.148438 3.816406 C 7.4375 1.523438 14.59375 0.09375 14.59375 0.09375 " clip-rule="nonzero"/></clipPath><clipPath id="16a86a1b2e"><rect x="0" width="30" y="0" height="29"/></clipPath><clipPath id="9be037dd86"><path d="M 105.605469 225.410156 L 341 225.410156 L 341 350.546875 L 105.605469 350.546875 Z M 105.605469 225.410156 " clip-rule="nonzero"/></clipPath><clipPath id="6579bda176"><path d="M 125.953125 307.300781 C 164.3125 319.324219 170.898438 319.894531 179.484375 319.609375 C 189.789062 319.324219 203.53125 317.03125 214.121094 314.167969 C 224.140625 311.59375 233.585938 308.160156 242.175781 303.863281 C 249.90625 300.144531 257.0625 296.421875 264.21875 290.984375 C 272.234375 284.972656 279.390625 277.527344 287.40625 268.65625 C 297.996094 257.203125 310.589844 232.011719 320.039062 227.433594 C 324.90625 225.144531 329.769531 225.714844 333.207031 227.148438 C 335.78125 228.292969 338.074219 230.867188 339.21875 233.445312 C 340.648438 236.019531 340.933594 239.457031 340.363281 242.320312 C 340.078125 244.894531 338.074219 248.042969 336.070312 250.046875 C 334.066406 251.765625 330.628906 253.195312 328.054688 253.484375 C 325.191406 253.484375 321.753906 252.910156 319.464844 251.191406 C 316.601562 248.902344 313.167969 243.75 312.882812 239.742188 C 312.882812 236.019531 315.746094 230.582031 318.894531 228.292969 C 322.042969 226 328.339844 225.714844 331.773438 226.574219 C 334.636719 227.433594 337.214844 229.4375 338.644531 232.011719 C 340.363281 235.449219 340.933594 240.027344 339.503906 245.179688 C 337.214844 253.484375 326.910156 265.21875 318.320312 275.523438 C 307.730469 288.40625 293.988281 305.007812 279.960938 315.601562 C 266.507812 325.332031 251.621094 332.203125 236.449219 337.929688 C 221.277344 343.65625 203.53125 348.519531 188.359375 349.667969 C 175.191406 350.8125 163.167969 349.09375 150.859375 346.804688 C 138.550781 344.226562 122.234375 338.789062 114.789062 334.496094 C 111.070312 332.203125 108.777344 329.914062 107.347656 327.335938 C 105.917969 325.332031 105.628906 323.042969 105.628906 320.46875 C 105.917969 317.605469 107.917969 313.3125 109.636719 311.019531 C 111.355469 309.015625 113.359375 307.871094 115.648438 307.011719 C 118.511719 306.15625 125.953125 307.300781 125.953125 307.300781 " clip-rule="nonzero"/></clipPath><clipPath id="e03dbc38a7"><path d="M 0.605469 0.410156 L 236 0.410156 L 236 125.546875 L 0.605469 125.546875 Z M 0.605469 0.410156 " clip-rule="nonzero"/></clipPath><clipPath id="4af73b8b1c"><path d="M 20.953125 82.300781 C 59.3125 94.324219 65.898438 94.894531 74.484375 94.609375 C 84.789062 94.324219 98.53125 92.03125 109.121094 89.167969 C 119.140625 86.59375 128.585938 83.160156 137.175781 78.863281 C 144.90625 75.144531 152.0625 71.421875 159.21875 65.984375 C 167.234375 59.972656 174.390625 52.527344 182.40625 43.65625 C 192.996094 32.203125 205.589844 7.011719 215.039062 2.433594 C 219.90625 0.144531 224.769531 0.714844 228.207031 2.148438 C 230.78125 3.292969 233.074219 5.867188 234.21875 8.445312 C 235.648438 11.019531 235.933594 14.457031 235.363281 17.320312 C 235.078125 19.894531 233.074219 23.042969 231.070312 25.046875 C 229.066406 26.765625 225.628906 28.195312 223.054688 28.484375 C 220.191406 28.484375 216.753906 27.910156 214.464844 26.191406 C 211.601562 23.902344 208.167969 18.75 207.882812 14.742188 C 207.882812 11.019531 210.746094 5.582031 213.894531 3.292969 C 217.042969 1 223.339844 0.714844 226.773438 1.574219 C 229.636719 2.433594 232.214844 4.4375 233.644531 7.011719 C 235.363281 10.449219 235.933594 15.027344 234.503906 20.179688 C 232.214844 28.484375 221.910156 40.21875 213.320312 50.523438 C 202.730469 63.40625 188.988281 80.007812 174.960938 90.601562 C 161.507812 100.332031 146.621094 107.203125 131.449219 112.929688 C 116.277344 118.65625 98.53125 123.519531 83.359375 124.667969 C 70.191406 125.8125 58.167969 124.09375 45.859375 121.804688 C 33.550781 119.226562 17.234375 113.789062 9.789062 109.496094 C 6.070312 107.203125 3.777344 104.914062 2.347656 102.335938 C 0.917969 100.332031 0.628906 98.042969 0.628906 95.46875 C 0.917969 92.605469 2.917969 88.3125 4.636719 86.019531 C 6.355469 84.015625 8.359375 82.871094 10.648438 82.011719 C 13.511719 81.15625 20.953125 82.300781 20.953125 82.300781 " clip-rule="nonzero"/></clipPath><clipPath id="e2dd158f8f"><rect x="0" width="236" y="0" height="126"/></clipPath><clipPath id="5381e90697"><path d="M 10.621094 11.050781 L 131.949219 11.050781 L 131.949219 263.765625 L 10.621094 263.765625 Z M 10.621094 11.050781 " clip-rule="nonzero"/></clipPath><clipPath id="7c9be14f76"><path d="M 23.1875 254.339844 C 10.589844 215.984375 10.019531 186.785156 11.449219 166.746094 C 12.59375 149.285156 16.316406 133.253906 20.039062 118.367188 C 23.472656 105.488281 26.910156 93.464844 32.632812 82.585938 C 38.074219 71.996094 43.511719 63.691406 53.246094 54.246094 C 66.699219 40.503906 99.046875 16.746094 110.496094 12.738281 C 114.789062 11.308594 117.367188 11.019531 120.230469 12.167969 C 124.238281 13.597656 129.390625 18.464844 130.820312 22.183594 C 132.25 25.046875 131.964844 29.054688 130.820312 31.917969 C 129.960938 34.78125 127.386719 37.929688 125.09375 39.648438 C 122.519531 41.363281 118.796875 42.796875 115.363281 42.507812 C 111.640625 41.9375 105.34375 38.5 103.054688 35.066406 C 101.050781 31.34375 101.050781 24.476562 102.195312 20.46875 C 103.339844 17.605469 106.203125 15.027344 109.066406 13.3125 C 111.925781 11.878906 115.648438 11.019531 118.796875 11.878906 C 122.519531 12.738281 128.246094 17.03125 130.25 20.46875 C 131.964844 23.332031 131.964844 27.335938 131.394531 30.199219 C 130.535156 33.347656 129.390625 35.351562 126.242188 38.789062 C 118.226562 47.375 85.589844 63.980469 73.570312 76.289062 C 65.554688 84.875 61.257812 92.03125 56.679688 101.765625 C 51.527344 112.644531 48.378906 126.382812 46.085938 139.550781 C 43.511719 152.71875 42.367188 167.03125 41.792969 180.773438 C 41.222656 193.941406 40.078125 207.96875 42.082031 219.703125 C 43.796875 229.4375 50.382812 240.027344 51.242188 246.039062 C 51.527344 248.902344 51.527344 250.621094 50.667969 252.910156 C 49.523438 255.773438 46.660156 259.496094 44.082031 261.210938 C 42.082031 262.644531 39.789062 263.214844 37.5 263.214844 C 35.210938 263.5 32.632812 262.929688 30.34375 261.785156 C 27.765625 260.351562 23.1875 254.339844 23.1875 254.339844 " clip-rule="nonzero"/></clipPath><clipPath id="b1b6895992"><path d="M 0.621094 0.0507812 L 121.949219 0.0507812 L 121.949219 252.519531 L 0.621094 252.519531 Z M 0.621094 0.0507812 " clip-rule="nonzero"/></clipPath><clipPath id="c7777a7033"><path d="M 13.1875 243.339844 C 0.589844 204.984375 0.0195312 175.785156 1.449219 155.746094 C 2.59375 138.285156 6.316406 122.253906 10.039062 107.367188 C 13.472656 94.488281 16.910156 82.464844 22.632812 71.585938 C 28.074219 60.996094 33.511719 52.691406 43.246094 43.246094 C 56.699219 29.503906 89.046875 5.746094 100.496094 1.738281 C 104.789062 0.308594 107.367188 0.0195312 110.230469 1.167969 C 114.238281 2.597656 119.390625 7.464844 120.820312 11.183594 C 122.25 14.046875 121.964844 18.054688 120.820312 20.917969 C 119.960938 23.78125 117.386719 26.929688 115.09375 28.648438 C 112.519531 30.363281 108.796875 31.796875 105.363281 31.507812 C 101.640625 30.9375 95.34375 27.5 93.054688 24.066406 C 91.050781 20.34375 91.050781 13.476562 92.195312 9.46875 C 93.339844 6.605469 96.203125 4.027344 99.066406 2.3125 C 101.925781 0.878906 105.648438 0.0195312 108.796875 0.878906 C 112.519531 1.738281 118.246094 6.03125 120.25 9.46875 C 121.964844 12.332031 121.964844 16.335938 121.394531 19.199219 C 120.535156 22.347656 119.390625 24.351562 116.242188 27.789062 C 108.226562 36.375 75.589844 52.980469 63.570312 65.289062 C 55.554688 73.875 51.257812 81.03125 46.679688 90.765625 C 41.527344 101.644531 38.378906 115.382812 36.085938 128.550781 C 33.511719 141.71875 32.367188 156.03125 31.792969 169.773438 C 31.222656 182.941406 30.078125 196.96875 32.082031 208.703125 C 33.796875 218.4375 40.382812 229.027344 41.242188 235.039062 C 41.527344 237.902344 41.527344 239.621094 40.667969 241.910156 C 39.523438 244.773438 36.660156 248.496094 34.082031 250.210938 C 32.082031 251.644531 29.789062 252.214844 27.5 252.214844 C 25.210938 252.5 22.632812 251.929688 20.34375 250.785156 C 17.765625 249.351562 13.1875 243.339844 13.1875 243.339844 " clip-rule="nonzero"/></clipPath><clipPath id="90bcffe774"><rect x="0" width="122" y="0" height="253"/></clipPath><clipPath id="1f0d344397"><path d="M 318.789062 303.804688 L 363.386719 303.804688 L 363.386719 362.917969 L 318.789062 362.917969 Z M 318.789062 303.804688 " clip-rule="nonzero"/></clipPath><clipPath id="a0f074b95c"><path d="M 354.101562 316.171875 C 330.914062 325.90625 352.671875 325.90625 357.824219 329.914062 C 361.257812 332.492188 363.835938 335.925781 363.261719 339.359375 C 362.117188 345.945312 342.9375 361.402344 336.640625 362.546875 C 333.492188 363.121094 330.058594 361.6875 328.914062 359.972656 C 328.054688 358.253906 329.199219 353.386719 330.628906 351.957031 C 332.0625 350.8125 335.78125 351.097656 337.5 351.957031 C 338.644531 352.242188 339.503906 353.671875 339.789062 354.820312 C 340.078125 356.535156 339.21875 360.542969 337.785156 361.6875 C 336.355469 362.832031 333.777344 363.121094 332.0625 362.546875 C 330.628906 361.976562 328.625 359.972656 328.339844 358.539062 C 328.054688 356.824219 328.625 354.246094 329.769531 352.816406 C 330.914062 351.667969 333.492188 350.8125 334.921875 350.8125 C 336.640625 351.097656 338.929688 352.816406 339.503906 354.246094 C 340.363281 355.675781 340.363281 358.539062 339.503906 359.972656 C 338.644531 361.402344 334.636719 362.832031 334.636719 362.832031 C 334.636719 363.121094 337.785156 361.976562 337.785156 361.6875 C 337.785156 361.402344 331.203125 362.546875 329.769531 361.117188 C 328.339844 359.683594 328.054688 356.535156 328.914062 354.246094 C 329.769531 350.8125 334.351562 346.804688 338.074219 343.367188 C 342.082031 339.648438 350.382812 332.492188 352.957031 333.347656 C 354.675781 334.207031 355.820312 340.21875 354.390625 341.652344 C 352.097656 343.941406 333.777344 337.070312 327.480469 333.0625 C 323.1875 330.488281 319.464844 326.480469 318.894531 323.042969 C 318.320312 320.46875 320.324219 317.605469 322.042969 315.316406 C 324.332031 312.453125 327.480469 310.449219 331.488281 308.730469 C 337.214844 306.15625 348.664062 302.71875 353.53125 304.4375 C 356.394531 305.296875 359.542969 308.730469 359.542969 310.734375 C 359.542969 312.453125 354.101562 316.171875 354.101562 316.171875 " clip-rule="nonzero"/></clipPath><clipPath id="a69575d830"><path d="M 0.789062 0.804688 L 45.386719 0.804688 L 45.386719 59.917969 L 0.789062 59.917969 Z M 0.789062 0.804688 " clip-rule="nonzero"/></clipPath><clipPath id="c392bb9891"><path d="M 36.101562 13.171875 C 12.914062 22.90625 34.671875 22.90625 39.824219 26.914062 C 43.257812 29.492188 45.835938 32.925781 45.261719 36.359375 C 44.117188 42.945312 24.9375 58.402344 18.640625 59.546875 C 15.492188 60.121094 12.058594 58.6875 10.914062 56.972656 C 10.054688 55.253906 11.199219 50.386719 12.628906 48.957031 C 14.0625 47.8125 17.78125 48.097656 19.5 48.957031 C 20.644531 49.242188 21.503906 50.671875 21.789062 51.820312 C 22.078125 53.535156 21.21875 57.542969 19.785156 58.6875 C 18.355469 59.832031 15.777344 60.121094 14.0625 59.546875 C 12.628906 58.976562 10.625 56.972656 10.339844 55.539062 C 10.054688 53.824219 10.625 51.246094 11.769531 49.816406 C 12.914062 48.667969 15.492188 47.8125 16.921875 47.8125 C 18.640625 48.097656 20.929688 49.816406 21.503906 51.246094 C 22.363281 52.675781 22.363281 55.539062 21.503906 56.972656 C 20.644531 58.402344 16.636719 59.832031 16.636719 59.832031 C 16.636719 60.121094 19.785156 58.976562 19.785156 58.6875 C 19.785156 58.402344 13.203125 59.546875 11.769531 58.117188 C 10.339844 56.683594 10.054688 53.535156 10.914062 51.246094 C 11.769531 47.8125 16.351562 43.804688 20.074219 40.367188 C 24.082031 36.648438 32.382812 29.492188 34.957031 30.347656 C 36.675781 31.207031 37.820312 37.21875 36.390625 38.652344 C 34.097656 40.941406 15.777344 34.070312 9.480469 30.0625 C 5.1875 27.488281 1.464844 23.480469 0.894531 20.042969 C 0.320312 17.46875 2.324219 14.605469 4.042969 12.316406 C 6.332031 9.453125 9.480469 7.449219 13.488281 5.730469 C 19.214844 3.15625 30.664062 -0.28125 35.53125 1.4375 C 38.394531 2.296875 41.542969 5.730469 41.542969 7.734375 C 41.542969 9.453125 36.101562 13.171875 36.101562 13.171875 " clip-rule="nonzero"/></clipPath><clipPath id="6113c9d60a"><rect x="0" width="46" y="0" height="60"/></clipPath></defs><g clip-path="url(#422f379904)"><g clip-path="url(#62ccaecbc7)"><g transform="matrix(1, 0, 0, 1, 98, 182)"><g clip-path="url(#7bc0f45a78)"><g clip-path="url(#cc6defb631)"><g clip-path="url(#74952a39d9)"><rect x="-180.5" width="540" fill="#ededed" height="539.999987" y="-264.499998" fill-opacity="1"/></g></g></g></g></g></g><g clip-path="url(#c20857a06a)"><g clip-path="url(#534b29dcec)"><g transform="matrix(1, 0, 0, 1, 223, 124)"><g clip-path="url(#16a86a1b2e)"><g clip-path="url(#5f8669dc5b)"><g clip-path="url(#43cc8aae87)"><rect x="-305.5" width="540" fill="#ededed" height="539.999987" y="-206.499998" fill-opacity="1"/></g></g></g></g></g></g><g clip-path="url(#9be037dd86)"><g clip-path="url(#6579bda176)"><g transform="matrix(1, 0, 0, 1, 105, 225)"><g clip-path="url(#e2dd158f8f)"><g clip-path="url(#e03dbc38a7)"><g clip-path="url(#4af73b8b1c)"><rect x="-187.5" width="540" fill="#ededed" height="539.999987" y="-307.499998" fill-opacity="1"/></g></g></g></g></g></g><g clip-path="url(#5381e90697)"><g clip-path="url(#7c9be14f76)"><g transform="matrix(1, 0, 0, 1, 10, 11)"><g clip-path="url(#90bcffe774)"><g clip-path="url(#b1b6895992)"><g clip-path="url(#c7777a7033)"><rect x="-92.5" width="540" fill="#cdf24f" height="539.999987" y="-93.499998" fill-opacity="1"/></g></g></g></g></g></g><g clip-path="url(#1f0d344397)"><g clip-path="url(#a0f074b95c)"><g transform="matrix(1, 0, 0, 1, 318, 303)"><g clip-path="url(#6113c9d60a)"><g clip-path="url(#a69575d830)"><g clip-path="url(#c392bb9891)"><rect x="-400.5" width="540" fill="#f9de4d" height="539.999987" y="-385.499998" fill-opacity="1"/></g></g></g></g></g></g></svg>