<svg xmlns="http://www.w3.org/2000/svg" xmlns:xlink="http://www.w3.org/1999/xlink" width="1080" zoomAndPan="magnify" viewBox="0 0 810 1439.999935" height="1920" preserveAspectRatio="xMidYMid meet" version="1.0"><defs><g/><clipPath id="f87464b51e"><path d="M 208.671875 867.511719 L 268.9375 867.511719 L 268.9375 955.246094 L 208.671875 955.246094 Z M 208.671875 867.511719 " clip-rule="nonzero"/></clipPath><clipPath id="e4c7cda269"><path d="M 226.886719 885.191406 C 227.1875 912.191406 227.410156 914.890625 228.386719 918.113281 C 229.4375 921.488281 231.234375 925.164062 233.035156 928.164062 C 234.609375 930.789062 235.960938 933.566406 238.285156 935.214844 C 240.761719 936.863281 245.5625 939.113281 247.585938 937.914062 C 249.835938 936.714844 249.984375 930.863281 250.660156 927.113281 C 251.335938 923.289062 251.785156 918.941406 251.410156 915.339844 C 251.1875 912.265625 250.359375 910.539062 249.234375 906.941406 C 247.136719 900.265625 239.785156 884.816406 238.734375 879.039062 C 238.285156 876.566406 238.210938 875.214844 238.734375 873.566406 C 239.335938 871.914062 240.6875 870.113281 242.109375 869.140625 C 243.535156 868.164062 245.9375 867.789062 247.4375 867.714844 C 248.484375 867.714844 249.160156 867.863281 250.136719 868.316406 C 251.484375 868.988281 253.4375 870.414062 254.335938 871.914062 C 255.234375 873.414062 255.6875 875.589844 255.460938 877.316406 C 255.3125 879.039062 254.109375 881.140625 253.136719 882.265625 C 252.460938 883.089844 251.859375 883.539062 250.886719 883.988281 C 249.535156 884.515625 247.210938 885.113281 245.484375 884.816406 C 243.761719 884.515625 241.734375 883.238281 240.609375 882.265625 C 239.859375 881.515625 239.410156 880.914062 239.035156 879.941406 C 238.585938 878.515625 238.136719 876.113281 238.511719 874.464844 C 238.886719 872.738281 240.3125 870.789062 241.359375 869.738281 C 242.109375 868.988281 242.710938 868.613281 243.761719 868.316406 C 245.1875 867.863281 247.585938 867.566406 249.234375 868.015625 C 250.960938 868.464844 252.234375 869.140625 253.8125 871.164062 C 257.859375 876.265625 264.6875 897.339844 266.9375 905.441406 C 268.136719 909.789062 268.511719 912.113281 268.660156 915.566406 C 268.886719 919.316406 268.585938 923.664062 268.136719 927.265625 C 267.6875 930.488281 266.9375 933.113281 266.035156 936.113281 C 264.984375 939.488281 263.859375 943.539062 262.0625 946.539062 C 260.410156 949.316406 258.6875 952.089844 255.984375 953.515625 C 252.984375 955.164062 248.109375 955.238281 244.359375 955.015625 C 240.761719 954.789062 237.011719 953.589844 233.859375 952.238281 C 230.859375 950.964844 228.160156 949.464844 225.761719 947.289062 C 223.136719 945.039062 221.1875 942.414062 219.011719 938.816406 C 216.011719 933.714844 211.960938 926.738281 210.3125 919.089844 C 208.136719 909.488281 208.511719 891.714844 209.636719 885.191406 C 210.085938 882.414062 210.535156 880.914062 211.8125 879.488281 C 213.085938 878.066406 215.484375 876.941406 217.210938 876.640625 C 218.636719 876.339844 220.0625 876.640625 221.335938 877.089844 C 222.535156 877.613281 223.8125 878.363281 224.710938 879.488281 C 225.835938 880.839844 226.886719 885.191406 226.886719 885.191406 " clip-rule="nonzero"/></clipPath><clipPath id="05bc828c28"><path d="M 0.671875 0.511719 L 60.9375 0.511719 L 60.9375 88.246094 L 0.671875 88.246094 Z M 0.671875 0.511719 " clip-rule="nonzero"/></clipPath><clipPath id="006d6686af"><path d="M 18.886719 18.191406 C 19.1875 45.191406 19.410156 47.890625 20.386719 51.113281 C 21.4375 54.488281 23.234375 58.164062 25.035156 61.164062 C 26.609375 63.789062 27.960938 66.566406 30.285156 68.214844 C 32.761719 69.863281 37.5625 72.113281 39.585938 70.914062 C 41.835938 69.714844 41.984375 63.863281 42.660156 60.113281 C 43.335938 56.289062 43.785156 51.941406 43.410156 48.339844 C 43.1875 45.265625 42.359375 43.539062 41.234375 39.941406 C 39.136719 33.265625 31.785156 17.816406 30.734375 12.039062 C 30.285156 9.566406 30.210938 8.214844 30.734375 6.566406 C 31.335938 4.914062 32.6875 3.113281 34.109375 2.140625 C 35.535156 1.164062 37.9375 0.789062 39.4375 0.714844 C 40.484375 0.714844 41.160156 0.863281 42.136719 1.316406 C 43.484375 1.988281 45.4375 3.414062 46.335938 4.914062 C 47.234375 6.414062 47.6875 8.589844 47.460938 10.316406 C 47.3125 12.039062 46.109375 14.140625 45.136719 15.265625 C 44.460938 16.089844 43.859375 16.539062 42.886719 16.988281 C 41.535156 17.515625 39.210938 18.113281 37.484375 17.816406 C 35.761719 17.515625 33.734375 16.238281 32.609375 15.265625 C 31.859375 14.515625 31.410156 13.914062 31.035156 12.941406 C 30.585938 11.515625 30.136719 9.113281 30.511719 7.464844 C 30.886719 5.738281 32.3125 3.789062 33.359375 2.738281 C 34.109375 1.988281 34.710938 1.613281 35.761719 1.316406 C 37.1875 0.863281 39.585938 0.566406 41.234375 1.015625 C 42.960938 1.464844 44.234375 2.140625 45.8125 4.164062 C 49.859375 9.265625 56.6875 30.339844 58.9375 38.441406 C 60.136719 42.789062 60.511719 45.113281 60.660156 48.566406 C 60.886719 52.316406 60.585938 56.664062 60.136719 60.265625 C 59.6875 63.488281 58.9375 66.113281 58.035156 69.113281 C 56.984375 72.488281 55.859375 76.539062 54.0625 79.539062 C 52.410156 82.316406 50.6875 85.089844 47.984375 86.515625 C 44.984375 88.164062 40.109375 88.238281 36.359375 88.015625 C 32.761719 87.789062 29.011719 86.589844 25.859375 85.238281 C 22.859375 83.964844 20.160156 82.464844 17.761719 80.289062 C 15.136719 78.039062 13.1875 75.414062 11.011719 71.816406 C 8.011719 66.714844 3.960938 59.738281 2.3125 52.089844 C 0.136719 42.488281 0.511719 24.714844 1.636719 18.191406 C 2.085938 15.414062 2.535156 13.914062 3.8125 12.488281 C 5.085938 11.066406 7.484375 9.941406 9.210938 9.640625 C 10.636719 9.339844 12.0625 9.640625 13.335938 10.089844 C 14.535156 10.613281 15.8125 11.363281 16.710938 12.488281 C 17.835938 13.839844 18.886719 18.191406 18.886719 18.191406 " clip-rule="nonzero"/></clipPath><clipPath id="e67705ee0e"><rect x="0" width="61" y="0" height="89"/></clipPath><clipPath id="6899eadf98"><path d="M 273.730469 888 L 325.554688 888 L 325.554688 947 L 273.730469 947 Z M 273.730469 888 " clip-rule="nonzero"/></clipPath><clipPath id="cec6f508e3"><path d="M 291.761719 896.664062 C 291.910156 926.964844 292.8125 931.464844 292.660156 934.464844 C 292.585938 936.265625 292.585938 937.316406 292.0625 938.589844 C 291.535156 939.789062 290.636719 941.066406 289.585938 941.890625 C 288.609375 942.789062 287.1875 943.390625 285.910156 943.691406 C 284.5625 943.988281 283.0625 943.914062 281.785156 943.539062 C 280.511719 943.238281 279.160156 942.566406 278.1875 941.515625 C 276.984375 940.238281 275.710938 938.140625 275.484375 936.039062 C 275.261719 933.265625 277.136719 929.363281 278.261719 926.066406 C 279.386719 922.613281 280.660156 918.941406 282.234375 915.566406 C 283.886719 912.113281 285.984375 908.589844 288.085938 905.589844 C 290.109375 902.890625 291.835938 899.890625 294.609375 898.164062 C 297.609375 896.289062 302.5625 894.714844 305.859375 895.316406 C 308.710938 895.839844 311.035156 897.941406 313.359375 900.488281 C 316.660156 904.015625 320.335938 911.140625 322.359375 915.714844 C 323.9375 919.238281 324.910156 922.089844 325.359375 925.464844 C 325.8125 929.066406 325.285156 933.714844 324.835938 936.566406 C 324.535156 938.441406 324.160156 939.789062 323.710938 941.066406 C 323.335938 941.964844 323.109375 942.714844 322.4375 943.539062 C 321.460938 944.589844 319.585938 946.164062 317.859375 946.613281 C 316.210938 947.140625 314.035156 946.988281 312.386719 946.390625 C 310.734375 945.714844 309.085938 944.289062 308.1875 942.863281 C 307.285156 941.363281 306.761719 939.191406 306.910156 937.464844 C 307.136719 935.738281 308.261719 933.640625 309.234375 932.441406 C 309.835938 931.613281 310.4375 931.164062 311.410156 930.714844 C 312.761719 930.191406 315.160156 929.515625 316.886719 929.816406 C 318.535156 930.113281 320.5625 931.089844 321.761719 932.363281 C 322.960938 933.640625 323.859375 935.589844 324.085938 937.316406 C 324.3125 939.039062 323.5625 941.363281 322.960938 942.714844 C 322.511719 943.691406 321.984375 944.214844 321.160156 944.890625 C 319.960938 945.714844 317.785156 946.839844 316.0625 946.914062 C 314.335938 947.066406 312.160156 946.464844 310.734375 945.488281 C 309.3125 944.515625 307.960938 942.488281 307.359375 941.140625 C 306.910156 940.164062 306.910156 939.488281 306.910156 938.441406 C 306.910156 936.863281 308.035156 934.765625 308.109375 932.664062 C 308.261719 930.039062 307.660156 926.890625 307.136719 923.816406 C 306.460938 920.289062 305.859375 912.941406 304.359375 912.714844 C 302.859375 912.488281 300.011719 918.941406 298.0625 922.464844 C 296.035156 926.214844 293.859375 931.164062 292.660156 934.464844 C 291.835938 936.789062 292.136719 938.890625 291.011719 940.390625 C 289.886719 941.890625 287.5625 943.238281 285.910156 943.691406 C 284.484375 944.066406 283.0625 943.914062 281.785156 943.539062 C 280.511719 943.238281 279.160156 942.414062 278.1875 941.515625 C 277.210938 940.613281 276.460938 939.339844 275.9375 938.066406 C 275.410156 936.640625 275.335938 935.738281 275.1875 933.414062 C 274.585938 926.738281 272.710938 901.316406 274.734375 894.640625 C 275.5625 891.941406 276.609375 890.664062 278.1875 889.613281 C 279.761719 888.488281 282.234375 887.890625 284.109375 888.113281 C 286.0625 888.339844 288.3125 889.539062 289.585938 890.964844 C 290.785156 892.390625 291.761719 896.664062 291.761719 896.664062 " clip-rule="nonzero"/></clipPath><clipPath id="8122241b0a"><path d="M 0.730469 0 L 52.554688 0 L 52.554688 59 L 0.730469 59 Z M 0.730469 0 " clip-rule="nonzero"/></clipPath><clipPath id="a6dd7268de"><path d="M 18.761719 8.664062 C 18.910156 38.964844 19.8125 43.464844 19.660156 46.464844 C 19.585938 48.265625 19.585938 49.316406 19.0625 50.589844 C 18.535156 51.789062 17.636719 53.066406 16.585938 53.890625 C 15.609375 54.789062 14.1875 55.390625 12.910156 55.691406 C 11.5625 55.988281 10.0625 55.914062 8.785156 55.539062 C 7.511719 55.238281 6.160156 54.566406 5.1875 53.515625 C 3.984375 52.238281 2.710938 50.140625 2.484375 48.039062 C 2.261719 45.265625 4.136719 41.363281 5.261719 38.066406 C 6.386719 34.613281 7.660156 30.941406 9.234375 27.566406 C 10.886719 24.113281 12.984375 20.589844 15.085938 17.589844 C 17.109375 14.890625 18.835938 11.890625 21.609375 10.164062 C 24.609375 8.289062 29.5625 6.714844 32.859375 7.316406 C 35.710938 7.839844 38.035156 9.941406 40.359375 12.488281 C 43.660156 16.015625 47.335938 23.140625 49.359375 27.714844 C 50.9375 31.238281 51.910156 34.089844 52.359375 37.464844 C 52.8125 41.066406 52.285156 45.714844 51.835938 48.566406 C 51.535156 50.441406 51.160156 51.789062 50.710938 53.066406 C 50.335938 53.964844 50.109375 54.714844 49.4375 55.539062 C 48.460938 56.589844 46.585938 58.164062 44.859375 58.613281 C 43.210938 59.140625 41.035156 58.988281 39.386719 58.390625 C 37.734375 57.714844 36.085938 56.289062 35.1875 54.863281 C 34.285156 53.363281 33.761719 51.191406 33.910156 49.464844 C 34.136719 47.738281 35.261719 45.640625 36.234375 44.441406 C 36.835938 43.613281 37.4375 43.164062 38.410156 42.714844 C 39.761719 42.191406 42.160156 41.515625 43.886719 41.816406 C 45.535156 42.113281 47.5625 43.089844 48.761719 44.363281 C 49.960938 45.640625 50.859375 47.589844 51.085938 49.316406 C 51.3125 51.039062 50.5625 53.363281 49.960938 54.714844 C 49.511719 55.691406 48.984375 56.214844 48.160156 56.890625 C 46.960938 57.714844 44.785156 58.839844 43.0625 58.914062 C 41.335938 59.066406 39.160156 58.464844 37.734375 57.488281 C 36.3125 56.515625 34.960938 54.488281 34.359375 53.140625 C 33.910156 52.164062 33.910156 51.488281 33.910156 50.441406 C 33.910156 48.863281 35.035156 46.765625 35.109375 44.664062 C 35.261719 42.039062 34.660156 38.890625 34.136719 35.816406 C 33.460938 32.289062 32.859375 24.941406 31.359375 24.714844 C 29.859375 24.488281 27.011719 30.941406 25.0625 34.464844 C 23.035156 38.214844 20.859375 43.164062 19.660156 46.464844 C 18.835938 48.789062 19.136719 50.890625 18.011719 52.390625 C 16.886719 53.890625 14.5625 55.238281 12.910156 55.691406 C 11.484375 56.066406 10.0625 55.914062 8.785156 55.539062 C 7.511719 55.238281 6.160156 54.414062 5.1875 53.515625 C 4.210938 52.613281 3.460938 51.339844 2.9375 50.066406 C 2.410156 48.640625 2.335938 47.738281 2.1875 45.414062 C 1.585938 38.738281 -0.289062 13.316406 1.734375 6.640625 C 2.5625 3.941406 3.609375 2.664062 5.1875 1.613281 C 6.761719 0.488281 9.234375 -0.109375 11.109375 0.113281 C 13.0625 0.339844 15.3125 1.539062 16.585938 2.964844 C 17.785156 4.390625 18.761719 8.664062 18.761719 8.664062 " clip-rule="nonzero"/></clipPath><clipPath id="be26be8be7"><rect x="0" width="53" y="0" height="59"/></clipPath></defs><rect x="-81" width="972" fill="#ffffff" y="-143.999994" height="1727.999922" fill-opacity="1"/><rect x="-81" width="972" fill="#232323" y="-143.999994" height="1727.999922" fill-opacity="1"/><g fill="#ffffff" fill-opacity="1"><g transform="translate(442.219396, 730.104301)"><g><path d="M 6.9375 -2.875 L 6.65625 -9.90625 L 6.84375 -11.796875 L 6.484375 -17.015625 L 6.75 -20.703125 L 6.484375 -22.6875 L 6.5625 -26.09375 L 6.75 -27.984375 L 6.75 -32.484375 L 6.484375 -35.09375 L 6.75 -60.296875 L 7.46875 -62.1875 L 9.1875 -63 L 11.15625 -62.90625 L 12.875 -63.1875 L 16.5625 -62.8125 L 18.265625 -63.09375 L 23.671875 -62.90625 L 25.203125 -63.09375 L 27.1875 -62.90625 L 28.984375 -63.09375 L 30.953125 -63 L 33.5625 -63.09375 L 35.8125 -62.90625 L 43.296875 -61.375 L 46.4375 -59.765625 L 50.9375 -56.34375 L 51.75 -54.984375 L 53.015625 -53.640625 L 55.4375 -48.6875 L 55.890625 -46.890625 L 56.15625 -45.1875 L 56.609375 -43.46875 L 56.515625 -36.359375 L 55.53125 -32.9375 L 54.90625 -31.40625 L 53.90625 -29.796875 L 53.28125 -28.078125 L 52.203125 -26.546875 L 49.6875 -24.125 L 48.6875 -22.234375 L 48.953125 -20.0625 L 51.65625 -15.390625 L 52.828125 -13.953125 L 53.734375 -12.328125 L 54.8125 -10.703125 L 55.625 -9.1875 L 58.5 -4.765625 L 59.671875 -2.515625 L 59.3125 -0.625 L 57.421875 -0.1875 L 55.4375 0 L 51.84375 0 L 50.046875 -0.1875 L 48.0625 0 L 44.8125 -0.1875 L 42.5625 -0.71875 L 40.765625 -2.34375 L 39.6875 -3.78125 L 38.875 -5.3125 L 37.703125 -7.015625 L 35.1875 -11.515625 L 34.5625 -13.234375 L 32.21875 -16.375 L 30.78125 -17.90625 L 28.53125 -18.625 L 26.90625 -18.546875 L 25.296875 -18.546875 L 23.484375 -17.640625 L 22.6875 -15.84375 L 22.859375 -10.265625 L 22.59375 -6.390625 L 22.953125 -4.5 L 22.765625 -2.609375 L 22.140625 -0.90625 L 19.34375 0 L 16.65625 0 L 14.765625 -0.1875 L 11.0625 0.09375 L 9.359375 0 L 7.5625 -0.90625 Z M 25.296875 -33.125 L 27.265625 -33.125 L 29.0625 -32.84375 L 36.09375 -33.484375 L 37.4375 -34.109375 L 38.515625 -35.1875 L 39.515625 -36.71875 L 40.234375 -38.515625 L 40.5 -40.953125 L 40.3125 -43.5625 L 39.6875 -45 L 38.796875 -46.34375 L 36 -48.0625 L 31.859375 -48.59375 L 26.90625 -48.6875 L 25.46875 -48.59375 L 23.671875 -47.703125 L 22.59375 -45.90625 L 22.859375 -35.8125 L 23.765625 -33.9375 Z M 59.40625 -46.703125 L 60.125 -45.09375 L 60.75 -43.5625 L 61.5625 -42.03125 L 62.375 -38.4375 L 62.015625 -35.8125 L 61.921875 -33.203125 L 61.109375 -29.609375 L 57.421875 -23.3125 L 56.875 -21.234375 L 57.328125 -19.078125 L 59.765625 -14.125 L 60.9375 -12.6875 L 61.65625 -10.984375 L 63.625 -7.828125 L 65.15625 -3.78125 L 65.796875 -0.90625 L 65.515625 2.0625 L 63.625 4.765625 L 61.375 5.671875 L 59.40625 5.765625 L 57.78125 5.578125 L 55.078125 5.84375 L 51.203125 5.671875 L 48.0625 4.765625 L 47.25 3.15625 L 48.421875 2.15625 L 59.3125 2.25 L 61.015625 1.34375 L 61.921875 -0.625 L 61.828125 -3.15625 L 60.84375 -5.671875 L 60.03125 -7.015625 L 58.953125 -8.640625 L 58.234375 -10.265625 L 55.078125 -14.765625 L 54.359375 -16.375 L 53.640625 -17.8125 L 52.5625 -19.34375 L 52.015625 -21.421875 L 52.921875 -23.578125 L 54.265625 -24.84375 L 55.4375 -26.1875 L 57.0625 -29.15625 L 58.6875 -34.203125 L 59.046875 -36 L 59.125 -42.84375 L 58.859375 -44.640625 L 58.3125 -46.265625 L 58.6875 -47.34375 Z M 25.109375 -38.0625 L 25.109375 -43.734375 L 25.921875 -45.359375 L 27.8125 -46.4375 L 33.03125 -46.34375 L 35.640625 -45.71875 L 37.265625 -44.734375 L 37.53125 -43.296875 L 36.1875 -42.84375 L 31.765625 -42.9375 L 29.609375 -41.9375 L 27.90625 -36.265625 L 25.921875 -36.453125 Z M 13.40625 3.0625 L 15.203125 2.15625 L 22.5 2.25 L 24.203125 1.265625 L 25.109375 -1.53125 L 24.9375 -4.3125 L 25.015625 -6.203125 L 24.9375 -7.921875 L 25.203125 -9.90625 L 25.109375 -12.59375 L 25.828125 -15.484375 L 27.359375 -16.296875 L 29.34375 -15.296875 L 30.421875 -13.59375 L 28.703125 -10.171875 L 28.4375 3.0625 L 27.71875 4.765625 L 24.9375 5.671875 L 15.203125 5.765625 L 13.40625 4.859375 Z M 13.40625 3.0625 "/></g></g></g><g fill="#ffffff" fill-opacity="1"><g transform="translate(498.591239, 737.037108)"><g><path d="M 20.703125 -2.515625 L 20.875 -4.40625 L 20.4375 -8.09375 L 20.515625 -11.515625 L 20.703125 -13.140625 L 20.609375 -14.84375 L 20.4375 -16.65625 L 20.515625 -23.765625 L 20.0625 -26.375 L 19.34375 -28.703125 L 11.34375 -41.3125 L 10.625 -42.84375 L 0.90625 -58.234375 L 0 -60.390625 L 0.1875 -62.375 L 2.15625 -62.90625 L 14.046875 -63.09375 L 16.296875 -62.09375 L 18.265625 -60.65625 L 18.984375 -58.859375 L 19.984375 -57.328125 L 24.484375 -49.40625 L 25.015625 -47.609375 L 25.828125 -45.984375 L 27.90625 -42.75 L 29.15625 -42.9375 L 32.125 -47.796875 L 33.484375 -51.03125 L 35.546875 -54 L 36.09375 -55.703125 L 37.265625 -57.421875 L 38.796875 -60.484375 L 40.6875 -62.1875 L 42.9375 -63.09375 L 44.640625 -62.90625 L 48.0625 -62.90625 L 49.953125 -63.1875 L 53.453125 -62.90625 L 55.265625 -63.1875 L 56.96875 -62.453125 L 57.234375 -60.296875 L 55.984375 -58.140625 L 55.34375 -56.515625 L 54.265625 -55.171875 L 43.921875 -38.0625 L 41.671875 -35.09375 L 40.6875 -33.5625 L 39.953125 -31.859375 L 36.8125 -26.375 L 36.359375 -23.765625 L 36.71875 -22.140625 L 36.453125 -16.921875 L 36.71875 -15.03125 L 36.265625 -9.546875 L 36.359375 -7.921875 L 36.265625 -6.203125 L 36.453125 -4.3125 L 36.453125 -2.796875 L 35.546875 -0.984375 L 32.84375 -0.09375 L 30.328125 0 L 28.4375 -0.09375 L 26.640625 0.09375 L 23.40625 -0.09375 L 21.6875 -0.984375 Z M 27.265625 -48.421875 L 23.671875 -55.171875 L 24.03125 -56.609375 L 26.09375 -56.703125 L 28.078125 -55.171875 L 28.703125 -53.734375 L 29.609375 -52.375 L 30.0625 -50.21875 L 29.703125 -48.15625 L 28.53125 -47.4375 Z M 27.453125 2.96875 L 29.875 2.15625 L 35.1875 2.34375 L 37.796875 1.171875 L 38.703125 -1.265625 L 38.609375 -3.78125 L 38.96875 -5.578125 L 38.703125 -9.1875 L 38.875 -10.984375 L 38.703125 -12.59375 L 38.796875 -16.203125 L 38.609375 -17.8125 L 38.796875 -19.625 L 38.4375 -21.234375 L 38.515625 -23.21875 L 40.140625 -28.34375 L 42.390625 -31.140625 L 48.78125 -42.125 L 50.046875 -43.65625 L 51.5625 -46.890625 L 52.921875 -48.421875 L 53.8125 -49.765625 L 55.34375 -53.015625 L 56.515625 -54.71875 L 57.953125 -56.15625 L 59.671875 -56.15625 L 59.9375 -54.265625 L 59.125 -52.296875 L 58.3125 -50.671875 L 57.234375 -49.140625 L 56.609375 -47.703125 L 55.34375 -46.265625 L 54.453125 -44.453125 L 53.90625 -43.015625 L 52.65625 -41.578125 L 51.75 -40.046875 L 51.125 -38.609375 L 48.59375 -34.65625 L 47.34375 -32.3125 L 46.4375 -31.046875 L 45.71875 -29.4375 L 44.640625 -27.984375 L 43.828125 -26.375 L 42.84375 -23.84375 L 42.390625 -21.328125 L 42.296875 -17.8125 L 42.484375 -14.3125 L 42.296875 -12.6875 L 42.125 -0.265625 L 42.390625 3.234375 L 41.484375 4.953125 L 39.6875 5.84375 L 29.15625 5.765625 L 27.1875 4.953125 Z M 27.453125 2.96875 "/></g></g></g><g fill="#ffffff" fill-opacity="1"><g transform="translate(555.83733, 730.104301)"><g><path d="M 20.703125 -2.515625 L 20.875 -4.40625 L 20.4375 -8.09375 L 20.515625 -11.515625 L 20.703125 -13.140625 L 20.609375 -14.84375 L 20.4375 -16.65625 L 20.515625 -23.765625 L 20.0625 -26.375 L 19.34375 -28.703125 L 11.34375 -41.3125 L 10.625 -42.84375 L 0.90625 -58.234375 L 0 -60.390625 L 0.1875 -62.375 L 2.15625 -62.90625 L 14.046875 -63.09375 L 16.296875 -62.09375 L 18.265625 -60.65625 L 18.984375 -58.859375 L 19.984375 -57.328125 L 24.484375 -49.40625 L 25.015625 -47.609375 L 25.828125 -45.984375 L 27.90625 -42.75 L 29.15625 -42.9375 L 32.125 -47.796875 L 33.484375 -51.03125 L 35.546875 -54 L 36.09375 -55.703125 L 37.265625 -57.421875 L 38.796875 -60.484375 L 40.6875 -62.1875 L 42.9375 -63.09375 L 44.640625 -62.90625 L 48.0625 -62.90625 L 49.953125 -63.1875 L 53.453125 -62.90625 L 55.265625 -63.1875 L 56.96875 -62.453125 L 57.234375 -60.296875 L 55.984375 -58.140625 L 55.34375 -56.515625 L 54.265625 -55.171875 L 43.921875 -38.0625 L 41.671875 -35.09375 L 40.6875 -33.5625 L 39.953125 -31.859375 L 36.8125 -26.375 L 36.359375 -23.765625 L 36.71875 -22.140625 L 36.453125 -16.921875 L 36.71875 -15.03125 L 36.265625 -9.546875 L 36.359375 -7.921875 L 36.265625 -6.203125 L 36.453125 -4.3125 L 36.453125 -2.796875 L 35.546875 -0.984375 L 32.84375 -0.09375 L 30.328125 0 L 28.4375 -0.09375 L 26.640625 0.09375 L 23.40625 -0.09375 L 21.6875 -0.984375 Z M 27.265625 -48.421875 L 23.671875 -55.171875 L 24.03125 -56.609375 L 26.09375 -56.703125 L 28.078125 -55.171875 L 28.703125 -53.734375 L 29.609375 -52.375 L 30.0625 -50.21875 L 29.703125 -48.15625 L 28.53125 -47.4375 Z M 27.453125 2.96875 L 29.875 2.15625 L 35.1875 2.34375 L 37.796875 1.171875 L 38.703125 -1.265625 L 38.609375 -3.78125 L 38.96875 -5.578125 L 38.703125 -9.1875 L 38.875 -10.984375 L 38.703125 -12.59375 L 38.796875 -16.203125 L 38.609375 -17.8125 L 38.796875 -19.625 L 38.4375 -21.234375 L 38.515625 -23.21875 L 40.140625 -28.34375 L 42.390625 -31.140625 L 48.78125 -42.125 L 50.046875 -43.65625 L 51.5625 -46.890625 L 52.921875 -48.421875 L 53.8125 -49.765625 L 55.34375 -53.015625 L 56.515625 -54.71875 L 57.953125 -56.15625 L 59.671875 -56.15625 L 59.9375 -54.265625 L 59.125 -52.296875 L 58.3125 -50.671875 L 57.234375 -49.140625 L 56.609375 -47.703125 L 55.34375 -46.265625 L 54.453125 -44.453125 L 53.90625 -43.015625 L 52.65625 -41.578125 L 51.75 -40.046875 L 51.125 -38.609375 L 48.59375 -34.65625 L 47.34375 -32.3125 L 46.4375 -31.046875 L 45.71875 -29.4375 L 44.640625 -27.984375 L 43.828125 -26.375 L 42.84375 -23.84375 L 42.390625 -21.328125 L 42.296875 -17.8125 L 42.484375 -14.3125 L 42.296875 -12.6875 L 42.125 -0.265625 L 42.390625 3.234375 L 41.484375 4.953125 L 39.6875 5.84375 L 29.15625 5.765625 L 27.1875 4.953125 Z M 27.453125 2.96875 "/></g></g></g><g fill="#ffffff" fill-opacity="1"><g transform="translate(600.526598, 737.037108)"><g><path d="M 1.171875 -2.4375 L 2.25 -6.203125 L 3.0625 -8.015625 L 4.140625 -9.453125 L 6.75 -16.015625 L 9.265625 -20.703125 L 9.90625 -22.5 L 10.703125 -23.9375 L 11.25 -25.828125 L 12.515625 -28.171875 L 13.140625 -29.875 L 14.484375 -32.21875 L 15.9375 -35.453125 L 16.921875 -37.078125 L 17.375 -38.609375 L 22.40625 -49.953125 L 23.40625 -51.5625 L 27.265625 -59.671875 L 27.8125 -61.296875 L 29.515625 -62.90625 L 32.40625 -63.8125 L 35.453125 -63 L 37.078125 -61.296875 L 37.625 -59.578125 L 38.4375 -58.234375 L 39.875 -54.8125 L 41.671875 -51.484375 L 43.015625 -48.328125 L 43.46875 -46.890625 L 45.09375 -43.46875 L 45.625 -41.765625 L 47.4375 -38.609375 L 47.875 -36.90625 L 48.78125 -35.375 L 49.5 -33.84375 L 50.484375 -32.21875 L 51.03125 -30.421875 L 51.84375 -29.0625 L 52.46875 -27.265625 L 53.28125 -25.734375 L 54 -23.9375 L 54.984375 -22.5 L 56.25 -19.171875 L 57.15625 -17.640625 L 57.78125 -15.9375 L 59.3125 -12.6875 L 59.84375 -10.984375 L 60.75 -9.625 L 61.296875 -7.828125 L 62.453125 -6.296875 L 63.09375 -4.6875 L 63.625 -2.4375 L 63.265625 -0.546875 L 61.65625 0 L 56.0625 0.1875 L 52.921875 -0.09375 L 51.296875 0.09375 L 48.953125 -0.8125 L 47.4375 -2.25 L 46.4375 -3.875 L 45.984375 -5.484375 L 44.09375 -6.9375 L 41.125 -7.921875 L 36.90625 -7.734375 L 35.015625 -7.921875 L 33.390625 -7.921875 L 31.3125 -7.65625 L 29.4375 -7.921875 L 24.390625 -7.828125 L 22.59375 -8.015625 L 20.4375 -7.109375 L 18.90625 -5.40625 L 17.375 -2.34375 L 15.75 -0.71875 L 13.6875 0.1875 L 11.34375 -0.09375 L 3.421875 -0.09375 L 1.625 -0.546875 Z M 44.015625 -57.0625 L 45.625 -55.53125 L 47.0625 -52.109375 L 47.96875 -50.671875 L 48.59375 -48.78125 L 50.046875 -45.625 L 51.125 -44.015625 L 51.65625 -42.484375 L 52.65625 -40.859375 L 53.09375 -39.15625 L 55.53125 -34.46875 L 56.796875 -30.953125 L 57.6875 -29.34375 L 58.234375 -27.8125 L 59.21875 -26.375 L 59.84375 -24.5625 L 62.1875 -19.625 L 63.265625 -18.1875 L 65.15625 -13.046875 L 67.765625 -8.453125 L 68.21875 -6.75 L 69.125 -5.125 L 70.375 0 L 70.46875 2.4375 L 69.125 5.21875 L 66.421875 6.03125 L 64.703125 6.03125 L 62.8125 5.84375 L 54.8125 5.84375 L 52.46875 5.125 L 51.84375 3.15625 L 53.015625 2.34375 L 60.296875 2.4375 L 62.1875 2.25 L 63.90625 2.34375 L 65.796875 1.4375 L 66.515625 0 L 65.4375 -4.6875 L 64.53125 -6.484375 L 64.078125 -8.015625 L 63 -9.71875 L 62.640625 -11.34375 L 60.75 -14.578125 L 60.203125 -16.375 L 56.4375 -24.484375 L 55.4375 -25.921875 L 53.453125 -31.046875 L 52.65625 -32.578125 L 52.015625 -34.109375 L 51.03125 -35.8125 L 50.484375 -37.625 L 49.765625 -39.0625 L 48.78125 -40.5 L 47.875 -42.203125 L 47.515625 -44.015625 L 41.9375 -55.34375 L 42.125 -57.15625 Z M 28.984375 -22.234375 L 36 -22.3125 L 37.53125 -23.046875 L 37.703125 -24.65625 L 37.078125 -26.28125 L 36.1875 -28.078125 L 35.8125 -29.515625 L 34.828125 -31.046875 L 33.65625 -34.5625 L 32.578125 -35.28125 L 31.40625 -34.375 L 30.59375 -32.9375 L 27 -24.75 L 27.265625 -22.953125 Z M 30.0625 -26.015625 L 30.515625 -27.90625 L 31.40625 -29.609375 L 33.03125 -30.328125 L 33.84375 -27.71875 L 32.484375 -24.65625 L 30.515625 -24.203125 Z M 4.5 4.046875 L 5.578125 2.796875 L 7.46875 2.34375 L 9.546875 2.4375 L 11.15625 2.25 L 14.671875 2.4375 L 17.09375 1.625 L 18.625 0.09375 L 20.0625 -3.234375 L 21.78125 -4.859375 L 23.9375 -5.578125 L 25.921875 -5.671875 L 29.609375 -5.484375 L 31.59375 -5.671875 L 34.015625 -5.484375 L 38.703125 -5.671875 L 40.40625 -5.578125 L 42.84375 -4.765625 L 43.46875 -2.796875 L 42.125 -2.0625 L 38.609375 -2.0625 L 37.078125 -1.890625 L 35.09375 -2.15625 L 26.09375 -2.0625 L 24.203125 -1.078125 L 22.40625 0.265625 L 20.875 3.6875 L 19.34375 5.125 L 17.1875 6.03125 L 15.296875 6.125 L 13.046875 5.84375 L 6.75 5.9375 L 5.125 5.484375 Z M 4.5 4.046875 "/></g></g></g><g fill="#ffffff" fill-opacity="1"><g transform="translate(661.136673, 719.969918)"><g><path d="M 53.09375 -1.4375 L 51.9375 -2.609375 L 50.84375 -3.953125 L 49.40625 -5.125 L 48.234375 -6.5625 L 39.515625 -15.296875 L 38.0625 -16.46875 L 25.203125 -29.0625 L 24.03125 -29.34375 L 23.125 -28.265625 L 23.484375 -26.375 L 23.21875 -4.3125 L 23.484375 -2.515625 L 22.6875 -0.71875 L 20.875 0.1875 L 18.8125 0 L 16.921875 0.265625 L 12.421875 0 L 9.359375 0.1875 L 7.65625 -0.8125 L 6.84375 -2.796875 L 6.84375 -4.5 L 6.5625 -6.296875 L 6.84375 -9.71875 L 6.65625 -11.515625 L 6.75 -15.203125 L 6.484375 -17.09375 L 6.484375 -18.8125 L 6.65625 -20.796875 L 6.65625 -22.5 L 6.84375 -24.125 L 6.484375 -36.984375 L 6.75 -38.875 L 6.65625 -40.765625 L 6.84375 -42.390625 L 6.5625 -46.078125 L 6.75 -47.875 L 6.5625 -60.484375 L 7.734375 -62.1875 L 9.90625 -63.265625 L 12.328125 -62.546875 L 15.9375 -60.125 L 20.796875 -55.171875 L 21.953125 -53.640625 L 23.484375 -52.5625 L 24.390625 -51.203125 L 26.09375 -50.046875 L 27.09375 -48.6875 L 29.875 -46.34375 L 31.765625 -44.375 L 32.765625 -43.109375 L 34.203125 -42.03125 L 37.34375 -38.796875 L 38.703125 -37.703125 L 42.65625 -33.65625 L 43.921875 -33.296875 L 44.375 -34.734375 L 44.28125 -38.34375 L 44.640625 -40.234375 L 44.640625 -41.9375 L 44.28125 -43.828125 L 44.375 -60.203125 L 45.265625 -62.09375 L 47.4375 -63 L 49.234375 -62.90625 L 50.84375 -63.09375 L 52.734375 -62.8125 L 54.71875 -63 L 56.4375 -63 L 58.234375 -62.8125 L 60.203125 -61.921875 L 61.296875 -60.296875 L 61.109375 -55.625 L 61.296875 -52.921875 L 60.9375 -51.125 L 60.9375 -47.515625 L 61.109375 -45.8125 L 60.84375 -42.203125 L 61.203125 -31.40625 L 61.015625 -29.4375 L 61.375 -26.90625 L 60.9375 -2.4375 L 60.125 -0.546875 L 58.046875 0.453125 L 55.703125 -0.265625 Z M 60.296875 2.609375 L 62.375 1.625 L 63.265625 -0.1875 L 63.546875 -21.953125 L 63.09375 -25.5625 L 63.359375 -29.25 L 63.265625 -30.78125 L 63.359375 -32.671875 L 63.625 -34.375 L 63.1875 -38.0625 L 63.453125 -40.140625 L 63.09375 -41.84375 L 63.359375 -45.359375 L 63.1875 -47.25 L 63.453125 -49.046875 L 63.453125 -54.359375 L 64.34375 -56.4375 L 65.609375 -56.15625 L 66.515625 -54.265625 L 66.6875 -49.953125 L 66.515625 -47.25 L 66.78125 -45.359375 L 66.59375 -43.46875 L 66.6875 -40.859375 L 66.421875 -36.453125 L 66.6875 -34.46875 L 66.59375 -32.671875 L 66.875 -30.875 L 66.515625 -23.671875 L 66.59375 -21.78125 L 66.515625 -20.25 L 66.59375 -18.265625 L 66.515625 -16.46875 L 66.875 -14.671875 L 66.6875 -12.953125 L 66.6875 -0.359375 L 66.515625 0.8125 L 66.59375 2.34375 L 65.796875 4.234375 L 63.984375 5.3125 L 61.46875 5.671875 L 59.3125 4.40625 L 58.953125 3.0625 Z M 29.34375 -19.171875 L 29.34375 -17.28125 L 29.15625 -15.5625 L 29.0625 -10.078125 L 29.34375 -8.015625 L 29.4375 -4.40625 L 29.15625 -0.625 L 29.34375 0.984375 L 29.0625 2.96875 L 28.265625 4.953125 L 25.296875 5.84375 L 23.671875 5.671875 L 19.078125 6.03125 L 17.1875 5.765625 L 15.125 5.84375 L 13.234375 4.859375 L 13.5 3.0625 L 15.296875 2.34375 L 17.375 2.34375 L 19.078125 2.15625 L 22.953125 2.25 L 24.84375 1.4375 L 25.65625 -0.546875 L 25.734375 -2.4375 L 25.375 -4.40625 L 25.46875 -7.015625 L 25.734375 -9 L 25.5625 -13.59375 L 25.828125 -16.46875 L 25.5625 -22.6875 L 26.1875 -23.9375 L 27.453125 -23.671875 Z M 29.34375 -19.171875 "/></g></g></g><g fill="#ffffff" fill-opacity="1"><g transform="translate(438.363748, 830.969908)"><g><path d="M 33.171875 -52.328125 C 38.398438 -52.328125 42.40625 -50.375 45.1875 -46.46875 C 47.976562 -42.570312 49.375 -37.023438 49.375 -29.828125 L 49.375 0 L 32.265625 0 L 32.265625 -23.265625 C 32.265625 -27.296875 31.789062 -30.382812 30.84375 -32.53125 C 29.90625 -34.675781 28.582031 -35.75 26.875 -35.75 C 23.789062 -35.75 21.734375 -32.703125 20.703125 -26.609375 L 20.703125 0 L 3.59375 0 L 3.59375 -64.28125 L 20.703125 -64.28125 L 20.703125 -43.578125 C 23.273438 -49.242188 27.429688 -52.160156 33.171875 -52.328125 Z M 33.171875 -52.328125 "/></g></g></g><g fill="#ffffff" fill-opacity="1"><g transform="translate(492.362544, 837.902715)"><g><path d="M 48.46875 -51.421875 L 48.46875 0 L 31.375 0 L 31.375 -7.71875 C 28.882812 -1.96875 25.285156 0.90625 20.578125 0.90625 C 14.828125 0.90625 10.410156 -1.40625 7.328125 -6.03125 C 4.242188 -10.664062 2.703125 -17.226562 2.703125 -25.71875 C 2.703125 -34.195312 4.242188 -40.75 7.328125 -45.375 C 10.410156 -50.007812 14.828125 -52.328125 20.578125 -52.328125 C 25.285156 -52.328125 28.882812 -49.457031 31.375 -43.71875 L 31.375 -51.421875 Z M 25.578125 -15.171875 C 27.472656 -15.171875 28.910156 -16.09375 29.890625 -17.9375 C 30.878906 -19.78125 31.375 -22.375 31.375 -25.71875 C 31.375 -29.0625 30.878906 -31.648438 29.890625 -33.484375 C 28.910156 -35.328125 27.472656 -36.25 25.578125 -36.25 C 23.609375 -36.25 22.085938 -35.328125 21.015625 -33.484375 C 19.953125 -31.648438 19.421875 -29.0625 19.421875 -25.71875 C 19.421875 -22.375 19.953125 -19.78125 21.015625 -17.9375 C 22.085938 -16.09375 23.609375 -15.171875 25.578125 -15.171875 Z M 25.578125 -15.171875 "/></g></g></g><g fill="#ffffff" fill-opacity="1"><g transform="translate(550.768794, 830.969908)"><g><path d="M 12.859375 -18.90625 L 3.59375 -8.75 C 6.851562 -5.75 10.390625 -3.390625 14.203125 -1.671875 C 18.015625 0.046875 21.851562 0.859375 25.71875 0.765625 C 32.832031 0.859375 38.296875 -0.550781 42.109375 -3.46875 C 45.921875 -6.382812 47.828125 -10.5 47.828125 -15.8125 C 47.828125 -19.664062 47.078125 -22.6875 45.578125 -24.875 C 44.078125 -27.0625 42.171875 -28.710938 39.859375 -29.828125 C 37.546875 -30.941406 35.0625 -31.691406 32.40625 -32.078125 C 29.75 -32.460938 27.257812 -32.695312 24.9375 -32.78125 C 22.625 -32.875 20.71875 -33.023438 19.21875 -33.234375 C 17.71875 -33.453125 16.96875 -33.988281 16.96875 -34.84375 C 16.96875 -36.726562 19.625 -37.671875 24.9375 -37.671875 C 29.144531 -37.671875 33.175781 -36 37.03125 -32.65625 L 46.15625 -42.6875 C 43.5 -45.6875 40.21875 -48.039062 36.3125 -49.75 C 32.414062 -51.46875 28.328125 -52.328125 24.046875 -52.328125 C 17.015625 -52.328125 11.566406 -50.867188 7.703125 -47.953125 C 3.847656 -45.035156 1.921875 -40.921875 1.921875 -35.609375 C 1.921875 -31.835938 2.671875 -28.859375 4.171875 -26.671875 C 5.671875 -24.492188 7.578125 -22.867188 9.890625 -21.796875 C 12.210938 -20.722656 14.703125 -20.015625 17.359375 -19.671875 C 20.015625 -19.328125 22.5 -19.113281 24.8125 -19.03125 C 27.125 -18.945312 29.03125 -18.753906 30.53125 -18.453125 C 32.03125 -18.148438 32.78125 -17.523438 32.78125 -16.578125 C 32.78125 -14.785156 30.164062 -13.890625 24.9375 -13.890625 C 22.96875 -13.890625 20.910156 -14.316406 18.765625 -15.171875 C 16.628906 -16.023438 14.660156 -17.269531 12.859375 -18.90625 Z M 12.859375 -18.90625 "/></g></g></g><g fill="#ffffff" fill-opacity="1"><g transform="translate(331.435684, 950.03709)"><g><path d="M 13.3125 -57.0625 C 13.019531 -48.65625 12.875 -44.09375 12.875 -43.375 L 12.78125 -30.515625 C 12.78125 -29.367188 12.8125 -28.378906 12.875 -27.546875 L 12.953125 -22.140625 C 12.953125 -20.878906 12.925781 -20.097656 12.875 -19.796875 C 12.8125 -19.441406 12.796875 -19.113281 12.828125 -18.8125 C 12.859375 -18.507812 12.875 -18.300781 12.875 -18.1875 C 12.875 -17.9375 12.898438 -17.785156 12.953125 -17.734375 L 15.125 -17.546875 C 17.039062 -17.429688 18.628906 -17.398438 19.890625 -17.453125 L 36.546875 -17.640625 C 36.546875 -17.640625 39.691406 -17.550781 45.984375 -17.375 L 50.21875 -17.28125 C 50.875 -17.21875 51.203125 -17.035156 51.203125 -16.734375 C 51.203125 -16.617188 51.171875 -16.46875 51.109375 -16.28125 C 51.054688 -16.101562 51.03125 -15.925781 51.03125 -15.75 L 51.03125 -11.609375 C 51.03125 -10.523438 51.207031 -8.242188 51.5625 -4.765625 L 51.9375 -0.984375 L 52.015625 -0.546875 C 52.015625 -0.242188 51.863281 -0.046875 51.5625 0.046875 C 51.269531 0.140625 50.734375 0.1875 49.953125 0.1875 L 43.375 0.09375 L 32.21875 -0.09375 C 30.71875 -0.09375 28.617188 0 25.921875 0.1875 C 24.722656 0.238281 23.382812 0.296875 21.90625 0.359375 C 20.4375 0.421875 18.984375 0.453125 17.546875 0.453125 L 16.015625 0.359375 C 15.660156 0.296875 14.972656 0.265625 13.953125 0.265625 L 9.90625 0.359375 C 9.175781 0.421875 8.242188 0.453125 7.109375 0.453125 C 6.328125 0.453125 5.859375 0.34375 5.703125 0.125 C 5.554688 -0.0820312 5.5 -0.394531 5.53125 -0.8125 C 5.5625 -1.226562 5.578125 -1.585938 5.578125 -1.890625 C 5.578125 -3.210938 5.664062 -5.492188 5.84375 -8.734375 L 6.125 -18 L 5.9375 -22.234375 C 5.875 -23.066406 5.8125 -24.066406 5.75 -25.234375 C 5.695312 -26.410156 5.671875 -27.628906 5.671875 -28.890625 C 5.671875 -26.847656 5.847656 -28.898438 6.203125 -35.046875 C 6.566406 -41.203125 6.75 -45 6.75 -46.4375 L 6.65625 -56.609375 L 6.484375 -62.375 L 6.484375 -62.453125 C 6.484375 -62.941406 6.8125 -63.1875 7.46875 -63.1875 L 8.734375 -63.09375 C 9.035156 -63.09375 9.425781 -63.078125 9.90625 -63.046875 C 10.382812 -63.015625 11.132812 -63 12.15625 -63 L 12.953125 -63 C 13.316406 -63 13.5 -62.757812 13.5 -62.28125 Z M 13.3125 -57.0625 "/></g></g></g><g fill="#ffffff" fill-opacity="1"><g transform="translate(382.539945, 956.969897)"><g><path d="M 39.328125 -62.8125 C 42.929688 -60.414062 45.828125 -57.175781 48.015625 -53.09375 C 50.203125 -49.019531 51.726562 -45.046875 52.59375 -41.171875 C 53.46875 -37.304688 53.90625 -34.265625 53.90625 -32.046875 C 53.90625 -28.316406 53.320312 -23.992188 52.15625 -19.078125 C 50.988281 -14.160156 48.484375 -9.585938 44.640625 -5.359375 C 40.796875 -1.128906 35.242188 0.984375 27.984375 0.984375 C 18.023438 0.984375 10.945312 -4.800781 6.75 -16.375 C 4.882812 -21.59375 3.832031 -27.414062 3.59375 -33.84375 C 3.59375 -39.125 4.703125 -44.144531 6.921875 -48.90625 C 9.148438 -53.675781 12.078125 -57.5 15.703125 -60.375 C 19.335938 -63.257812 23.070312 -64.703125 26.90625 -64.703125 C 30.382812 -64.703125 32.976562 -64.613281 34.6875 -64.4375 C 36.40625 -64.257812 37.953125 -63.71875 39.328125 -62.8125 Z M 27.546875 -4.046875 C 33.898438 -4.046875 38.632812 -6.703125 41.75 -12.015625 C 44.875 -17.328125 46.4375 -24.003906 46.4375 -32.046875 C 46.4375 -36.960938 45.703125 -41.503906 44.234375 -45.671875 C 42.765625 -49.847656 40.691406 -53.179688 38.015625 -55.671875 C 35.347656 -58.160156 32.273438 -59.40625 28.796875 -59.40625 C 28.492188 -59.40625 27.695312 -59.40625 26.40625 -59.40625 C 25.125 -59.40625 24 -59.191406 23.03125 -58.765625 C 22.070312 -58.347656 21.207031 -57.71875 20.4375 -56.875 C 18.445312 -54.894531 16.773438 -53.078125 15.421875 -51.421875 C 14.078125 -49.773438 12.726562 -47.332031 11.375 -44.09375 C 10.03125 -40.851562 9.359375 -37.101562 9.359375 -32.84375 C 9.359375 -27.8125 9.972656 -23.117188 11.203125 -18.765625 C 12.429688 -14.410156 14.394531 -10.867188 17.09375 -8.140625 C 19.800781 -5.410156 23.285156 -4.046875 27.546875 -4.046875 Z M 27.546875 -4.046875 "/></g></g></g><g fill="#ffffff" fill-opacity="1"><g transform="translate(442.70986, 950.03709)"><g><path d="M 26.28125 -64.796875 C 31.195312 -64.796875 34.914062 -63.910156 37.4375 -62.140625 C 39.957031 -60.367188 41.710938 -58.75 42.703125 -57.28125 C 43.691406 -55.8125 44.304688 -54.898438 44.546875 -54.546875 C 45.148438 -53.765625 45.453125 -53.160156 45.453125 -52.734375 C 45.453125 -52.378906 45.332031 -52.082031 45.09375 -51.84375 C 44.851562 -51.601562 44.550781 -51.390625 44.1875 -51.203125 C 43.832031 -51.023438 43.59375 -50.878906 43.46875 -50.765625 C 42.75 -50.285156 41.789062 -49.535156 40.59375 -48.515625 C 40.050781 -48.085938 39.253906 -47.46875 38.203125 -46.65625 C 37.148438 -45.851562 36.445312 -45.363281 36.09375 -45.1875 C 35.851562 -45 35.613281 -44.90625 35.375 -44.90625 C 34.945312 -44.90625 34.550781 -45.144531 34.1875 -45.625 C 33.832031 -46.101562 33.597656 -46.4375 33.484375 -46.625 C 33.359375 -46.800781 33.039062 -47.1875 32.53125 -47.78125 C 32.019531 -48.382812 31.375 -48.894531 30.59375 -49.3125 C 29.820312 -49.738281 28.953125 -49.953125 27.984375 -49.953125 C 26.191406 -49.953125 24.785156 -48.78125 23.765625 -46.4375 C 22.742188 -44.101562 22.234375 -39.9375 22.234375 -33.9375 C 22.234375 -29.96875 22.5625 -26.722656 23.21875 -24.203125 C 23.875 -21.691406 24.664062 -19.878906 25.59375 -18.765625 C 26.53125 -17.648438 27.421875 -17.09375 28.265625 -17.09375 C 29.460938 -17.09375 30.375 -17.363281 31 -17.90625 C 31.632812 -18.445312 32.191406 -19.46875 32.671875 -20.96875 C 33.148438 -22.40625 33.929688 -23.125 35.015625 -23.125 C 35.367188 -23.125 35.769531 -23.0625 36.21875 -22.9375 C 36.675781 -22.820312 37.023438 -22.738281 37.265625 -22.6875 C 37.859375 -22.4375 39.328125 -22.054688 41.671875 -21.546875 C 44.015625 -21.046875 46.023438 -20.644531 47.703125 -20.34375 C 48.535156 -20.15625 48.953125 -19.4375 48.953125 -18.1875 C 48.953125 -17.582031 48.925781 -17.128906 48.875 -16.828125 C 48.8125 -16.046875 48.570312 -15 48.15625 -13.6875 C 46.894531 -9.84375 44.75 -6.375 41.71875 -3.28125 C 38.6875 -0.195312 34.171875 1.34375 28.171875 1.34375 C 24.515625 1.34375 20.820312 0.234375 17.09375 -1.984375 C 13.375 -4.203125 10.222656 -7.90625 7.640625 -13.09375 C 5.066406 -18.28125 3.78125 -25.101562 3.78125 -33.5625 C 3.78125 -45.5625 6.085938 -53.765625 10.703125 -58.171875 C 15.328125 -62.585938 20.519531 -64.796875 26.28125 -64.796875 Z M 26.28125 -64.796875 "/></g></g></g><g fill="#ffffff" fill-opacity="1"><g transform="translate(490.235064, 956.969897)"><g><path d="M 17.8125 -62.1875 C 18.414062 -62.1875 18.804688 -62.082031 18.984375 -61.875 C 19.171875 -61.664062 19.265625 -61.351562 19.265625 -60.9375 C 19.265625 -60.6875 19.273438 -60.25 19.296875 -59.625 C 19.328125 -59 19.34375 -57.960938 19.34375 -56.515625 C 19.34375 -55.972656 19.28125 -55.070312 19.15625 -53.8125 C 19.039062 -52.5625 18.957031 -51.515625 18.90625 -50.671875 C 18.539062 -47.304688 18.359375 -45.113281 18.359375 -44.09375 L 18.359375 -38.15625 C 18.359375 -36.539062 18.390625 -35.28125 18.453125 -34.375 C 19.285156 -35.28125 20.003906 -36.179688 20.609375 -37.078125 L 23.9375 -41.40625 C 25.375 -43.257812 27.082031 -45.566406 29.0625 -48.328125 C 31.050781 -51.085938 32.582031 -53.25 33.65625 -54.8125 C 33.71875 -54.875 34.289062 -55.59375 35.375 -56.96875 C 35.550781 -57.207031 36.117188 -57.910156 37.078125 -59.078125 C 38.035156 -60.253906 38.609375 -61.140625 38.796875 -61.734375 C 38.972656 -62.273438 39.222656 -62.601562 39.546875 -62.71875 C 39.878906 -62.84375 40.222656 -62.921875 40.578125 -62.953125 C 40.941406 -62.984375 41.21875 -63 41.40625 -63 C 42.0625 -63 42.71875 -63.03125 43.375 -63.09375 C 44.039062 -63.15625 44.644531 -63.210938 45.1875 -63.265625 L 45.546875 -63.265625 C 46.617188 -63.265625 47.15625 -63.054688 47.15625 -62.640625 C 47.15625 -62.398438 47.019531 -62.144531 46.75 -61.875 C 46.476562 -61.601562 46.316406 -61.4375 46.265625 -61.375 C 45.359375 -60.351562 44.003906 -58.75 42.203125 -56.5625 C 40.410156 -54.375 38.851562 -52.441406 37.53125 -50.765625 C 36.144531 -48.785156 34.207031 -46.113281 31.71875 -42.75 C 29.226562 -39.382812 27.6875 -37.34375 27.09375 -36.625 C 26.488281 -35.90625 25.570312 -34.523438 24.34375 -32.484375 C 23.113281 -30.453125 22.5 -29.3125 22.5 -29.0625 C 22.5 -28.769531 22.78125 -28.351562 23.34375 -27.8125 C 23.914062 -27.269531 24.414062 -26.789062 24.84375 -26.375 C 25.382812 -25.707031 26.429688 -24.550781 27.984375 -22.90625 C 29.546875 -21.257812 30.78125 -19.984375 31.6875 -19.078125 L 33.5625 -17.015625 C 37.164062 -12.929688 39.6875 -10.257812 41.125 -9 C 42.6875 -7.5625 44.378906 -5.863281 46.203125 -3.90625 C 48.035156 -1.957031 49.101562 -0.835938 49.40625 -0.546875 L 49.59375 -0.1875 C 49.59375 0.0625 49.394531 0.257812 49 0.40625 C 48.613281 0.550781 48.210938 0.566406 47.796875 0.453125 L 44.90625 0.546875 L 40.3125 0.71875 C 38.8125 0.78125 37.644531 0.453125 36.8125 -0.265625 C 36.632812 -0.453125 36.195312 -0.875 35.5 -1.53125 C 34.8125 -2.1875 34.140625 -2.875 33.484375 -3.59375 C 31.679688 -5.519531 29.609375 -7.648438 27.265625 -9.984375 C 26.609375 -10.648438 25.832031 -11.34375 24.9375 -12.0625 L 22.140625 -14.578125 L 18.71875 -17.453125 L 18.71875 -9.90625 C 18.71875 -8.582031 18.804688 -7.050781 18.984375 -5.3125 L 19.171875 -1.265625 C 19.171875 -0.660156 19.050781 -0.296875 18.8125 -0.171875 C 18.570312 -0.0546875 18.316406 0 18.046875 0 C 17.773438 0 17.578125 0 17.453125 0 L 15.65625 -0.09375 L 12.6875 -0.265625 L 8.734375 -0.09375 L 5.765625 0 C 5.335938 0 5.078125 -0.117188 4.984375 -0.359375 C 4.898438 -0.597656 4.859375 -1.164062 4.859375 -2.0625 L 4.765625 -24.125 L 4.765625 -32.578125 C 4.765625 -39.722656 4.707031 -43.953125 4.59375 -45.265625 C 4.53125 -45.984375 4.5 -47.125 4.5 -48.6875 L 4.59375 -54.625 L 4.6875 -61.734375 C 4.6875 -62.273438 4.984375 -62.546875 5.578125 -62.546875 C 5.941406 -62.546875 6.285156 -62.5 6.609375 -62.40625 C 6.941406 -62.320312 7.257812 -62.28125 7.5625 -62.28125 Z M 17.8125 -62.1875 "/></g></g></g><g fill="#ffffff" fill-opacity="1"><g transform="translate(538.464284, 939.902706)"><g><path d="M 43.375 -58.859375 C 43.375 -57.484375 43.253906 -56.796875 43.015625 -56.796875 C 42.660156 -56.796875 42.253906 -56.835938 41.796875 -56.921875 C 41.347656 -57.015625 40.796875 -57.0625 40.140625 -57.0625 L 25.734375 -57.0625 L 14.578125 -57.15625 C 14.222656 -57.15625 12.875 -57.0625 10.53125 -56.875 L 8.453125 -56.703125 L 8.28125 -54.265625 C 8.21875 -53.367188 8.1875 -51.960938 8.1875 -50.046875 C 8.1875 -49.078125 8.25 -47.816406 8.375 -46.265625 C 8.488281 -44.816406 8.546875 -43.765625 8.546875 -43.109375 L 8.546875 -39.515625 C 8.546875 -38.546875 8.578125 -37.796875 8.640625 -37.265625 C 9.179688 -37.203125 9.988281 -37.171875 11.0625 -37.171875 L 14.671875 -37.171875 C 15.023438 -37.171875 15.742188 -37.226562 16.828125 -37.34375 C 18.390625 -37.46875 19.738281 -37.53125 20.875 -37.53125 C 21.351562 -37.53125 23.035156 -37.441406 25.921875 -37.265625 L 27.90625 -37.171875 C 28.382812 -37.171875 29.070312 -37.210938 29.96875 -37.296875 C 30.863281 -37.390625 31.734375 -37.4375 32.578125 -37.4375 L 35.546875 -37.34375 C 37.109375 -37.226562 38.191406 -37.171875 38.796875 -37.171875 C 39.453125 -37.171875 39.898438 -37.203125 40.140625 -37.265625 L 40.6875 -37.34375 C 41.101562 -37.34375 41.398438 -37.207031 41.578125 -36.9375 C 41.753906 -36.675781 41.816406 -36.425781 41.765625 -36.1875 C 41.703125 -35.757812 41.671875 -35.226562 41.671875 -34.59375 C 41.671875 -33.96875 41.640625 -33.414062 41.578125 -32.9375 C 41.515625 -32.457031 41.421875 -32.171875 41.296875 -32.078125 C 41.179688 -31.992188 40.828125 -31.953125 40.234375 -31.953125 L 36.625 -32.3125 C 32.125 -32.726562 29.1875 -32.9375 27.8125 -32.9375 C 22.707031 -32.9375 18.957031 -32.847656 16.5625 -32.671875 C 15.601562 -32.546875 14.550781 -32.484375 13.40625 -32.484375 C 12.269531 -32.484375 11.550781 -32.484375 11.25 -32.484375 C 10.113281 -32.484375 9.273438 -32.515625 8.734375 -32.578125 L 8.453125 -31.140625 C 8.335938 -30.054688 8.28125 -29.097656 8.28125 -28.265625 C 8.28125 -27.546875 8.335938 -26.703125 8.453125 -25.734375 C 8.578125 -24.773438 8.640625 -23.9375 8.640625 -23.21875 L 8.734375 -12.515625 L 8.640625 -8.015625 C 8.578125 -7.472656 8.546875 -6.722656 8.546875 -5.765625 C 9.328125 -5.703125 10.46875 -5.671875 11.96875 -5.671875 C 13.226562 -5.609375 15.175781 -5.578125 17.8125 -5.578125 L 22.6875 -5.484375 C 23.695312 -5.429688 25.253906 -5.40625 27.359375 -5.40625 C 28.617188 -5.40625 30.269531 -5.460938 32.3125 -5.578125 L 36.09375 -5.671875 C 37.53125 -5.671875 38.726562 -5.640625 39.6875 -5.578125 C 40.644531 -5.515625 41.363281 -5.484375 41.84375 -5.484375 C 42.320312 -5.484375 42.609375 -5.394531 42.703125 -5.21875 C 42.796875 -5.039062 42.84375 -4.648438 42.84375 -4.046875 C 42.84375 -3.628906 42.8125 -3.191406 42.75 -2.734375 C 42.6875 -2.285156 42.65625 -1.796875 42.65625 -1.265625 C 42.65625 -0.835938 42.503906 -0.550781 42.203125 -0.40625 C 41.910156 -0.257812 41.429688 -0.1875 40.765625 -0.1875 C 40.109375 -0.1875 39.570312 -0.210938 39.15625 -0.265625 C 37.53125 -0.453125 34.257812 -0.546875 29.34375 -0.546875 C 26.34375 -0.546875 24.179688 -0.515625 22.859375 -0.453125 C 21.835938 -0.390625 20.15625 -0.359375 17.8125 -0.359375 L 9.453125 -0.453125 C 8.492188 -0.515625 7.351562 -0.546875 6.03125 -0.546875 C 5.1875 -0.546875 4.628906 -0.648438 4.359375 -0.859375 C 4.085938 -1.066406 3.953125 -1.410156 3.953125 -1.890625 L 4.046875 -3.328125 C 4.109375 -3.566406 4.140625 -3.835938 4.140625 -4.140625 C 4.140625 -4.316406 4.109375 -4.75 4.046875 -5.4375 C 3.984375 -6.132812 3.953125 -7.410156 3.953125 -9.265625 C 3.953125 -11.066406 3.894531 -14.007812 3.78125 -18.09375 C 3.601562 -21.445312 3.515625 -24.6875 3.515625 -27.8125 C 3.515625 -29.132812 3.660156 -32.941406 3.953125 -39.234375 C 4.015625 -40.492188 4.078125 -41.753906 4.140625 -43.015625 C 4.203125 -44.273438 4.234375 -45.414062 4.234375 -46.4375 C 4.234375 -53.394531 4.140625 -57.984375 3.953125 -60.203125 C 3.773438 -61.648438 4.644531 -62.375 6.5625 -62.375 C 7.050781 -62.375 7.832031 -62.3125 8.90625 -62.1875 C 9.863281 -62.070312 10.582031 -62.015625 11.0625 -62.015625 L 16.734375 -62.1875 C 20.816406 -62.425781 23.96875 -62.546875 26.1875 -62.546875 C 28.769531 -62.546875 32.398438 -62.488281 37.078125 -62.375 C 38.578125 -62.3125 40.164062 -62.28125 41.84375 -62.28125 C 42.570312 -62.28125 43.023438 -62.097656 43.203125 -61.734375 C 43.378906 -61.378906 43.453125 -61.003906 43.421875 -60.609375 C 43.390625 -60.222656 43.375 -59.96875 43.375 -59.84375 Z M 43.375 -58.859375 "/></g></g></g><g fill="#ffffff" fill-opacity="1"><g transform="translate(450.875163, 1053.902697)"><g><path d="M 33.171875 -52.328125 C 38.398438 -52.328125 42.40625 -50.375 45.1875 -46.46875 C 47.976562 -42.570312 49.375 -37.023438 49.375 -29.828125 L 49.375 0 L 32.265625 0 L 32.265625 -23.265625 C 32.265625 -27.296875 31.789062 -30.382812 30.84375 -32.53125 C 29.90625 -34.675781 28.582031 -35.75 26.875 -35.75 C 23.789062 -35.75 21.734375 -32.703125 20.703125 -26.609375 L 20.703125 0 L 3.59375 0 L 3.59375 -64.28125 L 20.703125 -64.28125 L 20.703125 -43.578125 C 23.273438 -49.242188 27.429688 -52.160156 33.171875 -52.328125 Z M 33.171875 -52.328125 "/></g></g></g><g fill="#ffffff" fill-opacity="1"><g transform="translate(499.329527, 1055.585288)"><g><path d="M 4.484375 0 L 4.484375 -9.015625 L 22.5 -9.015625 L 22.5 -54.015625 L 4.484375 -54.015625 L 4.484375 -63.015625 L 49.484375 -63.015625 L 49.484375 -54.015625 L 31.515625 -54.015625 L 31.515625 -9.015625 L 49.484375 -9.015625 L 49.484375 0 Z M 4.484375 0 "/></g></g></g><g fill="#ffffff" fill-opacity="1"><g transform="translate(553.294362, 1042.884489)"><g><path d="M 34.765625 -51.234375 C 34.910156 -50.890625 34.953125 -50.507812 34.890625 -50.09375 C 34.835938 -49.6875 34.425781 -48.984375 33.65625 -47.984375 C 32.894531 -46.992188 32.441406 -45.925781 32.296875 -44.78125 C 32.148438 -43.632812 32.101562 -42.695312 32.15625 -41.96875 C 32.21875 -41.238281 32.222656 -40.609375 32.171875 -40.078125 C 32.109375 -38.785156 31.40625 -37.90625 30.0625 -37.4375 C 28.882812 -36.96875 27.972656 -37 27.328125 -37.53125 C 26.691406 -38.0625 26.164062 -38.75 25.75 -39.59375 C 25.34375 -40.445312 25.035156 -41.179688 24.828125 -41.796875 C 24.617188 -42.410156 24.28125 -42.742188 23.8125 -42.796875 C 23 -42.972656 22.367188 -42.882812 21.921875 -42.53125 C 21.484375 -42.1875 21.148438 -41.894531 20.921875 -41.65625 C 20.453125 -41.1875 19.96875 -40.863281 19.46875 -40.6875 C 18.96875 -40.519531 18.570312 -40.347656 18.28125 -40.171875 C 17.695312 -39.753906 17.460938 -39.078125 17.578125 -38.140625 C 17.816406 -36.328125 19.835938 -33.578125 23.640625 -29.890625 C 24.347656 -29.179688 25.179688 -28.414062 26.140625 -27.59375 C 27.109375 -26.78125 28.0625 -25.84375 29 -24.78125 C 31.113281 -22.257812 32.285156 -19.421875 32.515625 -16.265625 C 32.753906 -13.035156 32.285156 -10.222656 31.109375 -7.828125 C 30.171875 -5.890625 29.0625 -4.628906 27.78125 -4.046875 C 26.78125 -3.515625 26.101562 -2.820312 25.75 -1.96875 C 25.394531 -1.125 25.128906 -0.507812 24.953125 -0.125 C 24.785156 0.25 24.421875 0.566406 23.859375 0.828125 C 23.304688 1.097656 22.675781 1.203125 21.96875 1.140625 C 21.269531 1.085938 20.613281 0.957031 20 0.75 C 19.382812 0.539062 18.828125 0.300781 18.328125 0.03125 C 17.828125 -0.226562 17.414062 -0.382812 17.09375 -0.4375 C 16.769531 -0.5 16.460938 -0.394531 16.171875 -0.125 C 15.878906 0.132812 15.585938 0.410156 15.296875 0.703125 C 14.410156 1.578125 13.613281 1.910156 12.90625 1.703125 C 12.207031 1.503906 11.390625 1.171875 10.453125 0.703125 C 9.515625 0.234375 8.609375 -0.351562 7.734375 -1.0625 C 4.566406 -3.519531 3.484375 -6.035156 4.484375 -8.609375 C 5.128906 -10.304688 5.847656 -11.503906 6.640625 -12.203125 C 7.429688 -12.910156 8.0625 -13.265625 8.53125 -13.265625 C 9.289062 -13.265625 9.800781 -12.988281 10.0625 -12.4375 C 10.320312 -11.882812 10.539062 -11.414062 10.71875 -11.03125 C 10.894531 -10.644531 11.097656 -10.332031 11.328125 -10.09375 C 11.566406 -9.863281 11.9375 -9.628906 12.4375 -9.390625 C 12.9375 -9.160156 13.476562 -9.019531 14.0625 -8.96875 C 15.53125 -8.851562 16.644531 -9.4375 17.40625 -10.71875 C 18.164062 -12.007812 18.457031 -13.414062 18.28125 -14.9375 C 17.875 -17.695312 17.289062 -18.867188 16.53125 -18.453125 C 15.882812 -18.046875 15.09375 -18.03125 14.15625 -18.40625 C 13.21875 -18.789062 12.71875 -19.289062 12.65625 -19.90625 C 12.59375 -20.519531 12.472656 -21.117188 12.296875 -21.703125 C 12.128906 -22.296875 11.925781 -22.851562 11.6875 -23.375 C 11.164062 -24.726562 10.695312 -25.460938 10.28125 -25.578125 C 9.8125 -25.691406 9.179688 -25.75 8.390625 -25.75 C 7.597656 -25.75 6.734375 -26.257812 5.796875 -27.28125 C 4.859375 -28.3125 4.1875 -29.601562 3.78125 -31.15625 C 3.375 -32.707031 3.019531 -34.054688 2.71875 -35.203125 C 2.425781 -36.347656 2.160156 -37.238281 1.921875 -37.875 C 1.691406 -38.519531 1.488281 -39.195312 1.3125 -39.90625 C 0.726562 -42.132812 0.703125 -45.003906 1.234375 -48.515625 C 1.585938 -50.566406 2.234375 -52.367188 3.171875 -53.921875 C 4.109375 -55.472656 5.160156 -57.007812 6.328125 -58.53125 C 8.554688 -61.519531 10.609375 -63.597656 12.484375 -64.765625 C 14.359375 -65.941406 15.789062 -66.0625 16.78125 -65.125 C 17.664062 -64.363281 18.617188 -64.054688 19.640625 -64.203125 C 20.671875 -64.347656 21.476562 -64.507812 22.0625 -64.6875 L 23.640625 -65.046875 C 24.640625 -65.273438 25.648438 -65.242188 26.671875 -64.953125 C 27.703125 -64.660156 28.625 -63.664062 29.4375 -61.96875 C 29.851562 -61.082031 30.28125 -60.316406 30.71875 -59.671875 C 31.15625 -59.035156 31.582031 -58.421875 32 -57.828125 C 32.875 -56.421875 33.382812 -55.265625 33.53125 -54.359375 C 33.675781 -53.453125 33.878906 -52.789062 34.140625 -52.375 C 34.410156 -51.96875 34.617188 -51.585938 34.765625 -51.234375 Z M 34.765625 -51.234375 "/></g></g></g><g fill="#ffffff" fill-opacity="1"><g transform="translate(587.384199, 946.835298)"><g><path d="M 39.421875 -55.265625 C 42.960938 -52.140625 45.300781 -48.429688 46.4375 -44.140625 C 47.582031 -39.847656 48.15625 -35.125 48.15625 -29.96875 C 48.15625 -27.269531 47.703125 -24.238281 46.796875 -20.875 C 45.898438 -17.519531 44.65625 -14.398438 43.0625 -11.515625 C 41.476562 -8.640625 39.632812 -6.507812 37.53125 -5.125 C 34.644531 -3.269531 31.070312 -1.96875 26.8125 -1.21875 C 22.5625 -0.46875 19.203125 -0.09375 16.734375 -0.09375 L 7.5625 -0.09375 C 6.894531 -0.09375 6.472656 -0.238281 6.296875 -0.53125 C 6.117188 -0.832031 6.117188 -1.164062 6.296875 -1.53125 C 6.359375 -1.707031 6.390625 -1.945312 6.390625 -2.25 C 6.390625 -2.488281 6.375 -2.800781 6.34375 -3.1875 C 6.3125 -3.582031 6.296875 -4.140625 6.296875 -4.859375 C 6.296875 -6.835938 6.265625 -8.785156 6.203125 -10.703125 L 6.03125 -27 L 6.125 -45.09375 C 6.125 -46.65625 6.09375 -48.171875 6.03125 -49.640625 C 5.96875 -51.109375 5.90625 -52.378906 5.84375 -53.453125 L 5.671875 -59.125 C 5.734375 -60.507812 5.820312 -61.46875 5.9375 -62 C 6.0625 -62.539062 6.300781 -62.8125 6.65625 -62.8125 L 6.9375 -62.8125 C 7.175781 -62.8125 7.441406 -62.765625 7.734375 -62.671875 C 8.035156 -62.585938 8.304688 -62.546875 8.546875 -62.546875 C 9.023438 -62.546875 9.609375 -62.578125 10.296875 -62.640625 C 10.992188 -62.703125 11.703125 -62.734375 12.421875 -62.734375 L 15.9375 -62.640625 C 19.289062 -62.640625 22.316406 -62.488281 25.015625 -62.1875 C 25.253906 -62.1875 26.050781 -62.125 27.40625 -62 C 28.757812 -61.882812 30.5 -61.253906 32.625 -60.109375 C 34.75 -58.972656 37.015625 -57.359375 39.421875 -55.265625 Z M 21.15625 -3.515625 C 25.289062 -3.273438 29.066406 -4.023438 32.484375 -5.765625 C 35.785156 -7.441406 38.515625 -10.226562 40.671875 -14.125 C 42.835938 -18.03125 43.921875 -23.3125 43.921875 -29.96875 C 43.921875 -36.570312 42.851562 -41.867188 40.71875 -45.859375 C 38.59375 -49.847656 35.910156 -52.832031 32.671875 -54.8125 C 29.367188 -56.789062 25.617188 -57.8125 21.421875 -57.875 L 21.0625 -49.6875 C 20.882812 -46.738281 20.796875 -42.6875 20.796875 -37.53125 C 20.796875 -37.050781 20.882812 -34.378906 21.0625 -29.515625 C 21.238281 -27.472656 21.328125 -25.554688 21.328125 -23.765625 L 21.234375 -12.15625 C 21.179688 -10.351562 21.15625 -7.472656 21.15625 -3.515625 Z M 21.15625 -3.515625 "/></g></g></g><g fill="#ffffff" fill-opacity="1"><g transform="translate(417.904134, 1136.662393)"><g><path d="M 36.71875 -48.59375 C 43.132812 -48.59375 48.082031 -46.492188 51.5625 -42.296875 C 55.050781 -38.097656 56.796875 -31.890625 56.796875 -23.671875 C 56.796875 -15.515625 55.050781 -9.347656 51.5625 -5.171875 C 48.082031 -1.003906 43.132812 1.078125 36.71875 1.078125 C 31.195312 1.078125 26.757812 -0.71875 23.40625 -4.3125 L 23.40625 17.734375 L 5.484375 17.734375 L 5.484375 -47.515625 L 20.0625 -47.515625 L 21.59375 -40.765625 C 25.070312 -45.984375 30.113281 -48.59375 36.71875 -48.59375 Z M 31.140625 -35.375 C 28.503906 -35.375 26.523438 -34.441406 25.203125 -32.578125 C 23.878906 -30.722656 23.21875 -28.296875 23.21875 -25.296875 L 23.21875 -22.3125 C 23.21875 -19.3125 23.878906 -16.867188 25.203125 -14.984375 C 26.523438 -13.097656 28.503906 -12.15625 31.140625 -12.15625 C 36.296875 -12.15625 38.875 -15.242188 38.875 -21.421875 L 38.875 -26.1875 C 38.875 -32.3125 36.296875 -35.375 31.140625 -35.375 Z M 31.140625 -35.375 "/></g></g></g><g fill="#ffffff" fill-opacity="1"><g transform="translate(473.408857, 1152.152688)"><g><path d="M 5.40625 0 L 5.40625 -77.40625 L 21.328125 -77.40625 L 21.328125 -41.3125 L 21.515625 -41.3125 C 25.648438 -45.445312 30.054688 -47.515625 34.734375 -47.515625 C 37.015625 -47.515625 39.28125 -47.210938 41.53125 -46.609375 C 43.78125 -46.015625 45.941406 -45.085938 48.015625 -43.828125 C 50.085938 -42.566406 51.765625 -40.78125 53.046875 -38.46875 C 54.335938 -36.164062 54.984375 -33.484375 54.984375 -30.421875 L 54.984375 0 L 39.0625 0 L 39.0625 -26.09375 C 39.0625 -28.5 38.296875 -30.597656 36.765625 -32.390625 C 35.234375 -34.191406 33.238281 -35.09375 30.78125 -35.09375 C 28.382812 -35.09375 26.207031 -34.160156 24.25 -32.296875 C 22.300781 -30.441406 21.328125 -28.375 21.328125 -26.09375 L 21.328125 0 Z M 5.40625 0 "/></g></g></g><g fill="#ffffff" fill-opacity="1"><g transform="translate(527.214285, 1143.412393)"><g><path d="M 26.8125 1.34375 C 18.78125 1.34375 12.484375 -0.769531 7.921875 -5 C 3.359375 -9.226562 1.078125 -15.0625 1.078125 -22.5 C 1.078125 -30 3.359375 -35.847656 7.921875 -40.046875 C 12.484375 -44.242188 18.78125 -46.34375 26.8125 -46.34375 C 34.914062 -46.34375 41.257812 -44.242188 45.84375 -40.046875 C 50.4375 -35.847656 52.734375 -30 52.734375 -22.5 C 52.734375 -15.0625 50.4375 -9.226562 45.84375 -5 C 41.257812 -0.769531 34.914062 1.34375 26.8125 1.34375 Z M 26.8125 -18.984375 C 32.8125 -18.984375 35.8125 -20.15625 35.8125 -22.5 C 35.8125 -23.582031 35.0625 -24.453125 33.5625 -25.109375 C 32.0625 -25.765625 29.8125 -26.09375 26.8125 -26.09375 C 23.9375 -26.09375 21.75 -25.765625 20.25 -25.109375 C 18.75 -24.453125 18 -23.582031 18 -22.5 C 18 -20.15625 20.9375 -18.984375 26.8125 -18.984375 Z M 26.8125 -18.984375 "/></g></g></g><g fill="#ffffff" fill-opacity="1"><g transform="translate(581.038504, 1145.634265)"><g><path d="M 22.6875 0 L 2.703125 0 C 2.703125 -4.4375 2.984375 -8.441406 3.546875 -12.015625 C 4.117188 -15.585938 4.703125 -19.082031 5.296875 -22.5 C 5.898438 -25.914062 6.203125 -29.515625 6.203125 -33.296875 C 6.203125 -35.992188 5.898438 -38.195312 5.296875 -39.90625 C 4.703125 -41.625 4.117188 -42.898438 3.546875 -43.734375 C 2.984375 -44.578125 2.703125 -45 2.703125 -45 C 2.703125 -45 3.238281 -45 4.3125 -45 C 5.394531 -45 6.742188 -45 8.359375 -45 C 9.984375 -45 11.585938 -45 13.171875 -45 C 14.765625 -45 16.101562 -45 17.1875 -45 C 18.269531 -45 18.8125 -45 18.8125 -45 C 19.644531 -44.582031 20.484375 -43.769531 21.328125 -42.5625 C 22.523438 -43.289062 23.84375 -43.878906 25.28125 -44.328125 C 26.726562 -44.773438 28.378906 -45 30.234375 -45 L 39.0625 -45 C 41.757812 -45 44.410156 -44.265625 47.015625 -42.796875 C 49.628906 -41.328125 51.789062 -39.179688 53.5 -36.359375 C 55.207031 -33.535156 56.0625 -30.085938 56.0625 -26.015625 C 56.0625 -23.253906 55.894531 -20.550781 55.5625 -17.90625 C 55.238281 -15.269531 54.925781 -12.867188 54.625 -10.703125 C 54.332031 -8.546875 54.226562 -6.820312 54.3125 -5.53125 C 54.40625 -4.238281 54.898438 -3.59375 55.796875 -3.59375 C 55.203125 -2.457031 54.242188 -1.585938 52.921875 -0.984375 C 51.597656 -0.390625 50.203125 0.0390625 48.734375 0.3125 C 47.265625 0.582031 46.019531 0.75 45 0.8125 C 43.976562 0.875 43.46875 0.90625 43.46875 0.90625 C 40.644531 0.90625 38.273438 0.273438 36.359375 -0.984375 C 34.441406 -2.242188 33.484375 -4.253906 33.484375 -7.015625 C 33.484375 -8.640625 33.675781 -10.09375 34.0625 -11.375 C 34.457031 -12.664062 34.910156 -14.015625 35.421875 -15.421875 C 35.929688 -16.835938 36.378906 -18.472656 36.765625 -20.328125 C 37.148438 -22.191406 37.34375 -24.476562 37.34375 -27.1875 C 37.34375 -27.957031 37.34375 -29.109375 37.34375 -30.640625 C 37.34375 -32.171875 37.191406 -33.742188 36.890625 -35.359375 C 36.597656 -36.984375 36.0625 -38.363281 35.28125 -39.5 C 34.5 -40.644531 33.328125 -41.21875 31.765625 -41.21875 C 29.671875 -41.21875 28.007812 -40.132812 26.78125 -37.96875 C 25.550781 -35.8125 24.648438 -32.828125 24.078125 -29.015625 C 23.503906 -25.210938 23.128906 -20.832031 22.953125 -15.875 C 22.773438 -10.925781 22.6875 -5.632812 22.6875 0 Z M 22.6875 0 "/></g></g></g><g fill="#ffffff" fill-opacity="1"><g transform="translate(638.455043, 1152.152688)"><g><path d="M 52.46875 -15.84375 C 53.425781 -16.800781 54.207031 -17.789062 54.8125 -18.8125 C 53.25 -14.375 50.640625 -10.59375 46.984375 -7.46875 C 44.222656 -5.125 41.160156 -3.304688 37.796875 -2.015625 C 34.441406 -0.734375 30.960938 -0.0625 27.359375 0 C 23.816406 0 20.5 -0.65625 17.40625 -1.96875 C 14.320312 -3.289062 11.609375 -5.125 9.265625 -7.46875 C 6.929688 -9.8125 5.101562 -12.523438 3.78125 -15.609375 C 2.457031 -18.703125 1.796875 -22.019531 1.796875 -25.5625 C 1.796875 -29.101562 2.457031 -32.429688 3.78125 -35.546875 C 5.101562 -38.671875 6.929688 -41.398438 9.265625 -43.734375 C 11.609375 -46.078125 14.320312 -47.90625 17.40625 -49.21875 C 20.5 -50.539062 23.816406 -51.203125 27.359375 -51.203125 L 29.703125 -51.203125 C 33.660156 -51.203125 37.363281 -50.347656 40.8125 -48.640625 C 44.257812 -46.929688 47.195312 -44.59375 49.625 -41.625 C 52.0625 -38.65625 53.726562 -35.21875 54.625 -31.3125 L 21.515625 -31.3125 L 21.515625 -29.609375 C 21.515625 -26.492188 22.203125 -23.597656 23.578125 -20.921875 C 24.960938 -18.253906 26.867188 -16.019531 29.296875 -14.21875 C 31.722656 -12.414062 34.46875 -11.304688 37.53125 -10.890625 C 40.289062 -10.472656 42.972656 -10.710938 45.578125 -11.609375 C 48.191406 -12.503906 50.488281 -13.914062 52.46875 -15.84375 Z M 21.515625 -44.1875 L 21.515625 -31.6875 L 34.921875 -31.6875 L 34.921875 -44.1875 C 34.921875 -46.050781 34.273438 -47.625 32.984375 -48.90625 C 31.691406 -50.195312 30.117188 -50.84375 28.265625 -50.84375 C 26.398438 -50.84375 24.804688 -50.195312 23.484375 -48.90625 C 22.171875 -47.625 21.515625 -46.050781 21.515625 -44.1875 Z M 21.515625 -44.1875 "/></g></g></g><g clip-path="url(#f87464b51e)"><g clip-path="url(#e4c7cda269)"><g transform="matrix(1, 0, 0, 1, 208, 867)"><g clip-path="url(#e67705ee0e)"><g clip-path="url(#05bc828c28)"><g clip-path="url(#006d6686af)"><rect x="-386.2" width="1166.4" fill="#ffffff" height="2073.599906" y="-1183.799986" fill-opacity="1"/></g></g></g></g></g></g><g clip-path="url(#6899eadf98)"><g clip-path="url(#cec6f508e3)"><g transform="matrix(1, 0, 0, 1, 273, 888)"><g clip-path="url(#be26be8be7)"><g clip-path="url(#8122241b0a)"><g clip-path="url(#a6dd7268de)"><rect x="-451.2" width="1166.4" fill="#ffffff" height="2073.599906" y="-1204.799986" fill-opacity="1"/></g></g></g></g></g></g></svg>